<?xml version="1.0" encoding="UTF-8" standalone="no"?>
<!-- Created with Inkscape (http://www.inkscape.org/) -->

<svg
   xmlns:dc="http://purl.org/dc/elements/1.1/"
   xmlns:cc="http://creativecommons.org/ns#"
   xmlns:rdf="http://www.w3.org/1999/02/22-rdf-syntax-ns#"
   xmlns:svg="http://www.w3.org/2000/svg"
   xmlns="http://www.w3.org/2000/svg"
   xmlns:sodipodi="http://sodipodi.sourceforge.net/DTD/sodipodi-0.dtd"
   xmlns:inkscape="http://www.inkscape.org/namespaces/inkscape"
   width="126"
   height="48"
   viewBox="0 0 33.337501 12.7"
   version="1.1"
   id="svg8"
   inkscape:version="0.92.4 (5da689c313, 2019-01-14)"
   sodipodi:docname="logo.svg">
  <defs
     id="defs2" />
  <sodipodi:namedview
     id="base"
     pagecolor="#666666"
     bordercolor="#666666"
     borderopacity="1.0"
     inkscape:pageopacity="1"
     inkscape:pageshadow="2"
     inkscape:zoom="5.6"
     inkscape:cx="57.846165"
     inkscape:cy="61.701982"
     inkscape:document-units="mm"
     inkscape:current-layer="layer1"
     showgrid="false"
     units="px"
     inkscape:window-width="1920"
     inkscape:window-height="1027"
     inkscape:window-x="-8"
     inkscape:window-y="-8"
     inkscape:window-maximized="1" />
  <metadata
     id="metadata5">
    <rdf:RDF>
      <cc:Work
         rdf:about="">
        <dc:format>image/svg+xml</dc:format>
        <dc:type
           rdf:resource="http://purl.org/dc/dcmitype/StillImage" />
        <dc:title></dc:title>
      </cc:Work>
    </rdf:RDF>
  </metadata>
  <g
     inkscape:label="Layer 1"
     inkscape:groupmode="layer"
     id="layer1"
     transform="translate(0,-284.3)">
    <path
       id="text12"
       transform="matrix(0.26458333,0,0,0.26458333,0,284.3)"
       style="font-style:normal;font-variant:normal;font-weight:normal;font-stretch:condensed;font-size:10.58333302px;line-height:1.25;font-family:Bahnschrift;-inkscape-font-specification:'Bahnschrift, Condensed';font-variant-ligatures:normal;font-variant-caps:normal;font-variant-numeric:normal;font-feature-settings:normal;text-align:center;letter-spacing:0px;word-spacing:0px;writing-mode:lr-tb;text-anchor:middle;fill:#e3e2db;fill-opacity:1;stroke:none;stroke-width:0.99999994"
       d="m 64.441406,-2.9863281 c -0.266666,0 -0.40039,0.1337239 -0.40039,0.4003906 0,0.2666667 0.133724,0.4003906 0.40039,0.4003906 0.266667,0 0.400391,-0.1337239 0.400391,-0.4003906 0,-0.2666667 -0.133724,-0.4003906 -0.400391,-0.4003906 z m 0,1.4804687 c -0.266666,0 -0.40039,0.1337241 -0.40039,0.4003906 0,0.26666676 0.133724,0.40039067 0.40039,0.40039068 0.266667,-10e-9 0.400391,-0.13372392 0.400391,-0.40039068 0,-0.2666665 -0.133724,-0.4003906 -0.400391,-0.4003906 z m 55.835934,0 c -0.26666,0 -0.39843,0.1337241 -0.39843,0.4003906 0,0.26666676 0.13177,0.40039067 0.39843,0.40039068 0.26667,-10e-9 0.40039,-0.13372392 0.40039,-0.40039068 0,-0.2666665 -0.13372,-0.4003906 -0.40039,-0.4003906 z M 64.441406,0.01367188 c -0.266666,0 -0.40039,0.13372396 -0.40039,0.40039062 0,0.26666666 0.133724,0.40039062 0.40039,0.40039062 0.266667,0 0.400391,-0.13372396 0.400391,-0.40039062 0,-0.26666666 -0.133724,-0.40039062 -0.400391,-0.40039062 z m 55.835934,0 c -0.26666,0 -0.39843,0.13372396 -0.39843,0.40039062 0,0.26666666 0.13177,0.40039062 0.39843,0.40039062 0.26667,0 0.40039,-0.13372396 0.40039,-0.40039062 0,-0.26666666 -0.13372,-0.40039062 -0.40039,-0.40039062 z M 64.441406,1.4550781 c -0.266666,0 -0.40039,0.1317709 -0.40039,0.3984375 0,0.2666667 0.133724,0.4003906 0.40039,0.4003906 0.266667,0 0.400391,-0.1337239 0.400391,-0.4003906 0,-0.2666666 -0.133724,-0.3984375 -0.400391,-0.3984375 z m 55.835934,0.080078 c -0.26666,0 -0.39843,0.1317709 -0.39843,0.3984376 0,0.2666665 0.13177,0.4003906 0.39843,0.4003906 0.26667,0 0.40039,-0.1337241 0.40039,-0.4003906 0,-0.2666667 -0.13372,-0.3984376 -0.40039,-0.3984376 z M 64.441406,3.0546875 c -0.266666,0 -0.40039,0.133724 -0.40039,0.4003906 0,0.2666667 0.133724,0.3984375 0.40039,0.3984375 0.266667,0 0.400391,-0.1317708 0.400391,-0.3984375 0,-0.2666666 -0.133724,-0.4003906 -0.400391,-0.4003906 z m 55.835934,0.080078 c -0.26666,0 -0.39843,0.1337241 -0.39843,0.4003906 0,0.2666667 0.13177,0.3984376 0.39843,0.3984376 0.26667,-1e-7 0.40039,-0.1317709 0.40039,-0.3984376 0,-0.2666665 -0.13372,-0.4003906 -0.40039,-0.4003906 z M 64.441406,4.6152344 c -0.266666,0 -0.40039,0.1317708 -0.40039,0.3984375 0,0.2666666 0.133724,0.4003906 0.40039,0.4003906 0.266667,0 0.400391,-0.133724 0.400391,-0.4003906 0,-0.2666667 -0.133724,-0.3984375 -0.400391,-0.3984375 z m 55.835934,0.1992187 c -0.26666,0 -0.39843,0.133724 -0.39843,0.4003907 0,0.2666665 0.13177,0.4003906 0.39843,0.4003906 0.26667,0 0.40039,-0.1337241 0.40039,-0.4003906 0,-0.2666667 -0.13372,-0.4003907 -0.40039,-0.4003907 z M 42.804688,5.2148438 c -0.266667,-10e-8 -0.400391,0.1337239 -0.400391,0.4003906 0,0.2666666 0.133724,0.3984375 0.400391,0.3984375 0.266665,0 0.40039,-0.1317709 0.40039,-0.3984375 0,-0.2666667 -0.133725,-0.4003906 -0.40039,-0.4003906 z m 1.679687,0.039062 c -0.266667,0 -0.400391,0.133724 -0.400391,0.4003907 0,0.2666666 0.133724,0.4003906 0.400391,0.4003906 0.266667,0 0.400391,-0.133724 0.400391,-0.4003906 0,-0.2666667 -0.133724,-0.4003907 -0.400391,-0.4003907 z m 37.210937,0 c -0.266665,0 -0.40039,0.133724 -0.40039,0.4003907 0,0.2666666 0.133725,0.4003906 0.40039,0.4003906 0.266667,0 0.400391,-0.133724 0.400391,-0.4003906 0,-0.2666667 -0.133724,-0.4003907 -0.400391,-0.4003907 z m 25.001958,0.041016 c -0.26667,0 -0.39844,0.1337239 -0.39844,0.4003906 0,0.2666667 0.13177,0.3984375 0.39844,0.3984375 0.26666,0 0.40039,-0.1317708 0.40039,-0.3984375 0,-0.2666667 -0.13373,-0.4003906 -0.40039,-0.4003906 z M 56.507812,5.4140625 c -0.266665,0 -0.40039,0.133724 -0.40039,0.4003906 0,0.2666667 0.133725,0.4003906 0.40039,0.4003907 0.266667,0 0.400391,-0.133724 0.400391,-0.4003907 0,-0.2666666 -0.133724,-0.4003906 -0.400391,-0.4003906 z m 40.390626,0 c -0.266667,0 -0.400391,0.133724 -0.400391,0.4003906 0,0.2666667 0.133724,0.4003906 0.400391,0.4003907 0.266665,0 0.40039,-0.133724 0.40039,-0.4003907 0,-0.2666666 -0.133725,-0.4003906 -0.40039,-0.4003906 z m 8.000002,0.041016 c -0.26667,0 -0.40039,0.1317709 -0.40039,0.3984375 0,0.2666667 0.13372,0.4003906 0.40039,0.4003906 0.26666,10e-8 0.40039,-0.1337239 0.40039,-0.4003906 0,-0.2666666 -0.13373,-0.3984375 -0.40039,-0.3984375 z M 41.125,5.4941406 c -0.266667,0 -0.400391,0.1337241 -0.400391,0.4003906 0,0.2666667 0.133724,0.4003907 0.400391,0.4003907 0.266667,0 0.400391,-0.133724 0.400391,-0.4003907 0,-0.2666665 -0.133724,-0.4003906 -0.400391,-0.4003906 z m 4.880859,0.041016 c -0.266666,0 -0.40039,0.1317709 -0.40039,0.3984376 0,0.2666665 0.133724,0.4003906 0.40039,0.4003906 0.266667,0 0.398438,-0.1337241 0.398438,-0.4003906 0,-0.2666667 -0.131771,-0.3984376 -0.398438,-0.3984376 z m 33.808594,0 c -0.266667,0 -0.40039,0.1317709 -0.400391,0.3984376 0,0.2666665 0.133724,0.4003906 0.400391,0.4003906 0.266667,0 0.400391,-0.1337241 0.400391,-0.4003906 0,-0.2666667 -0.133724,-0.3984376 -0.400391,-0.3984376 z m 3.720703,0 c -0.266666,0 -0.40039,0.1317709 -0.40039,0.3984376 0,0.2666665 0.133724,0.4003906 0.40039,0.4003906 0.266667,0 0.400391,-0.1337241 0.400391,-0.4003906 0,-0.2666667 -0.133724,-0.3984376 -0.400391,-0.3984376 z m 33.542964,0 c -0.26665,0 -0.40039,0.1317709 -0.40039,0.3984376 0,0.2666665 0.13374,0.4003906 0.40039,0.4003906 0.26667,0 0.4004,-0.1337241 0.4004,-0.4003906 0,-0.2666667 -0.13373,-0.3984376 -0.4004,-0.3984376 z m 1.48047,0 c -0.26666,0 -0.40039,0.1317709 -0.40039,0.3984376 0,0.2666665 0.13373,0.4003906 0.40039,0.4003906 0.26667,0 0.40039,-0.1337241 0.40039,-0.4003906 0,-0.2666667 -0.13372,-0.3984376 -0.40039,-0.3984376 z m 3.24024,0 c -0.26667,0 -0.40039,0.1317709 -0.40039,0.3984376 0,0.2666665 0.13372,0.4003906 0.40039,0.4003906 0.26666,0 0.39844,-0.1337241 0.39844,-0.4003906 0,-0.2666667 -0.13178,-0.3984376 -0.39844,-0.3984376 z m 1.51953,0 c -0.26667,0 -0.40039,0.1317709 -0.40039,0.3984376 0,0.2666665 0.13372,0.4003906 0.40039,0.4003906 0.26667,0 0.40039,-0.1337241 0.40039,-0.4003906 0,-0.2666667 -0.13372,-0.3984376 -0.40039,-0.3984376 z m 1.59961,0 c -0.26667,0 -0.40039,0.1317709 -0.40039,0.3984376 0,0.2666665 0.13372,0.4003906 0.40039,0.4003906 0.26667,0 0.40039,-0.1337241 0.40039,-0.4003906 0,-0.2666667 -0.13372,-0.3984376 -0.40039,-0.3984376 z m -16.5,0.1191407 c -0.26667,0 -0.40039,0.1337239 -0.40039,0.4003906 0,0.2666667 0.13372,0.4003906 0.40039,0.4003906 0.26667,0 0.40039,-0.1337239 0.40039,-0.4003906 0,-0.2666667 -0.13372,-0.4003906 -0.40039,-0.4003906 z M 39.525391,6.0546875 c -0.266667,0 -0.400391,0.133724 -0.400391,0.4003906 0,0.2666667 0.133724,0.3984375 0.400391,0.3984375 0.266666,0 0.40039,-0.1317708 0.40039,-0.3984375 0,-0.2666666 -0.133724,-0.4003906 -0.40039,-0.4003906 z m 7.839843,0 c -0.266666,0 -0.40039,0.133724 -0.40039,0.4003906 0,0.2666667 0.133724,0.3984375 0.40039,0.3984375 0.266667,0 0.400391,-0.1317708 0.400391,-0.3984375 0,-0.2666666 -0.133724,-0.4003906 -0.400391,-0.4003906 z m 30.84961,0 c -0.266667,0 -0.400391,0.133724 -0.400391,0.4003906 0,0.2666667 0.133724,0.3984375 0.400391,0.3984375 0.266666,0 0.40039,-0.1317708 0.40039,-0.3984375 0,-0.2666666 -0.133724,-0.4003906 -0.40039,-0.4003906 z m 6.919922,0 c -0.266667,0 -0.400391,0.133724 -0.400391,0.4003906 0,0.2666667 0.133724,0.3984375 0.400391,0.3984375 0.266666,0 0.40039,-0.1317708 0.40039,-0.3984375 0,-0.2666666 -0.133724,-0.4003906 -0.40039,-0.4003906 z m 18.042964,0 c -0.26666,0 -0.40039,0.133724 -0.40039,0.4003906 0,0.2666667 0.13373,0.3984375 0.40039,0.3984375 0.26667,0 0.40039,-0.1317708 0.40039,-0.3984375 1e-5,-0.2666666 -0.13372,-0.4003906 -0.40039,-0.4003906 z M 64.441406,6.3339844 c -0.266666,0 -0.40039,0.1337239 -0.40039,0.4003906 0,0.2666667 0.133724,0.4003906 0.40039,0.4003906 0.266667,0 0.400391,-0.1337239 0.400391,-0.4003906 0,-0.2666667 -0.133724,-0.4003906 -0.400391,-0.4003906 z m 55.835934,0 c -0.26666,0 -0.39843,0.1337239 -0.39843,0.4003906 0,0.2666667 0.13177,0.4003906 0.39843,0.4003906 0.26667,0 0.40039,-0.1337239 0.40039,-0.4003906 0,-0.2666667 -0.13372,-0.4003906 -0.40039,-0.4003906 z m -10.29882,0.2402344 c -0.26667,-10e-8 -0.4004,0.1337239 -0.4004,0.4003906 0,0.2666666 0.13373,0.4003906 0.4004,0.4003906 0.26666,0 0.40039,-0.133724 0.40039,-0.4003906 0,-0.2666667 -0.13373,-0.4003907 -0.40039,-0.4003906 z M 48.685547,6.6953125 c -0.266667,0 -0.400391,0.1317708 -0.400391,0.3984375 0,0.2666667 0.133724,0.4003906 0.400391,0.4003906 0.266667,0 0.398437,-0.1337239 0.398437,-0.4003906 0,-0.2666667 -0.13177,-0.3984375 -0.398437,-0.3984375 z m 52.931643,0.080078 c -0.26667,0 -0.39844,0.1317709 -0.39844,0.3984375 0,0.2666667 0.13177,0.4003907 0.39844,0.4003907 0.26666,0 0.40039,-0.133724 0.40039,-0.4003907 0,-0.2666666 -0.13373,-0.3984375 -0.40039,-0.3984375 z M 38.205078,6.8945312 c -0.266667,0 -0.40039,0.133724 -0.40039,0.4003907 0,0.2666666 0.133723,0.4003906 0.40039,0.4003906 0.266667,0 0.400391,-0.133724 0.400391,-0.4003906 0,-0.2666667 -0.133724,-0.4003907 -0.400391,-0.4003907 z m 18.302734,0 c -0.266665,0 -0.40039,0.133724 -0.40039,0.4003907 0,0.2666666 0.133725,0.4003906 0.40039,0.4003906 0.266667,0 0.400391,-0.133724 0.400391,-0.4003906 0,-0.2666667 -0.133724,-0.4003907 -0.400391,-0.4003907 z m 40.390626,0 c -0.266667,0 -0.400391,0.133724 -0.400391,0.4003907 0,0.2666666 0.133724,0.4003906 0.400391,0.4003906 0.266665,0 0.40039,-0.133724 0.40039,-0.4003906 0,-0.2666667 -0.133725,-0.4003907 -0.40039,-0.4003907 z m -20.244141,0.080078 c -0.266667,0 -0.398438,0.1337239 -0.398438,0.4003906 0,0.2666667 0.131771,0.4003906 0.398438,0.4003906 0.266667,0 0.400391,-0.1337239 0.400391,-0.4003906 -10e-7,-0.2666667 -0.133724,-0.4003906 -0.400391,-0.4003906 z m 10.041015,0 c -0.266665,0 -0.40039,0.1337239 -0.40039,0.4003906 0,0.2666667 0.133725,0.4003906 0.40039,0.4003906 0.266667,0 0.400391,-0.1337239 0.400391,-0.4003906 0,-0.2666667 -0.133724,-0.4003906 -0.400391,-0.4003906 z M 49.724609,7.6542969 c -0.266666,0 -0.40039,0.1337239 -0.40039,0.4003906 0,0.2666667 0.133724,0.4003906 0.40039,0.4003906 0.266667,0 0.400391,-0.1337239 0.400391,-0.4003906 0,-0.2666667 -0.133724,-0.4003906 -0.400391,-0.4003906 z m 61.132811,0.041016 c -0.26666,0 -0.39844,0.1317708 -0.39844,0.3984375 0,0.2666667 0.13178,0.4003906 0.39844,0.4003906 0.26667,0 0.40039,-0.1337239 0.40039,-0.4003906 0,-0.2666667 -0.13372,-0.3984375 -0.40039,-0.3984375 z m -10.59961,0.1191406 c -0.266661,0 -0.400388,0.133724 -0.400388,0.4003907 0,0.2666665 0.133727,0.4003906 0.400388,0.4003906 0.26667,0 0.40039,-0.1337241 0.40039,-0.4003906 0,-0.2666667 -0.13372,-0.4003907 -0.40039,-0.4003907 z M 64.441406,7.9335938 c -0.266666,0 -0.40039,0.1337239 -0.40039,0.4003906 0,0.2666666 0.133724,0.4003906 0.40039,0.4003906 0.266667,0 0.400391,-0.133724 0.400391,-0.4003906 0,-0.2666667 -0.133724,-0.4003906 -0.400391,-0.4003906 z m 55.835934,0 c -0.26666,0 -0.39843,0.1337239 -0.39843,0.4003906 0,0.2666666 0.13177,0.4003906 0.39843,0.4003906 0.26667,0 0.40039,-0.133724 0.40039,-0.4003906 0,-0.2666667 -0.13372,-0.4003906 -0.40039,-0.4003906 z M 75.375,8.09375 c -0.266667,0 -0.400391,0.133724 -0.400391,0.4003906 0,0.2666667 0.133724,0.4003906 0.400391,0.4003906 0.266667,0 0.400391,-0.1337239 0.400391,-0.4003906 C 75.775391,8.227474 75.641667,8.09375 75.375,8.09375 Z m 12.599609,0 c -0.266666,0 -0.40039,0.133724 -0.40039,0.4003906 0,0.2666667 0.133724,0.4003906 0.40039,0.4003906 0.266667,0 0.400391,-0.1337239 0.400391,-0.4003906 C 88.375,8.227474 88.241276,8.09375 87.974609,8.09375 Z m -50.730468,0.080078 c -0.266667,0 -0.398438,0.133724 -0.398438,0.4003907 0,0.2666665 0.131771,0.4003906 0.398438,0.4003906 0.266666,0 0.40039,-0.1337241 0.40039,-0.4003906 0,-0.2666667 -0.133724,-0.4003907 -0.40039,-0.4003907 z m 19.263671,0.3203125 c -0.266665,0 -0.40039,0.1337241 -0.40039,0.4003906 0,0.2666667 0.133725,0.4003907 0.40039,0.4003907 0.266667,0 0.400391,-0.133724 0.400391,-0.4003907 0,-0.2666665 -0.133724,-0.4003906 -0.400391,-0.4003906 z m 40.390626,0 c -0.266667,0 -0.400391,0.1337241 -0.400391,0.4003906 0,0.2666667 0.133724,0.4003907 0.400391,0.4003907 0.266665,0 0.40039,-0.133724 0.40039,-0.4003907 0,-0.2666665 -0.133725,-0.4003906 -0.40039,-0.4003906 z m 14.519532,0.5605469 c -0.26667,0 -0.40039,0.133724 -0.40039,0.4003906 0,0.2666667 0.13372,0.3984375 0.40039,0.3984375 0.26667,0 0.40039,-0.1317708 0.40039,-0.3984375 0,-0.2666666 -0.13372,-0.4003906 -0.40039,-0.4003906 z M 99.138672,9.09375 c -0.266667,0 -0.400391,0.133724 -0.400391,0.4003906 0,0.2666667 0.133724,0.4003906 0.400391,0.4003906 0.266667,0 0.398437,-0.1337239 0.398437,-0.4003906 0,-0.2666666 -0.13177,-0.4003906 -0.398437,-0.4003906 z M 74.255859,9.4550781 c -0.266666,0 -0.40039,0.1317709 -0.40039,0.3984375 0,0.2666664 0.133724,0.4003904 0.40039,0.4003904 0.266667,0 0.398438,-0.133724 0.398438,-0.4003904 0,-0.2666666 -0.131771,-0.3984375 -0.398438,-0.3984375 z m 14.839844,0 c -0.266667,0 -0.400389,0.1317709 -0.400391,0.3984375 10e-7,0.2666664 0.133724,0.4003904 0.400391,0.4003904 0.266667,0 0.398438,-0.133724 0.398438,-0.4003904 0,-0.2666666 -0.131771,-0.3984375 -0.398438,-0.3984375 z m -24.654297,0.080078 c -0.266666,0 -0.40039,0.1317709 -0.40039,0.3984376 0,0.2666662 0.133724,0.4003902 0.40039,0.4003902 0.266667,0 0.400391,-0.133724 0.400391,-0.4003902 0,-0.2666667 -0.133724,-0.3984376 -0.400391,-0.3984376 z m 55.835934,0 c -0.26666,0 -0.39843,0.1317709 -0.39843,0.3984376 0,0.2666662 0.13177,0.4003902 0.39843,0.4003902 0.26667,0 0.40039,-0.133724 0.40039,-0.4003902 0,-0.2666667 -0.13372,-0.3984376 -0.40039,-0.3984376 z M 36.685547,9.6953125 c -0.266667,0 -0.400391,0.1317708 -0.400391,0.3984375 0,0.266667 0.133724,0.400391 0.400391,0.400391 0.266667,0 0.398437,-0.133724 0.398437,-0.400391 0,-0.2666667 -0.13177,-0.3984375 -0.398437,-0.3984375 z m 19.822265,0.2382813 c -0.266665,0 -0.40039,0.1337242 -0.40039,0.4003902 0,0.266667 0.133725,0.400391 0.40039,0.400391 0.266667,0 0.400391,-0.133724 0.400391,-0.400391 0,-0.266666 -0.133724,-0.4003902 -0.400391,-0.4003902 z m 40.390626,0 c -0.266667,0 -0.400391,0.1337242 -0.400391,0.4003902 0,0.266667 0.133724,0.400391 0.400391,0.400391 0.266665,0 0.40039,-0.133724 0.40039,-0.400391 0,-0.266666 -0.133725,-0.4003902 -0.40039,-0.4003902 z m 14.839842,0.5214842 c -0.26667,0 -0.40039,0.131771 -0.40039,0.398438 0,0.266666 0.13372,0.40039 0.40039,0.40039 0.26667,0 0.40039,-0.133724 0.40039,-0.40039 0,-0.266667 -0.13372,-0.398438 -0.40039,-0.398438 z m -13.599608,0.03906 c -0.266667,0 -0.400391,0.133724 -0.400391,0.40039 0,0.266667 0.133724,0.400391 0.400391,0.400391 0.266667,0 0.398437,-0.133724 0.398437,-0.400391 0,-0.266666 -0.13177,-0.40039 -0.398437,-0.40039 z m -24.72461,0.359375 c -0.266665,0 -0.398437,0.133724 -0.398437,0.40039 0,0.266667 0.131772,0.400391 0.398437,0.400391 0.266667,0 0.400391,-0.133724 0.400391,-0.400391 0,-0.266666 -0.133724,-0.40039 -0.400391,-0.40039 z m 16.521485,0 c -0.266667,0 -0.400391,0.133724 -0.400391,0.40039 0,0.266667 0.133724,0.400391 0.400391,0.400391 0.266667,0 0.398437,-0.133724 0.398437,-0.400391 0,-0.266666 -0.13177,-0.40039 -0.398437,-0.40039 z m -25.494141,0.160156 c -0.266666,0 -0.40039,0.133725 -0.40039,0.40039 0,0.266667 0.133724,0.400391 0.40039,0.400391 0.266667,0 0.400391,-0.133724 0.400391,-0.400391 0,-0.266665 -0.133724,-0.40039 -0.400391,-0.40039 z m 55.835934,0 c -0.26666,0 -0.39843,0.133725 -0.39843,0.40039 0,0.266667 0.13177,0.400391 0.39843,0.400391 0.26667,0 0.40039,-0.133724 0.40039,-0.400391 0,-0.266665 -0.13372,-0.40039 -0.40039,-0.40039 z m -83.632809,0.201172 c -0.266666,0 -0.40039,0.133724 -0.40039,0.40039 0,0.266667 0.133724,0.398438 0.40039,0.398438 0.266667,0 0.400391,-0.131771 0.400391,-0.398438 0,-0.266666 -0.133724,-0.40039 -0.400391,-0.40039 z m 19.863281,0.199218 c -0.266665,0 -0.40039,0.133724 -0.40039,0.400391 0,0.266667 0.133725,0.400391 0.40039,0.400391 0.266667,0 0.400391,-0.133724 0.400391,-0.400391 0,-0.266667 -0.133724,-0.40039 -0.400391,-0.400391 z m 40.390626,0 c -0.266667,0 -0.400391,0.133724 -0.400391,0.400391 0,0.266667 0.133724,0.400391 0.400391,0.400391 0.266665,0 0.40039,-0.133724 0.40039,-0.400391 0,-0.266667 -0.133725,-0.40039 -0.40039,-0.400391 z m 15.039062,0.519532 c -0.26667,0 -0.40039,0.133724 -0.40039,0.40039 0,0.266667 0.13372,0.400391 0.40039,0.400391 0.26667,0 0.40039,-0.133724 0.40039,-0.400391 0,-0.266666 -0.13372,-0.40039 -0.40039,-0.40039 z m -39.123047,0.40039 c -0.266667,0 -0.400391,0.133724 -0.400391,0.400391 0,0.266667 0.133724,0.400391 0.400391,0.400391 0.266667,0 0.400391,-0.133724 0.400391,-0.400391 0,-0.266667 -0.133724,-0.400391 -0.400391,-0.400391 z m 17.720703,0 c -0.266666,0 -0.40039,0.133724 -0.40039,0.400391 0,0.266667 0.133724,0.400391 0.40039,0.400391 0.266667,0 0.400391,-0.133724 0.400391,-0.400391 0,-0.266667 -0.133724,-0.400391 -0.400391,-0.400391 z m -53.490234,0.201172 c -0.266667,0 -0.400391,0.131771 -0.400391,0.398438 0,0.266666 0.133724,0.40039 0.400391,0.40039 0.266667,0 0.40039,-0.133724 0.40039,-0.40039 0,-0.266667 -0.133723,-0.398438 -0.40039,-0.398438 z m 27.396484,0.08008 c -0.266666,0 -0.40039,0.131771 -0.40039,0.398438 0,0.266667 0.133724,0.40039 0.40039,0.40039 0.266667,0 0.400391,-0.133723 0.400391,-0.40039 0,-0.266667 -0.133724,-0.398438 -0.400391,-0.398438 z m 55.835934,0 c -0.26666,0 -0.39843,0.131771 -0.39843,0.398438 0,0.266667 0.13177,0.40039 0.39843,0.40039 0.26667,0 0.40039,-0.133723 0.40039,-0.40039 0,-0.266667 -0.13372,-0.398438 -0.40039,-0.398438 z m -63.769528,0.31836 c -0.266665,0 -0.40039,0.133724 -0.40039,0.40039 0,0.266667 0.133725,0.400391 0.40039,0.400391 0.266667,0 0.400391,-0.133724 0.400391,-0.400391 0,-0.266666 -0.133724,-0.40039 -0.400391,-0.40039 z m 40.390626,0 c -0.266667,0 -0.400391,0.133724 -0.400391,0.40039 0,0.266667 0.133724,0.400391 0.400391,0.400391 0.266665,0 0.40039,-0.133724 0.40039,-0.400391 0,-0.266666 -0.133725,-0.40039 -0.40039,-0.40039 z m 15.240232,0.521484 c -0.26666,0 -0.40039,0.131771 -0.40039,0.398438 0,0.266666 0.13373,0.40039 0.40039,0.40039 0.26667,0 0.39844,-0.133724 0.39844,-0.40039 0,-0.266667 -0.13177,-0.398438 -0.39844,-0.398438 z m -74.132811,0.08008 c -0.266666,0 -0.40039,0.131771 -0.40039,0.398438 0,0.266666 0.133724,0.40039 0.40039,0.40039 0.266667,0 0.398438,-0.133724 0.398438,-0.40039 0,-0.266667 -0.131771,-0.398438 -0.398438,-0.398438 z m 34.488282,0.279297 c -0.266667,0 -0.398438,0.133724 -0.398438,0.400391 0,0.266666 0.131771,0.40039 0.398438,0.40039 0.266666,0 0.40039,-0.133724 0.40039,-0.40039 0,-0.266667 -0.133724,-0.400391 -0.40039,-0.400391 z m 18.320312,0.03906 c -0.266667,0 -0.40039,0.133724 -0.400391,0.40039 0,0.266667 0.133724,0.400391 0.400391,0.400391 0.266667,0 0.400391,-0.133724 0.400391,-0.400391 0,-0.266666 -0.133724,-0.40039 -0.400391,-0.40039 z m -51.529297,0.28125 c -0.266666,0 -0.40039,0.133724 -0.40039,0.40039 0,0.266667 0.133724,0.398438 0.40039,0.398438 0.266667,0 0.400391,-0.131771 0.400391,-0.398438 0,-0.266666 -0.133724,-0.40039 -0.400391,-0.40039 z m 25.15625,0.08008 c -0.266666,0 -0.40039,0.133724 -0.40039,0.40039 0,0.266667 0.133724,0.398438 0.40039,0.398438 0.266667,0 0.400391,-0.131771 0.400391,-0.398438 0,-0.266666 -0.133724,-0.40039 -0.400391,-0.40039 z m 55.835934,0 c -0.26666,0 -0.39843,0.133724 -0.39843,0.40039 0,0.266667 0.13177,0.398438 0.39843,0.398438 0.26667,0 0.40039,-0.131771 0.40039,-0.398438 0,-0.266666 -0.13372,-0.40039 -0.40039,-0.40039 z m -63.769528,0.320312 c -0.266665,0 -0.40039,0.131771 -0.40039,0.398438 0,0.266666 0.133725,0.40039 0.40039,0.40039 0.266667,0 0.400391,-0.133724 0.400391,-0.40039 0,-0.266667 -0.133724,-0.398438 -0.400391,-0.398438 z m 40.390626,0 c -0.266667,0 -0.400391,0.131771 -0.400391,0.398438 0,0.266666 0.133724,0.40039 0.400391,0.40039 0.266665,0 0.40039,-0.133724 0.40039,-0.40039 0,-0.266667 -0.133725,-0.398438 -0.40039,-0.398438 z m -56.253907,0.03906 c -0.266666,0 -0.40039,0.133724 -0.40039,0.40039 0,0.266667 0.133724,0.400391 0.40039,0.400391 0.266667,0 0.400391,-0.133724 0.400391,-0.400391 0,-0.266666 -0.133724,-0.40039 -0.400391,-0.40039 z m 71.494139,0.121093 c -0.26666,0 -0.40039,0.131771 -0.40039,0.398438 0,0.266667 0.13373,0.400391 0.40039,0.400391 0.26667,0 0.39844,-0.133724 0.39844,-0.400391 0,-0.266667 -0.13177,-0.398437 -0.39844,-0.398438 z m -70.054686,0.238282 c -0.266666,0 -0.398437,0.133724 -0.398437,0.40039 0,0.266667 0.131771,0.400391 0.398437,0.400391 0.266667,0 0.400391,-0.133724 0.400391,-0.400391 0,-0.266666 -0.133724,-0.40039 -0.400391,-0.40039 z m 1.480469,0.361328 c -0.266667,0 -0.400391,0.133725 -0.400391,0.40039 0,0.266667 0.133724,0.398438 0.400391,0.398438 0.266667,0 0.400391,-0.131771 0.400391,-0.398438 0,-0.266665 -0.133724,-0.40039 -0.400391,-0.40039 z m 28.769531,0.11914 c -0.266666,0 -0.398437,0.133724 -0.398437,0.400391 0,0.266667 0.131771,0.400391 0.398437,0.400391 0.266667,0 0.400391,-0.133724 0.400391,-0.400391 0,-0.266667 -0.133724,-0.400391 -0.400391,-0.400391 z m 1.640625,0 c -0.266666,0 -0.40039,0.133724 -0.40039,0.400391 0,0.266667 0.133724,0.400391 0.40039,0.400391 0.266667,0 0.400391,-0.133724 0.400391,-0.400391 0,-0.266667 -0.133724,-0.400391 -0.400391,-0.400391 z m 1.640625,0 c -0.266666,0 -0.40039,0.133724 -0.40039,0.400391 0,0.266667 0.133724,0.400391 0.40039,0.400391 0.266667,0 0.400391,-0.133724 0.400391,-0.400391 0,-0.266667 -0.133724,-0.400391 -0.400391,-0.400391 z m 1.759766,0 c -0.266667,0 -0.400391,0.133724 -0.400391,0.400391 0,0.266667 0.133724,0.400391 0.400391,0.400391 0.266667,0 0.400391,-0.133724 0.400391,-0.400391 0,-0.266667 -0.133724,-0.400391 -0.400391,-0.400391 z m 1.800781,0 c -0.266666,0 -0.40039,0.133724 -0.40039,0.400391 0,0.266667 0.133724,0.400391 0.40039,0.400391 0.266667,0 0.398438,-0.133724 0.398438,-0.400391 0,-0.266667 -0.131771,-0.400391 -0.398438,-0.400391 z m 1.839844,0 c -0.266667,0 -0.400391,0.133724 -0.400391,0.400391 0,0.266667 0.133724,0.400391 0.400391,0.400391 0.266667,0 0.398437,-0.133724 0.398437,-0.400391 0,-0.266667 -0.13177,-0.400391 -0.398437,-0.400391 z m 1.71875,0 c -0.266667,0 -0.400391,0.133724 -0.400391,0.400391 0,0.266667 0.133724,0.400391 0.400391,0.400391 0.266667,0 0.400391,-0.133724 0.400391,-0.400391 0,-0.266667 -0.133724,-0.400391 -0.400391,-0.400391 z m 1.679687,0 c -0.266665,0 -0.398437,0.133724 -0.398437,0.400391 0,0.266667 0.131772,0.400391 0.398437,0.400391 0.266667,0 0.400391,-0.133724 0.400391,-0.400391 0,-0.266667 -0.133724,-0.400391 -0.400391,-0.400391 z m 1.601563,0 c -0.266667,0 -0.400391,0.133724 -0.400391,0.400391 0,0.266667 0.133724,0.400391 0.400391,0.400391 0.266667,0 0.398437,-0.133724 0.398437,-0.400391 10e-7,-0.266667 -0.13177,-0.400391 -0.398437,-0.400391 z m 1.638672,0 c -0.266667,0 -0.398438,0.133724 -0.398438,0.400391 0,0.266667 0.131771,0.400391 0.398438,0.400391 0.266667,0 0.400391,-0.133724 0.400391,-0.400391 0,-0.266667 -0.133724,-0.400391 -0.400391,-0.400391 z m 1.800781,0 c -0.266667,0 -0.400391,0.133724 -0.40039,0.400391 0,0.266667 0.133723,0.400391 0.40039,0.400391 0.266667,0 0.400391,-0.133724 0.400391,-0.400391 0,-0.266667 -0.133724,-0.400391 -0.400391,-0.400391 z m 1.560547,0 c -0.266667,0 -0.400391,0.133724 -0.400391,0.400391 0,0.266667 0.133724,0.400391 0.400391,0.400391 0.266667,0 0.398438,-0.133724 0.398437,-0.400391 10e-7,-0.266667 -0.13177,-0.400391 -0.398437,-0.400391 z m -45.970703,0.240235 c -0.266667,0 -0.400391,0.133724 -0.400391,0.400391 0,0.266665 0.133724,0.40039 0.400391,0.40039 0.266667,0 0.40039,-0.133725 0.40039,-0.40039 0,-0.266667 -0.133723,-0.400391 -0.40039,-0.400391 z m 19.396484,0.121094 c -0.266666,0 -0.40039,0.13177 -0.40039,0.398437 0,0.266667 0.133724,0.400391 0.40039,0.400391 0.266667,0 0.400391,-0.133724 0.400391,-0.400391 0,-0.266667 -0.133724,-0.398437 -0.400391,-0.398437 z m 55.835934,0 c -0.26666,0 -0.39843,0.13177 -0.39843,0.398437 0,0.266667 0.13177,0.400391 0.39843,0.400391 0.26667,0 0.40039,-0.133724 0.40039,-0.400391 0,-0.266667 -0.13372,-0.398437 -0.40039,-0.398437 z M 46.484375,16.09375 c -0.266667,0 -0.400391,0.133724 -0.400391,0.400391 0,0.266666 0.133724,0.40039 0.400391,0.40039 0.266667,0 0.400391,-0.133724 0.400391,-0.40039 0,-0.266667 -0.133724,-0.400391 -0.400391,-0.400391 z m 10.023437,0.08008 c -0.266665,0 -0.40039,0.133724 -0.40039,0.400391 0,0.266666 0.133725,0.40039 0.40039,0.40039 0.266667,0 0.400391,-0.133724 0.400391,-0.40039 0,-0.266667 -0.133724,-0.400391 -0.400391,-0.400391 z m 40.390626,0 c -0.266667,0 -0.400391,0.133724 -0.400391,0.400391 0,0.266666 0.133724,0.40039 0.400391,0.40039 0.266665,0 0.40039,-0.133724 0.40039,-0.40039 0,-0.266667 -0.133725,-0.400391 -0.40039,-0.400391 z m 15.240232,0 c -0.26666,0 -0.40039,0.133724 -0.40039,0.400391 0,0.266666 0.13373,0.40039 0.40039,0.40039 0.26667,0 0.39844,-0.133724 0.39844,-0.40039 0,-0.266667 -0.13177,-0.400391 -0.39844,-0.400391 z m -64.253904,0.480469 c -0.266667,0 -0.400391,0.133724 -0.400391,0.400391 0,0.266665 0.133724,0.40039 0.400391,0.40039 0.266666,0 0.40039,-0.133725 0.40039,-0.40039 0,-0.266667 -0.133724,-0.400391 -0.40039,-0.400391 z m 24.609375,0.320312 c -0.266667,0 -0.398438,0.133724 -0.398438,0.400391 0,0.266667 0.131771,0.400391 0.398438,0.400391 0.266666,0 0.40039,-0.133724 0.40039,-0.400391 0,-0.266667 -0.133724,-0.400391 -0.40039,-0.400391 z M 64.441406,17.375 c -0.266666,0 -0.40039,0.133724 -0.40039,0.400391 0,0.266666 0.133724,0.398437 0.40039,0.398437 0.266667,0 0.400391,-0.131771 0.400391,-0.398437 0,-0.266667 -0.133724,-0.400391 -0.400391,-0.400391 z m 55.835934,0 c -0.26666,0 -0.39843,0.133724 -0.39843,0.400391 0,0.266666 0.13177,0.398437 0.39843,0.398437 0.26667,0 0.40039,-0.131771 0.40039,-0.398437 0,-0.266667 -0.13372,-0.400391 -0.40039,-0.400391 z m -71.072262,0.160156 c -0.266667,0 -0.40039,0.131771 -0.40039,0.398438 0,0.266666 0.133723,0.40039 0.40039,0.40039 0.266667,0 0.400391,-0.133724 0.400391,-0.40039 0,-0.266667 -0.133724,-0.398438 -0.400391,-0.398438 z m 7.302734,0.240235 c -0.266665,0 -0.40039,0.13177 -0.40039,0.398437 0,0.266667 0.133725,0.400391 0.40039,0.400391 0.266667,0 0.400391,-0.133724 0.400391,-0.400391 0,-0.266667 -0.133724,-0.398437 -0.400391,-0.398437 z m 40.390626,0 c -0.266667,0 -0.400391,0.13177 -0.400391,0.398437 0,0.266667 0.133724,0.400391 0.400391,0.400391 0.266665,0 0.40039,-0.133724 0.40039,-0.400391 0,-0.266667 -0.133725,-0.398437 -0.40039,-0.398437 z m 15.240232,0 c -0.26666,0 -0.40039,0.13177 -0.40039,0.398437 0,0.266667 0.13373,0.400391 0.40039,0.400391 0.26667,0 0.39844,-0.133724 0.39844,-0.400391 0,-0.266667 -0.13177,-0.398437 -0.39844,-0.398437 z m -39.324217,0.679687 c -0.266667,0 -0.400391,0.131771 -0.400391,0.398438 0,0.266666 0.133724,0.40039 0.400391,0.40039 0.266667,0 0.400391,-0.133724 0.400391,-0.40039 0,-0.266667 -0.133724,-0.398438 -0.400391,-0.398438 z m -22.730469,0.398438 c -0.266666,0 -0.398437,0.133724 -0.398437,0.40039 0,0.266667 0.131771,0.400391 0.398437,0.400391 0.266667,0 0.400391,-0.133724 0.400391,-0.400391 0,-0.266666 -0.133724,-0.40039 -0.400391,-0.40039 z m 14.357422,0.121093 c -0.266666,0 -0.40039,0.133724 -0.40039,0.400391 0,0.266667 0.133724,0.400391 0.40039,0.400391 0.266667,0 0.400391,-0.133724 0.400391,-0.400391 0,-0.266667 -0.133724,-0.400391 -0.400391,-0.400391 z m 55.835934,0 c -0.26666,0 -0.39843,0.133724 -0.39843,0.400391 0,0.266667 0.13177,0.400391 0.39843,0.400391 0.26667,0 0.40039,-0.133724 0.40039,-0.400391 0,-0.266667 -0.13372,-0.400391 -0.40039,-0.400391 z M 56.507812,19.375 c -0.266665,0 -0.40039,0.133724 -0.40039,0.400391 0,0.266666 0.133725,0.398437 0.40039,0.398437 0.266667,0 0.400391,-0.131771 0.400391,-0.398437 0,-0.266667 -0.133724,-0.400391 -0.400391,-0.400391 z m 40.390626,0 c -0.266667,0 -0.400391,0.133724 -0.400391,0.400391 0,0.266666 0.133724,0.398437 0.400391,0.398437 0.266665,0 0.40039,-0.131771 0.40039,-0.398437 0,-0.266667 -0.133725,-0.400391 -0.40039,-0.400391 z m 15.240232,0 c -0.26666,0 -0.40039,0.133724 -0.40039,0.400391 0,0.266666 0.13373,0.398437 0.40039,0.398437 0.26667,0 0.39844,-0.131771 0.39844,-0.398437 0,-0.266667 -0.13177,-0.400391 -0.39844,-0.400391 z m -38.724608,0.558594 c -0.266665,0 -0.398437,0.133724 -0.398437,0.40039 0,0.266667 0.131772,0.400391 0.398437,0.400391 0.266667,0 0.400391,-0.133724 0.400391,-0.400391 0,-0.266666 -0.133724,-0.40039 -0.400391,-0.40039 z m -23.128906,0.601562 c -0.266666,0 -0.40039,0.131771 -0.40039,0.398438 0,0.266666 0.133724,0.40039 0.40039,0.40039 0.266667,0 0.400391,-0.133724 0.400391,-0.40039 0,-0.266667 -0.133724,-0.398438 -0.400391,-0.398438 z m 14.15625,0.03906 c -0.266666,0 -0.40039,0.133724 -0.40039,0.40039 0,0.266667 0.133724,0.400391 0.40039,0.400391 0.266667,0 0.400391,-0.133724 0.400391,-0.400391 0,-0.266666 -0.133724,-0.40039 -0.400391,-0.40039 z m 55.835934,0 c -0.26666,0 -0.39843,0.133724 -0.39843,0.40039 0,0.266667 0.13177,0.400391 0.39843,0.400391 0.26667,0 0.40039,-0.133724 0.40039,-0.400391 0,-0.266666 -0.13372,-0.40039 -0.40039,-0.40039 z m -63.769528,0.320312 c -0.266665,0 -0.40039,0.133724 -0.40039,0.400391 0,0.266667 0.133725,0.40039 0.40039,0.40039 0.266667,0 0.400391,-0.133723 0.400391,-0.40039 0,-0.266667 -0.133724,-0.400391 -0.400391,-0.400391 z m 40.390626,0 c -0.266667,0 -0.400391,0.133724 -0.400391,0.400391 0,0.266667 0.133724,0.40039 0.400391,0.40039 0.266665,0 0.40039,-0.133723 0.40039,-0.40039 0,-0.266667 -0.133725,-0.400391 -0.40039,-0.400391 z m 15.240232,0 c -0.26666,0 -0.40039,0.133724 -0.40039,0.400391 0,0.266667 0.13373,0.40039 0.40039,0.40039 0.26667,0 0.39844,-0.133723 0.39844,-0.40039 0,-0.266667 -0.13177,-0.400391 -0.39844,-0.400391 z m -37.882811,0.439453 c -0.266666,0 -0.40039,0.133724 -0.40039,0.400391 0,0.266667 0.133724,0.400391 0.40039,0.400391 0.266667,0 0.398438,-0.133724 0.398438,-0.400391 0,-0.266667 -0.131771,-0.400391 -0.398438,-0.400391 z m 15,0.201172 c -0.266666,0 -0.40039,0.131771 -0.40039,0.398438 0,0.266666 0.133724,0.40039 0.40039,0.40039 0.266667,0 0.398438,-0.133724 0.398438,-0.40039 0,-0.266667 -0.131771,-0.398438 -0.398438,-0.398438 z m -39.291015,0.59961 c -0.266667,0 -0.400391,0.133724 -0.400391,0.40039 0,0.266667 0.133724,0.398438 0.400391,0.398438 0.266666,0 0.40039,-0.131771 0.40039,-0.398438 0,-0.266666 -0.133724,-0.40039 -0.40039,-0.40039 z m 14.476562,0.03906 c -0.266666,0 -0.40039,0.133724 -0.40039,0.400391 0,0.266666 0.133724,0.40039 0.40039,0.40039 0.266667,0 0.400391,-0.133724 0.400391,-0.40039 0,-0.266667 -0.133724,-0.400391 -0.400391,-0.400391 z m 55.835934,0 c -0.26666,0 -0.39843,0.133724 -0.39843,0.400391 0,0.266666 0.13177,0.40039 0.39843,0.40039 0.26667,0 0.40039,-0.133724 0.40039,-0.40039 0,-0.266667 -0.13372,-0.400391 -0.40039,-0.400391 z m -63.769528,0.400391 c -0.266665,0 -0.40039,0.133724 -0.40039,0.40039 0,0.266667 0.133725,0.400391 0.40039,0.400391 0.266667,0 0.400391,-0.133724 0.400391,-0.400391 0,-0.266666 -0.133724,-0.40039 -0.400391,-0.40039 z m 40.390626,0 c -0.266667,0 -0.400391,0.133724 -0.400391,0.40039 0,0.266667 0.133724,0.400391 0.400391,0.400391 0.266665,0 0.40039,-0.133724 0.40039,-0.400391 0,-0.266666 -0.133725,-0.40039 -0.40039,-0.40039 z m 15.240232,0 c -0.26666,0 -0.40039,0.133724 -0.40039,0.40039 0,0.266667 0.13373,0.400391 0.40039,0.400391 0.26667,0 0.39844,-0.133724 0.39844,-0.400391 0,-0.266666 -0.13177,-0.40039 -0.39844,-0.40039 z m -76.453123,0.121093 c -0.266667,0 -0.400391,0.131771 -0.400391,0.398438 0,0.266667 0.133724,0.400391 0.400391,0.400391 0.266667,0 0.398437,-0.133724 0.398437,-0.400391 0,-0.266667 -0.13177,-0.398438 -0.398437,-0.398438 z m 39.689453,0 c -0.266667,0 -0.400391,0.131771 -0.400391,0.398438 0,0.266667 0.133724,0.400391 0.400391,0.400391 0.266667,0 0.400391,-0.133724 0.400391,-0.400391 0,-0.266667 -0.133724,-0.398438 -0.400391,-0.398438 z m 12.759766,0.199219 c -0.266667,0 -0.400391,0.133724 -0.400391,0.400391 0,0.266667 0.133724,0.400391 0.400391,0.40039 0.266666,10e-7 0.40039,-0.133723 0.40039,-0.40039 0,-0.266667 -0.133724,-0.400391 -0.40039,-0.400391 z m -39.089844,0.560547 c -0.266667,0 -0.400391,0.131771 -0.400391,0.398438 0,0.266666 0.133724,0.40039 0.400391,0.40039 0.266667,0 0.400391,-0.133724 0.40039,-0.40039 0,-0.266667 -0.133723,-0.398438 -0.40039,-0.398438 z m -12.199219,0.240234 c -0.266667,0 -0.400391,0.131771 -0.400391,0.398438 0,0.266667 0.133724,0.400391 0.400391,0.400391 0.266667,0 0.398438,-0.133724 0.398438,-0.400391 0,-0.266667 -0.131771,-0.398437 -0.398438,-0.398438 z m 27.835938,0 c -0.266667,0 -0.400391,0.131771 -0.400391,0.398438 0,0.266667 0.133724,0.400391 0.400391,0.400391 0.266666,0 0.40039,-0.133724 0.40039,-0.400391 0,-0.266667 -0.133724,-0.398437 -0.40039,-0.398438 z m 55.835939,0 c -0.26667,0 -0.40039,0.131771 -0.40039,0.398438 0,0.266667 0.13372,0.400391 0.40039,0.400391 0.26666,0 0.40039,-0.133724 0.40039,-0.400391 0,-0.266667 -0.13373,-0.398437 -0.40039,-0.398438 z m -43.863283,0.119141 c -0.266667,0 -0.398438,0.133724 -0.398438,0.400391 0,0.266666 0.131771,0.40039 0.398438,0.40039 0.266667,0 0.40039,-0.133724 0.400391,-0.40039 -10e-7,-0.266667 -0.133724,-0.400391 -0.400391,-0.400391 z m -20.146485,0.199219 c -0.266665,0 -0.40039,0.133725 -0.40039,0.40039 0,0.266667 0.133725,0.400391 0.40039,0.400391 0.266667,0 0.400391,-0.133724 0.400391,-0.400391 0,-0.266665 -0.133724,-0.40039 -0.400391,-0.40039 z m 30.347657,0 c -0.266667,0 -0.400391,0.133725 -0.400391,0.40039 0,0.266667 0.133724,0.400391 0.400391,0.400391 0.266666,0 0.40039,-0.133724 0.40039,-0.400391 0,-0.266665 -0.133724,-0.40039 -0.40039,-0.40039 z m 10.042969,0 c -0.266667,0 -0.400391,0.133725 -0.400391,0.40039 0,0.266667 0.133724,0.400391 0.400391,0.400391 0.266665,0 0.40039,-0.133724 0.40039,-0.400391 0,-0.266665 -0.133725,-0.40039 -0.40039,-0.40039 z m 15.240232,0 c -0.26666,0 -0.40039,0.133725 -0.40039,0.40039 0,0.266667 0.13373,0.400391 0.40039,0.400391 0.26667,0 0.39844,-0.133724 0.39844,-0.400391 0,-0.266665 -0.13177,-0.40039 -0.39844,-0.40039 z m 14.74024,0.441406 c -0.26667,0 -0.40039,0.131771 -0.40039,0.398438 0,0.266666 0.13372,0.40039 0.40039,0.40039 0.26666,0 0.39843,-0.133724 0.39843,-0.40039 0,-0.266667 -0.13177,-0.398438 -0.39843,-0.398438 z m -79.074222,0.03906 c -0.266667,0 -0.400391,0.133724 -0.400391,0.40039 0,0.266667 0.133724,0.400391 0.400391,0.400391 0.266665,0 0.40039,-0.133724 0.40039,-0.400391 0,-0.266666 -0.133725,-0.40039 -0.40039,-0.40039 z m -9.59961,0.04102 c -0.266667,0 -0.40039,0.131771 -0.40039,0.398438 0,0.266666 0.133723,0.40039 0.40039,0.40039 0.266667,0 0.400391,-0.133724 0.400391,-0.40039 0,-0.266667 -0.133724,-0.398438 -0.400391,-0.398438 z m 40.009766,0.199219 c -0.266667,0 -0.400391,0.133724 -0.400391,0.400391 0,0.266666 0.133724,0.40039 0.400391,0.40039 0.266666,0 0.40039,-0.133724 0.40039,-0.40039 0,-0.266667 -0.133724,-0.400391 -0.40039,-0.400391 z M 65.5625,24.853516 c -0.266667,0 -0.400391,0.133724 -0.400391,0.40039 0,0.266667 0.133724,0.400391 0.400391,0.400391 0.266667,0 0.398437,-0.133724 0.398438,-0.400391 -10e-7,-0.266666 -0.131771,-0.40039 -0.398438,-0.40039 z m 19.771484,0 c -0.266666,0 -0.398437,0.133724 -0.398437,0.40039 0,0.266667 0.131771,0.400391 0.398437,0.400391 0.266667,0 0.400391,-0.133724 0.400391,-0.400391 0,-0.266666 -0.133724,-0.40039 -0.400391,-0.40039 z m 36.064456,0 c -0.26667,0 -0.40039,0.133724 -0.40039,0.40039 0,0.266667 0.13372,0.400391 0.40039,0.400391 0.26666,0 0.40039,-0.133724 0.40039,-0.400391 0,-0.266666 -0.13373,-0.40039 -0.40039,-0.40039 z m -51.716799,0.160156 c -0.266667,0 -0.400391,0.133725 -0.400391,0.40039 0,0.266667 0.133724,0.400391 0.400391,0.400391 0.266666,0 0.40039,-0.133724 0.40039,-0.400391 0,-0.266665 -0.133724,-0.40039 -0.40039,-0.40039 z m 55.916019,0 c -0.26667,0 -0.40039,0.133725 -0.40039,0.40039 0,0.266667 0.13372,0.400391 0.40039,0.400391 0.26666,0 0.40039,-0.133724 0.40039,-0.400391 0,-0.266665 -0.13373,-0.40039 -0.40039,-0.40039 z m -79.152348,0.08008 c -0.266665,0 -0.40039,0.133724 -0.40039,0.400391 0,0.266666 0.133725,0.40039 0.40039,0.40039 0.266667,0 0.400391,-0.133724 0.400391,-0.40039 0,-0.266667 -0.133724,-0.400391 -0.400391,-0.400391 z m -6.759765,0.04102 c -0.266667,0 -0.400391,0.133724 -0.400391,0.40039 0,0.266667 0.133724,0.398438 0.400391,0.398438 0.266667,0 0.398437,-0.131771 0.398437,-0.398438 0,-0.266666 -0.13177,-0.40039 -0.398437,-0.40039 z m 40.089844,0.199218 c -0.266667,0 -0.400391,0.133724 -0.400391,0.400391 0,0.266667 0.133724,0.400391 0.400391,0.400391 0.266666,0 0.40039,-0.133724 0.40039,-0.400391 0,-0.266667 -0.133724,-0.400391 -0.40039,-0.400391 z M 68.322266,25.375 c -0.266667,0 -0.400391,0.133724 -0.400391,0.400391 0,0.266666 0.133724,0.398437 0.400391,0.398437 0.266666,0 0.40039,-0.131771 0.40039,-0.398437 0,-0.266667 -0.133724,-0.400391 -0.40039,-0.400391 z m 54.435544,0 c -0.26666,0 -0.40039,0.133724 -0.40039,0.400391 0,0.266666 0.13373,0.398437 0.40039,0.398437 0.26667,0 0.40039,-0.131771 0.40039,-0.398437 0,-0.266667 -0.13372,-0.400391 -0.40039,-0.400391 z m 1.43946,0 c -0.26667,0 -0.39844,0.133724 -0.39844,0.400391 0,0.266666 0.13177,0.398437 0.39844,0.398437 0.26666,0 0.40039,-0.131771 0.40039,-0.398437 0,-0.266667 -0.13373,-0.400391 -0.40039,-0.400391 z m -67.689458,0.03906 c -0.266665,10e-7 -0.40039,0.133724 -0.40039,0.400391 0,0.266667 0.133725,0.400391 0.40039,0.400391 0.266667,0 0.400391,-0.133724 0.400391,-0.400391 0,-0.266667 -0.133724,-0.40039 -0.400391,-0.400391 z m 27.066407,0 c -0.266667,10e-7 -0.398438,0.133724 -0.398438,0.400391 0,0.266667 0.131771,0.400391 0.398438,0.400391 0.266666,0 0.40039,-0.133724 0.40039,-0.400391 0,-0.266667 -0.133724,-0.40039 -0.40039,-0.400391 z m 13.324219,0 c -0.266667,10e-7 -0.400391,0.133724 -0.400391,0.400391 0,0.266667 0.133724,0.400391 0.400391,0.400391 0.266665,0 0.40039,-0.133724 0.40039,-0.400391 0,-0.266667 -0.133725,-0.40039 -0.40039,-0.400391 z m 15.240232,0 c -0.26666,10e-7 -0.40039,0.133724 -0.40039,0.400391 0,0.266667 0.13373,0.400391 0.40039,0.400391 0.26667,0 0.39844,-0.133724 0.39844,-0.400391 0,-0.266667 -0.13177,-0.40039 -0.39844,-0.400391 z m -45.296873,0.04102 c -0.266667,0 -0.400391,0.131771 -0.400391,0.398438 0,0.266666 0.133724,0.40039 0.400391,0.40039 0.266667,0 0.40039,-0.133724 0.400391,-0.40039 0,-0.266667 -0.133724,-0.398438 -0.400391,-0.398438 z m -25.476563,0.08008 c -0.266666,0 -0.40039,0.131771 -0.40039,0.398438 0,0.266666 0.133724,0.40039 0.40039,0.40039 0.266667,0 0.400391,-0.133724 0.400391,-0.40039 0,-0.266667 -0.133724,-0.398438 -0.400391,-0.398438 z m 3.519532,0 c -0.266667,0 -0.400391,0.131771 -0.400391,0.398438 0,0.266666 0.133724,0.40039 0.400391,0.40039 0.266666,0 0.40039,-0.133724 0.40039,-0.40039 0,-0.266667 -0.133724,-0.398438 -0.40039,-0.398438 z m 36.810546,0.08008 c -0.266665,0 -0.40039,0.131771 -0.40039,0.398438 0,0.266667 0.133725,0.40039 0.40039,0.40039 0.266667,0 0.400391,-0.133723 0.400391,-0.40039 0,-0.266667 -0.133724,-0.398438 -0.400391,-0.398438 z m -38.53125,0.03906 c -0.266665,0 -0.398437,0.133724 -0.398437,0.400391 0,0.266665 0.131772,0.40039 0.398437,0.40039 0.266667,0 0.400391,-0.133725 0.400391,-0.40039 0,-0.266667 -0.133724,-0.400391 -0.400391,-0.400391 z" />
    <path
       id="text16"
       transform="matrix(0.26458333,0,0,0.26458333,0,284.3)"
       style="font-style:normal;font-variant:normal;font-weight:normal;font-stretch:condensed;font-size:10.58333302px;line-height:1.25;font-family:Bahnschrift;-inkscape-font-specification:'Bahnschrift, Condensed';font-variant-ligatures:normal;font-variant-caps:normal;font-variant-numeric:normal;font-feature-settings:normal;text-align:center;letter-spacing:0px;word-spacing:0px;writing-mode:lr-tb;text-anchor:middle;fill:#e3e2db;fill-opacity:1;stroke:none;stroke-width:0.99999994"
       d="m 50.089844,18.978516 c -0.266667,0 -0.400391,0.133724 -0.400391,0.40039 0,0.266667 0.133724,0.400391 0.400391,0.400391 0.266666,0 0.398437,-0.133724 0.398437,-0.400391 0,-0.266666 -0.131771,-0.40039 -0.398437,-0.40039 z m 0,1.480468 c -0.266667,0 -0.400391,0.133724 -0.400391,0.400391 0,0.266667 0.133724,0.398437 0.400391,0.398437 0.266666,0 0.398437,-0.13177 0.398437,-0.398437 0,-0.266667 -0.131771,-0.400391 -0.398437,-0.400391 z m 0,1.519532 c -0.266667,0 -0.400391,0.133724 -0.400391,0.40039 0,0.266667 0.133724,0.400391 0.400391,0.400391 0.266666,0 0.398437,-0.133724 0.398437,-0.400391 0,-0.266666 -0.131771,-0.40039 -0.398437,-0.40039 z m 0,1.439453 c -0.266667,0 -0.400391,0.133724 -0.400391,0.40039 0,0.266667 0.133724,0.400391 0.400391,0.400391 0.266666,0 0.398437,-0.133724 0.398437,-0.400391 0,-0.266666 -0.131771,-0.40039 -0.398437,-0.40039 z m 0,1.601562 c -0.266667,0 -0.400391,0.131771 -0.400391,0.398438 0,0.266666 0.133724,0.40039 0.400391,0.40039 0.266666,0 0.398437,-0.133724 0.398437,-0.40039 0,-0.266667 -0.131771,-0.398438 -0.398437,-0.398438 z m 0,1.558594 c -0.266667,0 -0.400391,0.133724 -0.400391,0.400391 0,0.266666 0.133724,0.40039 0.400391,0.40039 0.266666,0 0.398437,-0.133724 0.398437,-0.40039 0,-0.266667 -0.131771,-0.400391 -0.398437,-0.400391 z M 118.375,27.177734 c -0.26667,0 -0.40039,0.133724 -0.40039,0.400391 0,0.266667 0.13372,0.400391 0.40039,0.400391 0.26667,0 0.39844,-0.133724 0.39844,-0.400391 0,-0.266667 -0.13177,-0.400391 -0.39844,-0.400391 z m -20.564453,0.04102 c -0.266667,0 -0.400391,0.133724 -0.400391,0.400391 0,0.266666 0.133724,0.40039 0.400391,0.40039 0.266667,0 0.400391,-0.133724 0.400391,-0.40039 0,-0.266667 -0.133724,-0.400391 -0.400391,-0.400391 z m 22.244143,0 c -0.26667,0 -0.40039,0.133724 -0.40039,0.400391 0,0.266666 0.13372,0.40039 0.40039,0.40039 0.26666,0 0.40039,-0.133724 0.40039,-0.40039 0,-0.266667 -0.13373,-0.400391 -0.40039,-0.400391 z m -43.177737,0.03906 c -0.266667,0 -0.400391,0.133724 -0.400391,0.400391 0,0.266667 0.133724,0.400391 0.400391,0.400391 0.266667,0 0.400391,-0.133724 0.400391,-0.400391 0,-0.266667 -0.133724,-0.400391 -0.400391,-0.400391 z m -17.535156,0.121094 c -0.266667,0 -0.400391,0.133724 -0.400391,0.400391 0,0.266667 0.133724,0.398437 0.400391,0.398437 0.266667,0 0.400391,-0.13177 0.400391,-0.398437 -10e-7,-0.266667 -0.133724,-0.400391 -0.400391,-0.400391 z m 7.734375,0 c -0.266667,0 -0.400391,0.133724 -0.400391,0.400391 0,0.266667 0.133724,0.398437 0.400391,0.398437 0.266667,0 0.40039,-0.13177 0.40039,-0.398437 0,-0.266667 -0.133723,-0.400391 -0.40039,-0.400391 z m 8,0.03906 c -0.266667,0 -0.400391,0.133724 -0.400391,0.40039 0,0.266667 0.133724,0.400391 0.400391,0.400391 0.266667,0 0.40039,-0.133724 0.40039,-0.400391 0,-0.266666 -0.133723,-0.40039 -0.40039,-0.40039 z m 41.617188,0.04102 c -0.26667,0 -0.39844,0.133724 -0.39844,0.400391 0,0.266667 0.13177,0.398437 0.39844,0.398437 0.26667,10e-7 0.40039,-0.13177 0.40039,-0.398437 0,-0.266667 -0.13372,-0.400391 -0.40039,-0.400391 z m -20.761719,0.03906 c -0.266667,0 -0.400391,0.133724 -0.400391,0.400391 0,0.266666 0.133724,0.40039 0.400391,0.40039 0.266666,0 0.398437,-0.133724 0.398437,-0.40039 0,-0.266667 -0.131771,-0.400391 -0.398437,-0.400391 z m 3.71875,0 c -0.266667,0 -0.398438,0.133724 -0.398438,0.400391 0,0.266666 0.131771,0.40039 0.398438,0.40039 0.266666,0 0.400389,-0.133724 0.400389,-0.40039 0,-0.266667 -0.133723,-0.400391 -0.400389,-0.400391 z m 21.923829,0 c -0.26667,0 -0.40039,0.133724 -0.40039,0.400391 0,0.266666 0.13372,0.40039 0.40039,0.40039 0.26667,0 0.40039,-0.133724 0.40039,-0.40039 0,-0.266667 -0.13372,-0.400391 -0.40039,-0.400391 z m -42.978517,0.121094 c -0.266667,0 -0.398437,0.133724 -0.398437,0.40039 0,0.266667 0.13177,0.398438 0.398437,0.398438 0.266667,0 0.400391,-0.131771 0.400391,-0.398438 0,-0.266666 -0.133724,-0.40039 -0.400391,-0.40039 z m -5.238281,0.40039 c -0.266667,0 -0.400391,0.131771 -0.400391,0.398438 0,0.266666 0.133724,0.40039 0.400391,0.40039 0.266667,0 0.398437,-0.133724 0.398437,-0.40039 0,-0.266667 -0.13177,-0.398438 -0.398437,-0.398438 z m 20.972656,0 c -0.266667,0 -0.398437,0.131771 -0.398437,0.398438 0,0.266666 0.13177,0.40039 0.398437,0.40039 0.266667,0 0.400391,-0.133724 0.400391,-0.40039 0,-0.266667 -0.133724,-0.398438 -0.400391,-0.398438 z m 6.921872,0 c -0.26666,0 -0.40039,0.131771 -0.40039,0.398438 0,0.266666 0.13373,0.40039 0.40039,0.40039 0.26667,0 0.39844,-0.133724 0.39844,-0.40039 0,-0.266667 -0.13177,-0.398438 -0.39844,-0.398438 z m 13.8418,0 c -0.26667,0 -0.40039,0.131771 -0.40039,0.398438 0,0.266666 0.13372,0.40039 0.40039,0.40039 0.26667,0 0.40039,-0.133724 0.40039,-0.40039 0,-0.266667 -0.13372,-0.398438 -0.40039,-0.398438 z m 7.83984,0 c -0.26666,0 -0.40039,0.131771 -0.40039,0.398438 0,0.266666 0.13373,0.40039 0.40039,0.40039 0.26667,0 0.40039,-0.133724 0.40039,-0.40039 0,-0.266667 -0.13372,-0.398438 -0.40039,-0.398438 z m -72.843746,0.279297 c -0.266667,0 -0.400391,0.133724 -0.400391,0.400391 0,0.266666 0.133724,0.40039 0.400391,0.40039 0.266666,0 0.398437,-0.133724 0.398437,-0.40039 0,-0.266667 -0.131771,-0.400391 -0.398437,-0.400391 z m 30.066406,0.240234 c -0.266667,0 -0.400391,0.133724 -0.400391,0.400391 0,0.266667 0.133724,0.398438 0.400391,0.398438 0.266667,0 0.400391,-0.131771 0.400391,-0.398438 0,-0.266667 -0.133724,-0.400391 -0.400391,-0.400391 z m 44.09766,0.119141 c -0.26667,0 -0.40039,0.133724 -0.40039,0.400391 0,0.266666 0.13372,0.40039 0.40039,0.40039 0.26666,0 0.40039,-0.133724 0.40039,-0.40039 0,-0.266667 -0.13373,-0.400391 -0.40039,-0.400391 z m -52.457035,0.08008 c -0.266667,0 -0.400391,0.133724 -0.400391,0.400391 0,0.266667 0.133724,0.40039 0.400391,0.40039 0.266667,10e-7 0.400391,-0.133723 0.400391,-0.40039 0,-0.266667 -0.133724,-0.400391 -0.400391,-0.400391 z m -12.455078,0.121094 c -0.266667,0 -0.400391,0.131771 -0.400391,0.398437 0,0.266667 0.133724,0.400391 0.400391,0.400391 0.266667,0 0.400391,-0.133724 0.400391,-0.400391 -10e-7,-0.266666 -0.133724,-0.398437 -0.400391,-0.398437 z m 7.734375,0 c -0.266667,0 -0.400391,0.131771 -0.400391,0.398437 0,0.266667 0.133724,0.400391 0.400391,0.400391 0.266667,0 0.40039,-0.133724 0.40039,-0.400391 0,-0.266666 -0.133723,-0.398437 -0.40039,-0.398437 z m 46.697268,0 c -0.26667,0 -0.39844,0.131771 -0.39844,0.398437 0,0.266667 0.13177,0.400391 0.39844,0.400391 0.26666,0 0.40039,-0.133724 0.40039,-0.400391 0,-0.266666 -0.13373,-0.398437 -0.40039,-0.398437 z m -21.001956,0.08008 c -0.266666,0 -0.40039,0.131771 -0.40039,0.398438 0,0.266666 0.133724,0.40039 0.40039,0.40039 0.266667,0 0.400391,-0.133724 0.400391,-0.40039 0,-0.266667 -0.133724,-0.398438 -0.400391,-0.398438 z m 10.039066,0 c -0.26667,0 -0.40039,0.131771 -0.40039,0.398438 0,0.266666 0.13372,0.40039 0.40039,0.40039 0.26666,0 0.40039,-0.133724 0.40039,-0.40039 0,-0.266667 -0.13373,-0.398438 -0.40039,-0.398438 z m 22.48437,0.679688 c -0.26666,0 -0.40039,0.133724 -0.40039,0.40039 0,0.266667 0.13373,0.398438 0.40039,0.398438 0.26667,0 0.39844,-0.131771 0.39844,-0.398438 0,-0.266666 -0.13177,-0.40039 -0.39844,-0.40039 z m -44.257811,0.03906 c -0.266666,0 -0.40039,0.133724 -0.40039,0.400391 0,0.266666 0.133724,0.40039 0.40039,0.40039 0.266667,0 0.400391,-0.133724 0.400391,-0.40039 0,-0.266667 -0.133724,-0.400391 -0.400391,-0.400391 z M 70.4375,29.779297 c -0.266667,0 -0.400391,0.131771 -0.400391,0.398437 0,0.266667 0.133724,0.400391 0.400391,0.400391 0.266667,0 0.398438,-0.133724 0.398438,-0.400391 -10e-7,-0.266666 -0.131771,-0.398437 -0.398438,-0.398437 z m -20.347656,0.119141 c -0.266667,-10e-7 -0.400391,0.133723 -0.400391,0.40039 0,0.266667 0.133724,0.400391 0.400391,0.400391 0.266666,0 0.398437,-0.133724 0.398437,-0.400391 0,-0.266667 -0.131771,-0.40039 -0.398437,-0.40039 z m 41.40039,0.160156 c -0.266666,0 -0.398437,0.133724 -0.398437,0.40039 0,0.266667 0.131771,0.400391 0.398437,0.400391 0.266667,0 0.400391,-0.133724 0.400391,-0.400391 0,-0.266666 -0.133724,-0.40039 -0.400391,-0.40039 z m 12.601566,0 c -0.26667,0 -0.40039,0.133724 -0.40039,0.40039 0,0.266667 0.13372,0.400391 0.40039,0.400391 0.26666,0 0.39843,-0.133724 0.39843,-0.400391 0,-0.266666 -0.13177,-0.40039 -0.39843,-0.40039 z m 8.72265,0.08008 c -0.26666,0 -0.40039,0.133724 -0.40039,0.40039 0,0.266667 0.13373,0.400391 0.40039,0.400391 0.26667,0 0.40039,-0.133724 0.40039,-0.400391 0,-0.266666 -0.13372,-0.40039 -0.40039,-0.40039 z m -53.472653,0.320312 c -0.266667,0 -0.400391,0.133724 -0.400391,0.400391 0,0.266667 0.133724,0.398437 0.400391,0.398437 0.266667,0 0.400391,-0.13177 0.400391,-0.398437 -10e-7,-0.266667 -0.133724,-0.400391 -0.400391,-0.400391 z m 7.734375,0 c -0.266667,0 -0.400391,0.133724 -0.400391,0.400391 0,0.266667 0.133724,0.398437 0.400391,0.398437 0.266667,0 0.40039,-0.13177 0.40039,-0.398437 0,-0.266667 -0.133723,-0.400391 -0.40039,-0.400391 z m 14.519531,0.560547 c -0.266667,0 -0.398437,0.131771 -0.398437,0.398438 0,0.266666 0.13177,0.40039 0.398437,0.40039 0.266667,0 0.400391,-0.133724 0.400391,-0.40039 0,-0.266667 -0.133724,-0.398438 -0.400391,-0.398438 z m -12.279297,0.03906 c -0.266666,0 -0.40039,0.133724 -0.40039,0.40039 0,0.266667 0.133724,0.400391 0.40039,0.400391 0.266667,0 0.400391,-0.133724 0.400391,-0.400391 0,-0.266666 -0.133724,-0.40039 -0.400391,-0.40039 z m 21.054688,0.359375 c -0.266667,0 -0.400391,0.133724 -0.400391,0.40039 0,0.266667 0.133724,0.400391 0.400391,0.400391 0.266666,0 0.40039,-0.133724 0.40039,-0.400391 0,-0.266666 -0.133724,-0.40039 -0.40039,-0.40039 z m 14.839846,0 c -0.26667,0 -0.40039,0.133724 -0.40039,0.40039 0,0.266667 0.13372,0.400391 0.40039,0.400391 0.26666,0 0.40039,-0.133724 0.40039,-0.400391 0,-0.266666 -0.13373,-0.40039 -0.40039,-0.40039 z m -55.121096,0.08008 c -0.266667,0 -0.400391,0.133724 -0.400391,0.400391 0,0.266666 0.133724,0.40039 0.400391,0.40039 0.266666,0 0.398437,-0.133724 0.398437,-0.40039 0,-0.266667 -0.131771,-0.400391 -0.398437,-0.400391 z m 62.164066,0.160156 c -0.26667,0 -0.40039,0.133724 -0.40039,0.400391 0,0.266666 0.13372,0.40039 0.40039,0.40039 0.26666,0 0.40039,-0.133724 0.40039,-0.40039 0,-0.266667 -0.13373,-0.400391 -0.40039,-0.400391 z m -52.912113,0.240235 c -0.266667,0 -0.400391,0.133723 -0.400391,0.40039 0,0.266667 0.133724,0.400391 0.400391,0.400391 0.266667,0 0.400391,-0.133724 0.400391,-0.400391 -10e-7,-0.266667 -0.133724,-0.40039 -0.400391,-0.40039 z m 7.734375,0 c -0.266667,0 -0.400391,0.133723 -0.400391,0.40039 0,0.266667 0.133724,0.400391 0.400391,0.400391 0.266667,0 0.40039,-0.133724 0.40039,-0.400391 0,-0.266667 -0.133723,-0.40039 -0.40039,-0.40039 z m 14.839844,0.519531 c -0.266667,0 -0.398438,0.133724 -0.398438,0.40039 0,0.266667 0.131771,0.400391 0.398438,0.400391 0.266666,0 0.40039,-0.133724 0.40039,-0.400391 0,-0.266666 -0.133724,-0.40039 -0.40039,-0.40039 z m -13.59961,0.04102 c -0.266666,0 -0.40039,0.133724 -0.40039,0.400391 0,0.266667 0.133724,0.398437 0.40039,0.398437 0.266667,0 0.400391,-0.13177 0.400391,-0.398437 0,-0.266667 -0.133724,-0.400391 -0.400391,-0.400391 z m 21.214844,0.359375 c -0.266667,0 -0.400391,0.133724 -0.400391,0.400391 0,0.266667 0.133724,0.400391 0.400391,0.400391 0.266667,0 0.400391,-0.133724 0.400391,-0.400391 0,-0.266667 -0.133724,-0.400391 -0.400391,-0.400391 z m 16.51953,0 c -0.26667,0 -0.40039,0.133724 -0.40039,0.400391 0,0.266667 0.13372,0.400391 0.40039,0.400391 0.26667,0 0.40039,-0.133724 0.40039,-0.400391 0,-0.266667 -0.13372,-0.400391 -0.40039,-0.400391 z m -55.960936,0.160157 c -0.266667,0 -0.400391,0.133724 -0.400391,0.40039 0,0.266667 0.133724,0.400391 0.400391,0.400391 0.266666,0 0.398437,-0.133724 0.398437,-0.400391 0,-0.266666 -0.131771,-0.40039 -0.398437,-0.40039 z m 62.124996,0.199218 c -0.26666,0 -0.40039,0.133724 -0.40039,0.400391 0,0.266667 0.13373,0.400391 0.40039,0.400391 0.26667,0 0.39844,-0.133724 0.39844,-0.400391 0,-0.266667 -0.13177,-0.400391 -0.39844,-0.400391 z m -52.873043,0.201172 c -0.266667,0 -0.400391,0.133724 -0.400391,0.400391 0,0.266667 0.133724,0.398437 0.400391,0.398437 0.266667,0 0.400391,-0.13177 0.400391,-0.398437 -10e-7,-0.266667 -0.133724,-0.400391 -0.400391,-0.400391 z m 7.734375,0 c -0.266667,0 -0.400391,0.133724 -0.400391,0.400391 0,0.266667 0.133724,0.398437 0.400391,0.398437 0.266667,0 0.40039,-0.13177 0.40039,-0.398437 0,-0.266667 -0.133723,-0.400391 -0.40039,-0.400391 z m 15.041016,0.519532 c -0.266667,0 -0.400391,0.133723 -0.400391,0.40039 0,0.266667 0.133724,0.400391 0.400391,0.400391 0.266666,0 0.40039,-0.133724 0.40039,-0.400391 0,-0.266667 -0.133724,-0.40039 -0.40039,-0.40039 z m 6.814453,0.40039 c -0.266667,0 -0.400391,0.133724 -0.400391,0.400391 0,0.266666 0.133724,0.40039 0.400391,0.40039 0.266666,0 0.398437,-0.133724 0.398437,-0.40039 0,-0.266667 -0.131771,-0.400391 -0.398437,-0.400391 z m 17.718749,0 c -0.26667,0 -0.39844,0.133724 -0.39844,0.400391 0,0.266666 0.13177,0.40039 0.39844,0.40039 0.26667,0 0.40039,-0.133724 0.40039,-0.40039 0,-0.266667 -0.13372,-0.400391 -0.40039,-0.400391 z m 5.96289,0.199219 c -0.26667,0 -0.39844,0.133724 -0.39844,0.400391 0,0.266666 0.13177,0.40039 0.39844,0.40039 0.26667,0 0.40039,-0.133724 0.40039,-0.40039 0,-0.266667 -0.13372,-0.400391 -0.40039,-0.400391 z m -62.523436,0.08008 c -0.266667,0 -0.400391,0.133724 -0.400391,0.400391 0,0.266666 0.133724,0.40039 0.400391,0.40039 0.266666,0 0.398437,-0.133724 0.398437,-0.40039 0,-0.266667 -0.131771,-0.400391 -0.398437,-0.400391 z m 9.251953,0.320313 c -0.266667,0 -0.400391,0.133723 -0.400391,0.40039 0,0.266667 0.133724,0.400391 0.400391,0.400391 0.266667,0 0.400391,-0.133724 0.400391,-0.400391 -10e-7,-0.266667 -0.133724,-0.40039 -0.400391,-0.40039 z m 7.734375,0 c -0.266667,0 -0.400391,0.133723 -0.400391,0.40039 0,0.266667 0.133724,0.400391 0.400391,0.400391 0.266667,0 0.40039,-0.133724 0.40039,-0.400391 0,-0.266667 -0.133723,-0.40039 -0.40039,-0.40039 z m 15.240234,0.519531 c -0.266666,0 -0.40039,0.133724 -0.40039,0.40039 0,0.266667 0.133724,0.400391 0.40039,0.400391 0.266667,0 0.400391,-0.133724 0.400391,-0.400391 0,-0.266666 -0.133724,-0.40039 -0.400391,-0.40039 z m 31.257814,0.08008 c -0.26667,0 -0.40039,0.133724 -0.40039,0.400391 0,0.266666 0.13372,0.40039 0.40039,0.40039 0.26667,0 0.40039,-0.133724 0.40039,-0.40039 0,-0.266667 -0.13372,-0.400391 -0.40039,-0.400391 z m -24.962892,0.28125 c -0.266667,0 -0.40039,0.131771 -0.40039,0.398437 -10e-7,0.266667 0.133723,0.400391 0.40039,0.400391 0.266667,0 0.400391,-0.133724 0.400391,-0.400391 0,-0.266666 -0.133724,-0.398437 -0.400391,-0.398437 z m 18.320312,0.03906 c -0.26667,0 -0.40039,0.133724 -0.40039,0.400391 0,0.266667 0.13372,0.400391 0.40039,0.400391 0.26667,0 0.39844,-0.133724 0.39844,-0.400391 0,-0.266667 -0.13177,-0.400391 -0.39844,-0.400391 z m 7.92188,0.28125 c -0.26667,0 -0.39844,0.131771 -0.39844,0.398438 0,0.266667 0.13177,0.400391 0.39844,0.400391 0.26666,0 0.40039,-0.133724 0.40039,-0.400391 0,-0.266667 -0.13373,-0.398438 -0.40039,-0.398438 z m -64.763676,0.07813 c -0.266667,0 -0.400391,0.133724 -0.400391,0.400391 0,0.266667 0.133724,0.400391 0.400391,0.400391 0.266666,0 0.398437,-0.133724 0.398437,-0.400391 0,-0.266667 -0.131771,-0.400391 -0.398437,-0.400391 z m 9.251953,0.320313 c -0.266667,0 -0.400391,0.133724 -0.400391,0.400391 0,0.266666 0.133724,0.40039 0.400391,0.40039 0.266667,0 0.400391,-0.133724 0.400391,-0.40039 -10e-7,-0.266667 -0.133724,-0.400391 -0.400391,-0.400391 z m 7.734375,0 c -0.266667,0 -0.400391,0.133724 -0.400391,0.400391 0,0.266666 0.133724,0.40039 0.400391,0.40039 0.266667,0 0.40039,-0.133724 0.40039,-0.40039 0,-0.266667 -0.133723,-0.400391 -0.40039,-0.400391 z m 49.138668,0.04102 c -0.26666,0 -0.40039,0.133724 -0.40039,0.400391 0,0.266667 0.13373,0.398438 0.40039,0.398438 0.26667,0 0.39844,-0.131771 0.39844,-0.398438 0,-0.266667 -0.13177,-0.400391 -0.39844,-0.400391 z m -33.898434,0.119141 c -0.266666,0 -0.40039,0.133724 -0.40039,0.400391 0,0.266666 0.133724,0.40039 0.40039,0.40039 0.266667,0 0.400391,-0.133724 0.400391,-0.40039 0,-0.266667 -0.133724,-0.400391 -0.400391,-0.400391 z m 35.337894,0.240235 c -0.26667,0 -0.40039,0.133723 -0.40039,0.40039 0,0.266667 0.13372,0.400391 0.40039,0.400391 0.26666,0 0.40039,-0.133724 0.40039,-0.400391 0,-0.266667 -0.13373,-0.40039 -0.40039,-0.40039 z m 1.48047,0.359374 c -0.26667,0 -0.4004,0.133724 -0.40039,0.400391 0,0.266667 0.13372,0.400391 0.40039,0.400391 0.26666,0 0.39843,-0.133724 0.39843,-0.400391 0,-0.266667 -0.13177,-0.400391 -0.39843,-0.400391 z m -30.683598,0.121094 c -0.266667,0 -0.400391,0.133724 -0.400391,0.400391 0,0.266667 0.133724,0.398437 0.400391,0.398437 0.266667,0 0.40039,-0.13177 0.40039,-0.398437 10e-7,-0.266667 -0.133723,-0.400391 -0.40039,-0.400391 z m 1.640625,0 c -0.266667,0 -0.400391,0.133724 -0.400391,0.400391 0,0.266667 0.133724,0.398437 0.400391,0.398437 0.266667,0 0.398437,-0.13177 0.398437,-0.398437 0,-0.266667 -0.13177,-0.400391 -0.398437,-0.400391 z m 1.638672,0 c -0.266667,0 -0.400391,0.133724 -0.400391,0.400391 0,0.266667 0.133724,0.398437 0.400391,0.398437 0.266666,0 0.40039,-0.13177 0.40039,-0.398437 0,-0.266667 -0.133724,-0.400391 -0.40039,-0.400391 z m 1.759765,0 c -0.266666,0 -0.398437,0.133724 -0.398437,0.400391 0,0.266667 0.131771,0.398437 0.398437,0.398437 0.266667,0 0.400391,-0.13177 0.400391,-0.398437 0,-0.266667 -0.133724,-0.400391 -0.400391,-0.400391 z m 1.800782,0 c -0.266667,0 -0.400391,0.133724 -0.400391,0.400391 0,0.266667 0.133724,0.398437 0.400391,0.398437 0.266666,0 0.40039,-0.13177 0.40039,-0.398437 0,-0.266667 -0.133724,-0.400391 -0.40039,-0.400391 z m 1.839843,0 c -0.266666,0 -0.40039,0.133724 -0.40039,0.400391 0,0.266667 0.133724,0.398437 0.40039,0.398437 0.266667,0 0.400391,-0.13177 0.400391,-0.398437 0,-0.266667 -0.133724,-0.400391 -0.400391,-0.400391 z m 1.720703,0 c -0.266666,0 -0.40039,0.133724 -0.40039,0.400391 0,0.266667 0.133724,0.398437 0.40039,0.398437 0.266667,0 0.400391,-0.13177 0.400391,-0.398437 0,-0.266667 -0.133724,-0.400391 -0.400391,-0.400391 z m 1.679688,0 c -0.26667,0 -0.40039,0.133724 -0.40039,0.400391 0,0.266667 0.13372,0.398437 0.40039,0.398437 0.26667,0 0.40039,-0.13177 0.40039,-0.398437 0,-0.266667 -0.13372,-0.400391 -0.40039,-0.400391 z m 1.59961,0 c -0.26667,0 -0.40039,0.133724 -0.40039,0.400391 0,0.266667 0.13372,0.398437 0.40039,0.398437 0.26667,0 0.40039,-0.13177 0.40039,-0.398437 0,-0.266667 -0.13372,-0.400391 -0.40039,-0.400391 z m 1.64062,0 c -0.26666,0 -0.40039,0.133724 -0.40039,0.400391 0,0.266667 0.13373,0.398437 0.40039,0.398437 0.26667,0 0.4004,-0.13177 0.4004,-0.398437 0,-0.266667 -0.13373,-0.400391 -0.4004,-0.400391 z m 1.79883,0 c -0.26666,0 -0.39843,0.133724 -0.39843,0.400391 0,0.266667 0.13177,0.398437 0.39843,0.398437 0.26667,0 0.40039,-0.13177 0.40039,-0.398437 0,-0.266667 -0.13372,-0.400391 -0.40039,-0.400391 z m 1.56055,0 c -0.26667,0 -0.40039,0.133724 -0.40039,0.400391 0,0.266667 0.13372,0.398437 0.40039,0.398437 0.26667,0 0.40039,-0.13177 0.40039,-0.398437 0,-0.266667 -0.13372,-0.400391 -0.40039,-0.400391 z m 13.48242,0.240235 c -0.26667,0 -0.39844,0.133724 -0.39844,0.40039 0,0.266667 0.13177,0.398438 0.39844,0.398438 0.26667,0 0.40039,-0.131771 0.40039,-0.398438 0,-0.266666 -0.13372,-0.40039 -0.40039,-0.40039 z m -70.523436,0.11914 c -0.266667,0 -0.400391,0.133724 -0.400391,0.400391 0,0.266667 0.133724,0.40039 0.400391,0.40039 0.266666,0 0.398437,-0.133723 0.398437,-0.40039 0,-0.266667 -0.131771,-0.400391 -0.398437,-0.400391 z m 71.964846,0.320313 c -0.26667,0 -0.40039,0.133724 -0.40039,0.40039 0,0.266667 0.13372,0.400391 0.40039,0.400391 0.26666,0 0.40039,-0.133724 0.40039,-0.400391 0,-0.266666 -0.13373,-0.40039 -0.40039,-0.40039 z m -62.712893,0.08008 c -0.266667,0 -0.400391,0.133724 -0.400391,0.40039 0,0.266667 0.133724,0.400391 0.400391,0.400391 0.266667,0 0.400391,-0.133724 0.400391,-0.400391 -10e-7,-0.266666 -0.133724,-0.40039 -0.400391,-0.40039 z m 7.734375,0 c -0.266667,0 -0.400391,0.133724 -0.400391,0.40039 0,0.266667 0.133724,0.400391 0.400391,0.400391 0.266667,0 0.40039,-0.133724 0.40039,-0.400391 0,-0.266666 -0.133723,-0.40039 -0.40039,-0.40039 z m 15.240234,0 c -0.266666,0 -0.40039,0.133724 -0.40039,0.40039 0,0.266667 0.133724,0.400391 0.40039,0.400391 0.266667,0 0.400391,-0.133724 0.400391,-0.400391 0,-0.266666 -0.133724,-0.40039 -0.400391,-0.40039 z m 41.138674,0.480469 c -0.26667,0 -0.40039,0.133724 -0.40039,0.40039 0,0.266667 0.13372,0.398438 0.40039,0.398438 0.26666,0 0.39844,-0.131771 0.39844,-0.398438 0,-0.266666 -0.13178,-0.40039 -0.39844,-0.40039 z m -34.843752,0.320312 c -0.266667,0 -0.40039,0.131771 -0.40039,0.398438 -10e-7,0.266666 0.133723,0.40039 0.40039,0.40039 0.266667,0 0.400391,-0.133724 0.400391,-0.40039 0,-0.266667 -0.133724,-0.398438 -0.400391,-0.398438 z m -38.521484,0.398438 c -0.266667,0 -0.400391,0.133724 -0.400391,0.40039 0,0.266667 0.133724,0.400391 0.400391,0.400391 0.266666,0 0.398437,-0.133724 0.398437,-0.400391 0,-0.266666 -0.131771,-0.40039 -0.398437,-0.40039 z m 74.683596,0.160156 c -0.26667,0 -0.39844,0.133724 -0.39844,0.400391 0,0.266666 0.13177,0.40039 0.39844,0.40039 0.26666,0 0.40039,-0.133724 0.40039,-0.40039 0,-0.266667 -0.13373,-0.400391 -0.40039,-0.400391 z m -65.431643,0.240234 c -0.266667,0 -0.400391,0.133724 -0.400391,0.400391 0,0.266667 0.133724,0.40039 0.400391,0.40039 0.266667,0 0.400391,-0.133723 0.400391,-0.40039 -10e-7,-0.266667 -0.133724,-0.400391 -0.400391,-0.400391 z m 7.734375,0 c -0.266667,0 -0.400391,0.133724 -0.400391,0.400391 0,0.266667 0.133724,0.40039 0.400391,0.40039 0.266667,0 0.40039,-0.133723 0.40039,-0.40039 0,-0.266667 -0.133723,-0.400391 -0.40039,-0.400391 z m 15.240234,0 c -0.266666,0 -0.40039,0.133724 -0.40039,0.400391 0,0.266667 0.133724,0.40039 0.40039,0.40039 0.266667,0 0.400391,-0.133723 0.400391,-0.40039 0,-0.266667 -0.133724,-0.400391 -0.400391,-0.400391 z m 6.615235,0.679688 c -0.266667,0 -0.400391,0.133724 -0.400391,0.40039 0,0.266667 0.133724,0.400391 0.400391,0.400391 0.266666,0 0.398437,-0.133724 0.398437,-0.400391 0,-0.266666 -0.131771,-0.40039 -0.398437,-0.40039 z m 36.722659,0.40039 c -0.26667,0 -0.40039,0.133724 -0.40039,0.400391 0,0.266667 0.13372,0.400391 0.40039,0.400391 0.26666,0 0.40039,-0.133724 0.40039,-0.400391 0,-0.266667 -0.13373,-0.400391 -0.40039,-0.400391 z m -75.564456,0.121094 c -0.266667,0 -0.400391,0.131771 -0.400391,0.398438 0,0.266666 0.133724,0.40039 0.400391,0.40039 0.266666,0 0.398437,-0.133724 0.398437,-0.40039 0,-0.266667 -0.131771,-0.398438 -0.398437,-0.398438 z m 9.251953,0.398438 c -0.266667,0 -0.400391,0.133724 -0.400391,0.40039 0,0.266667 0.133724,0.400391 0.400391,0.400391 0.266667,0 0.400391,-0.133724 0.400391,-0.400391 -10e-7,-0.266666 -0.133724,-0.40039 -0.400391,-0.40039 z m 7.734375,0 c -0.266667,0 -0.400391,0.133724 -0.400391,0.40039 0,0.266667 0.133724,0.400391 0.400391,0.400391 0.266667,0 0.40039,-0.133724 0.40039,-0.400391 0,-0.266666 -0.133723,-0.40039 -0.40039,-0.40039 z m 15.240234,0 c -0.266666,0 -0.40039,0.133724 -0.40039,0.40039 0,0.266667 0.133724,0.400391 0.40039,0.400391 0.266667,0 0.400391,-0.133724 0.400391,-0.400391 0,-0.266666 -0.133724,-0.40039 -0.400391,-0.40039 z m 7.214844,0.560547 c -0.266667,0 -0.400391,0.133723 -0.400391,0.40039 0,0.266667 0.133724,0.400391 0.400391,0.400391 0.266667,0 0.400391,-0.133724 0.400391,-0.400391 0,-0.266667 -0.133724,-0.40039 -0.400391,-0.40039 z m 36.32227,0.599609 c -0.26667,0 -0.39844,0.133724 -0.39844,0.400391 0,0.266666 0.13177,0.40039 0.39844,0.40039 0.26666,0 0.40039,-0.133724 0.40039,-0.40039 0,-0.266667 -0.13373,-0.400391 -0.40039,-0.400391 z m -75.763676,0.04102 c -0.266667,10e-7 -0.400391,0.133724 -0.400391,0.400391 0,0.266667 0.133724,0.398438 0.400391,0.398438 0.266666,0 0.398437,-0.131771 0.398437,-0.398438 0,-0.266667 -0.131771,-0.400391 -0.398437,-0.400391 z m 9.251953,0.320313 c -0.266667,0 -0.400391,0.131771 -0.400391,0.398437 0,0.266667 0.133724,0.400391 0.400391,0.400391 0.266667,0 0.400391,-0.133724 0.400391,-0.400391 -10e-7,-0.266666 -0.133724,-0.398437 -0.400391,-0.398437 z m 7.734375,0 c -0.266667,0 -0.400391,0.131771 -0.400391,0.398437 0,0.266667 0.133724,0.400391 0.400391,0.400391 0.266667,0 0.40039,-0.133724 0.40039,-0.400391 0,-0.266666 -0.133723,-0.398437 -0.40039,-0.398437 z m 15.240234,0 c -0.266666,0 -0.40039,0.131771 -0.40039,0.398437 0,0.266667 0.133724,0.400391 0.40039,0.400391 0.266667,0 0.400391,-0.133724 0.400391,-0.400391 0,-0.266666 -0.133724,-0.398437 -0.400391,-0.398437 z m 8.054688,0.439453 c -0.266667,0 -0.400391,0.133724 -0.400391,0.400391 0,0.266666 0.133724,0.40039 0.400391,0.40039 0.266666,0 0.40039,-0.133724 0.40039,-0.40039 0,-0.266667 -0.133724,-0.400391 -0.40039,-0.400391 z m 14.999996,0.199219 c -0.26666,0 -0.40039,0.133724 -0.40039,0.400391 0,0.266666 0.13373,0.40039 0.40039,0.40039 0.26667,0 0.40039,-0.133724 0.40039,-0.40039 0,-0.266667 -0.13372,-0.400391 -0.40039,-0.400391 z m 20.16211,0.601562 c -0.26666,0 -0.39843,0.131771 -0.39843,0.398438 0,0.266667 0.13177,0.400391 0.39843,0.400391 0.26667,-10e-7 0.40039,-0.133724 0.40039,-0.400391 0,-0.266667 -0.13372,-0.398438 -0.40039,-0.398438 z m -75.443356,0.03906 c -0.266667,0 -0.400391,0.133724 -0.400391,0.40039 0,0.266667 0.133724,0.400391 0.400391,0.400391 0.266666,0 0.398437,-0.133724 0.398437,-0.400391 0,-0.266666 -0.131771,-0.40039 -0.398437,-0.40039 z m 9.251953,0.40039 c -0.266667,10e-7 -0.400391,0.133724 -0.400391,0.400391 0,0.266667 0.133724,0.398438 0.400391,0.398438 0.266667,0 0.400391,-0.131771 0.400391,-0.398438 -10e-7,-0.266667 -0.133724,-0.400391 -0.400391,-0.400391 z m 7.734375,0 c -0.266667,10e-7 -0.400391,0.133724 -0.400391,0.400391 0,0.266667 0.133724,0.398438 0.400391,0.398438 0.266667,0 0.40039,-0.131771 0.40039,-0.398438 0,-0.266667 -0.133723,-0.400391 -0.40039,-0.400391 z m 15.240234,0 c -0.266666,10e-7 -0.40039,0.133724 -0.40039,0.400391 0,0.266667 0.133724,0.398438 0.40039,0.398438 0.266667,0 0.400391,-0.131771 0.400391,-0.398438 0,-0.266667 -0.133724,-0.400391 -0.400391,-0.400391 z m 9.173828,0.119141 c -0.266666,0 -0.398437,0.133724 -0.398437,0.400391 0,0.266666 0.131771,0.40039 0.398437,0.40039 0.266667,0 0.400391,-0.133724 0.400391,-0.40039 0,-0.266667 -0.133724,-0.400391 -0.400391,-0.400391 z m 19.763676,0 c -0.26667,0 -0.40039,0.133724 -0.40039,0.400391 0,0.266666 0.13372,0.40039 0.40039,0.40039 0.26666,0 0.40039,-0.133724 0.40039,-0.40039 0,-0.266667 -0.13373,-0.400391 -0.40039,-0.400391 z m -7.00196,0.201172 c -0.26666,0 -0.40039,0.131771 -0.40039,0.398437 0,0.266667 0.13373,0.400391 0.40039,0.400391 0.26667,0 0.39844,-0.133724 0.39844,-0.400391 0,-0.266666 -0.13177,-0.398437 -0.39844,-0.398437 z m 20.36133,0.558594 c -0.26667,0 -0.39844,0.133724 -0.39844,0.40039 0,0.266667 0.13177,0.400391 0.39844,0.400391 0.26667,0 0.40039,-0.133724 0.40039,-0.400391 0,-0.266666 -0.13372,-0.40039 -0.40039,-0.40039 z m -74.283202,0.240234 c -0.266667,0 -0.400391,0.133724 -0.40039,0.400391 -10e-7,0.266666 0.133723,0.40039 0.40039,0.40039 0.266667,0 0.398438,-0.133724 0.398438,-0.40039 0,-0.266667 -0.131771,-0.400391 -0.398438,-0.400391 z m 62.083982,0 c -0.26666,0 -0.40039,0.133724 -0.40039,0.400391 0,0.266666 0.13373,0.40039 0.40039,0.40039 0.26667,0 0.40039,-0.133724 0.40039,-0.40039 0,-0.266667 -0.13372,-0.400391 -0.40039,-0.400391 z m -19.642576,0.121094 c -0.266666,0 -0.40039,0.131771 -0.40039,0.398437 0,0.266667 0.133724,0.400391 0.40039,0.400391 0.266667,0 0.400391,-0.133724 0.400391,-0.400391 0,-0.266666 -0.133724,-0.398437 -0.400391,-0.398437 z m -33.429687,0.199219 c -0.266667,0 -0.400391,0.133724 -0.400391,0.40039 0,0.266667 0.133724,0.400391 0.400391,0.400391 0.266667,0 0.400391,-0.133724 0.400391,-0.400391 -10e-7,-0.266666 -0.133724,-0.40039 -0.400391,-0.40039 z m 7.734375,0 c -0.266667,0 -0.400391,0.133724 -0.400391,0.40039 0,0.266667 0.133724,0.400391 0.400391,0.400391 0.266667,0 0.40039,-0.133724 0.40039,-0.400391 0,-0.266666 -0.133723,-0.40039 -0.40039,-0.40039 z m 15.240234,0 c -0.266666,0 -0.40039,0.133724 -0.40039,0.40039 0,0.266667 0.133724,0.400391 0.40039,0.400391 0.266667,0 0.400391,-0.133724 0.400391,-0.400391 0,-0.266666 -0.133724,-0.40039 -0.400391,-0.40039 z m 20.654294,0 c -0.26666,0 -0.40039,0.133724 -0.40039,0.40039 0,0.266667 0.13373,0.400391 0.40039,0.400391 0.26667,0 0.40039,-0.133724 0.40039,-0.400391 0,-0.266666 -0.13372,-0.40039 -0.40039,-0.40039 z m 20.4043,0.480468 c -0.26667,0 -0.40039,0.133724 -0.40039,0.400391 0,0.266667 0.13372,0.398437 0.40039,0.398437 0.26667,0 0.39844,-0.13177 0.39844,-0.398437 0,-0.266667 -0.13177,-0.400391 -0.39844,-0.400391 z m -9.60156,0.03906 c -0.26667,0 -0.39844,0.133724 -0.39844,0.400391 0,0.266666 0.13177,0.40039 0.39844,0.40039 0.26666,0 0.40039,-0.133724 0.40039,-0.40039 0,-0.266667 -0.13373,-0.400391 -0.40039,-0.400391 z m -19.443362,0.201172 c -0.266667,0 -0.398437,0.133724 -0.398437,0.40039 0,0.266667 0.13177,0.398438 0.398437,0.398438 0.266667,0 0.400391,-0.131771 0.400391,-0.398438 0,-0.266666 -0.133724,-0.40039 -0.400391,-0.40039 z m -43.121094,0.11914 c -0.266666,0 -0.40039,0.133724 -0.40039,0.400391 0,0.266667 0.133724,0.400391 0.40039,0.400391 0.266667,0 0.400391,-0.133724 0.400391,-0.400391 0,-0.266667 -0.133724,-0.400391 -0.400391,-0.400391 z m 50.242186,0 c -0.26666,0 -0.40039,0.133724 -0.40039,0.400391 0,0.266667 0.13373,0.400391 0.40039,0.400391 0.26667,0 0.40039,-0.133724 0.40039,-0.400391 0,-0.266667 -0.13372,-0.400391 -0.40039,-0.400391 z m -46.121092,0.160157 c -0.266667,0 -0.40039,0.133724 -0.40039,0.40039 -10e-7,0.266667 0.133723,0.400391 0.40039,0.400391 0.266667,0 0.398438,-0.133724 0.398438,-0.400391 0,-0.266666 -0.131771,-0.40039 -0.398438,-0.40039 z m 66.683592,0.08008 c -0.26666,0 -0.40039,0.133724 -0.40039,0.40039 0,0.266667 0.13373,0.400391 0.40039,0.400391 0.26667,0 0.40039,-0.133724 0.40039,-0.400391 0,-0.266666 -0.13372,-0.40039 -0.40039,-0.40039 z m -6.75976,0.04102 c -0.26667,0 -0.40039,0.131771 -0.40039,0.398438 0,0.266667 0.13372,0.400391 0.40039,0.400391 0.26666,-10e-7 0.40039,-0.133724 0.40039,-0.400391 0,-0.266667 -0.13373,-0.398438 -0.40039,-0.398438 z m -19.363285,0.199219 c -0.266667,0 -0.400391,0.133724 -0.400391,0.400391 0,0.266666 0.133724,0.40039 0.400391,0.40039 0.266667,0 0.400391,-0.133724 0.400391,-0.40039 0,-0.266667 -0.133724,-0.400391 -0.400391,-0.400391 z m -41.921875,0.03906 c -0.266667,0 -0.400391,0.133724 -0.400391,0.40039 0,0.266667 0.133724,0.400391 0.400391,0.400391 0.266667,0 0.400391,-0.133724 0.400391,-0.400391 0,-0.266666 -0.133724,-0.40039 -0.400391,-0.40039 z m 5.373047,0.04102 c -0.266667,0 -0.400391,0.133724 -0.400391,0.400391 0,0.266667 0.133724,0.398437 0.400391,0.398437 0.266667,0 0.400391,-0.13177 0.400391,-0.398437 -10e-7,-0.266667 -0.133724,-0.400391 -0.400391,-0.400391 z m 7.734375,0 c -0.266667,0 -0.400391,0.133724 -0.400391,0.400391 0,0.266667 0.133724,0.398437 0.400391,0.398437 0.266667,0 0.40039,-0.13177 0.40039,-0.398437 0,-0.266667 -0.133723,-0.400391 -0.40039,-0.400391 z m 15.240234,0 c -0.266666,0 -0.40039,0.133724 -0.40039,0.400391 0,0.266667 0.133724,0.398437 0.40039,0.398437 0.266667,0 0.400391,-0.13177 0.400391,-0.398437 0,-0.266667 -0.133724,-0.400391 -0.400391,-0.400391 z m 17.375,0 c -0.266666,0 -0.40039,0.133724 -0.40039,0.400391 0,0.266667 0.133724,0.398437 0.40039,0.398437 0.266667,0 0.400394,-0.13177 0.400394,-0.398437 0,-0.266667 -0.133727,-0.400391 -0.400394,-0.400391 z m -47.203125,0.03906 c -0.266666,0 -0.398437,0.133724 -0.398437,0.40039 0,0.266667 0.131771,0.400391 0.398437,0.400391 0.266667,0 0.400391,-0.133724 0.400391,-0.400391 0,-0.266666 -0.133724,-0.40039 -0.400391,-0.40039 z m 64.445309,0.08008 c -0.26666,0 -0.40039,0.133724 -0.40039,0.400391 0,0.266666 0.13373,0.40039 0.40039,0.40039 0.26667,0 0.40039,-0.133724 0.40039,-0.40039 0,-0.266667 -0.13372,-0.400391 -0.40039,-0.400391 z m 3.52149,0 c -0.26667,0 -0.40039,0.133724 -0.40039,0.400391 0,0.266666 0.13372,0.40039 0.40039,0.40039 0.26666,0 0.39844,-0.133724 0.39844,-0.40039 0,-0.266667 -0.13178,-0.400391 -0.39844,-0.400391 z m -22.644533,0.08008 c -0.266667,0 -0.400391,0.133724 -0.400391,0.400391 0,0.266666 0.133724,0.40039 0.400391,0.40039 0.266667,0 0.400391,-0.133724 0.400391,-0.40039 0,-0.266667 -0.133724,-0.400391 -0.400391,-0.400391 z m 20.923833,0.04102 c -0.26667,0 -0.4004,0.133724 -0.4004,0.40039 0,0.266667 0.13373,0.398438 0.4004,0.398438 0.26666,0 0.40039,-0.131771 0.40039,-0.398438 0,-0.266666 -0.13373,-0.40039 -0.40039,-0.40039 z" />
  </g>
</svg>
