<?xml version="1.0" encoding="UTF-8" standalone="no"?>
<!-- Created with Inkscape (http://www.inkscape.org/) -->

<svg
   xmlns:dc="http://purl.org/dc/elements/1.1/"
   xmlns:cc="http://creativecommons.org/ns#"
   xmlns:rdf="http://www.w3.org/1999/02/22-rdf-syntax-ns#"
   xmlns:svg="http://www.w3.org/2000/svg"
   xmlns="http://www.w3.org/2000/svg"
   xmlns:sodipodi="http://sodipodi.sourceforge.net/DTD/sodipodi-0.dtd"
   xmlns:inkscape="http://www.inkscape.org/namespaces/inkscape"
   width="1000"
   height="1000"
   viewBox="0 0 264.58334 264.58333"
   version="1.1"
   id="svg8"
   inkscape:version="0.92.4 (5da689c313, 2019-01-14)"
   sodipodi:docname="youtube.logo.svg"
   inkscape:export-filename="C:\Users\Cara\Dropbox\Cara\silentlines.co.uk\images\youtube-logo.png"
   inkscape:export-xdpi="96"
   inkscape:export-ydpi="96">
  <defs
     id="defs2" />
  <sodipodi:namedview
     id="base"
     pagecolor="#222222"
     bordercolor="#666666"
     borderopacity="1.0"
     inkscape:pageopacity="1"
     inkscape:pageshadow="2"
     inkscape:zoom="0.49497475"
     inkscape:cx="1337.3277"
     inkscape:cy="371.15721"
     inkscape:document-units="mm"
     inkscape:current-layer="layer1"
     showgrid="false"
     units="px"
     inkscape:window-width="1920"
     inkscape:window-height="1027"
     inkscape:window-x="-8"
     inkscape:window-y="-8"
     inkscape:window-maximized="1"
     borderlayer="false" />
  <metadata
     id="metadata5">
    <rdf:RDF>
      <cc:Work
         rdf:about="">
        <dc:format>image/svg+xml</dc:format>
        <dc:type
           rdf:resource="http://purl.org/dc/dcmitype/StillImage" />
        <dc:title></dc:title>
      </cc:Work>
    </rdf:RDF>
  </metadata>
  <g
     inkscape:label="Layer 1"
     inkscape:groupmode="layer"
     id="layer1"
     transform="translate(0,-32.416667)">
    <path
       id="text12"
       style="font-style:normal;font-variant:normal;font-weight:normal;font-stretch:condensed;font-size:10.58333302px;line-height:1.25;font-family:Bahnschrift;-inkscape-font-specification:'Bahnschrift, Condensed';font-variant-ligatures:normal;font-variant-caps:normal;font-variant-numeric:normal;font-feature-settings:normal;text-align:center;letter-spacing:0px;word-spacing:0px;writing-mode:lr-tb;text-anchor:middle;fill:#e3e2db;fill-opacity:1;stroke:none;stroke-width:2.58232045"
       d="m 85.639187,107.39589 c -0.698217,0 -1.048349,0.3409 -1.048349,1.01972 0,0.67916 0.350134,1.01973 1.048349,1.01973 0.69822,0 1.048352,-0.3409 1.048352,-1.01973 0,-0.67915 -0.350134,-1.01972 -1.048352,-1.01972 z m 0,3.77044 c -0.698217,0 -1.048349,0.3409 -1.048349,1.01973 0,0.67915 0.350134,1.01972 1.048349,1.01972 0.69822,0 1.048352,-0.34089 1.048352,-1.01972 0,-0.67916 -0.350134,-1.01973 -1.048352,-1.01973 z m 146.196353,0 c -0.6982,0 -1.04322,0.3409 -1.04322,1.01973 0,0.67915 0.34504,1.01972 1.04322,1.01972 0.69823,0 1.04835,-0.34089 1.04835,-1.01972 0,-0.67916 -0.35015,-1.01973 -1.04835,-1.01973 z m -146.196353,3.86996 c -0.698217,0 -1.048349,0.34089 -1.048349,1.01972 0,0.67916 0.350134,1.01972 1.048349,1.01972 0.69822,0 1.048352,-0.34089 1.048352,-1.01972 0,-0.67909 -0.350134,-1.01972 -1.048352,-1.01972 z m 146.196353,0 c -0.6982,0 -1.04322,0.34089 -1.04322,1.01972 0,0.67916 0.34504,1.01972 1.04322,1.01972 0.69823,0 1.04835,-0.34089 1.04835,-1.01972 0,-0.67909 -0.35015,-1.01972 -1.04835,-1.01972 z m -146.196353,3.67099 c -0.698217,0 -1.048349,0.33564 -1.048349,1.0148 0,0.67916 0.350134,1.01972 1.048349,1.01972 0.69822,0 1.048352,-0.34089 1.048352,-1.01972 0,-0.67916 -0.350134,-1.0148 -1.048352,-1.0148 z m 146.196353,0.20362 c -0.6982,0 -1.04322,0.33564 -1.04322,1.0148 0,0.67915 0.34504,1.01972 1.04322,1.01972 0.69823,0 1.04835,-0.3409 1.04835,-1.01972 0,-0.67916 -0.35015,-1.0148 -1.04835,-1.0148 z m -146.196353,3.87002 c -0.698217,0 -1.048349,0.34089 -1.048349,1.01972 0,0.67916 0.350134,1.01473 1.048349,1.01473 0.69822,0 1.048352,-0.33564 1.048352,-1.01473 0,-0.67916 -0.350134,-1.01972 -1.048352,-1.01972 z m 146.196353,0.20427 c -0.6982,0 -1.04322,0.34024 -1.04322,1.01972 0,0.67916 0.34504,1.01473 1.04322,1.01473 0.69823,0 1.04835,-0.33564 1.04835,-1.01473 0,-0.67916 -0.35015,-1.01972 -1.04835,-1.01972 z m -146.196353,3.77044 c -0.698217,0 -1.048349,0.33564 -1.048349,1.0148 0,0.67909 0.350134,1.01972 1.048349,1.01972 0.69822,0 1.048352,-0.34089 1.048352,-1.01972 0,-0.67916 -0.350134,-1.0148 -1.048352,-1.0148 z m 146.196353,0.50707 c -0.6982,0 -1.04322,0.34089 -1.04322,1.01972 0,0.67916 0.34504,1.01972 1.04322,1.01972 0.69823,0 1.04835,-0.34089 1.04835,-1.01972 0,-0.67916 -0.35015,-1.01972 -1.04835,-1.01972 z m -202.848209,1.01972 c -0.69822,0 -1.048352,0.34089 -1.048352,1.01972 0,0.67916 0.350132,1.01473 1.048352,1.01473 0.698214,0 1.048349,-0.33563 1.048349,-1.01473 0,-0.67915 -0.350134,-1.01972 -1.048349,-1.01972 z m 4.397959,0.0992 c -0.69822,0 -1.048352,0.3409 -1.048352,1.01972 0,0.67916 0.350132,1.01973 1.048352,1.01973 0.698219,0 1.048351,-0.3409 1.048351,-1.01973 0,-0.67909 -0.350132,-1.01972 -1.048351,-1.01972 z m 97.43015,0 c -0.69821,0 -1.04835,0.3409 -1.04835,1.01972 0,0.67916 0.35016,1.01973 1.04835,1.01973 0.69822,0 1.04835,-0.3409 1.04835,-1.01973 0,-0.67909 -0.35015,-1.01972 -1.04835,-1.01972 z m 65.46313,0.10444 c -0.69823,0 -1.04324,0.34089 -1.04324,1.01972 0,0.67916 0.34503,1.01473 1.04324,1.01473 0.6982,0 1.04835,-0.33564 1.04835,-1.01473 0,-0.67916 -0.35015,-1.01972 -1.04835,-1.01972 z m -131.412072,0.30343 c -0.698215,0 -1.04835,0.34089 -1.04835,1.01972 0,0.6791 0.350134,1.01966 1.04835,1.01966 0.698219,0 1.048351,-0.34089 1.048351,-1.01966 0,-0.67915 -0.350134,-1.01972 -1.048351,-1.01972 z m 105.755592,0 c -0.69822,0 -1.04835,0.34089 -1.04835,1.01972 0,0.6791 0.35015,1.01966 1.04835,1.01966 0.69822,0 1.04835,-0.34089 1.04835,-1.01966 0,-0.67915 -0.35015,-1.01972 -1.04835,-1.01972 z m 20.94657,0.10444 c -0.69823,0 -1.04835,0.33563 -1.04835,1.01473 0,0.67915 0.35009,1.01972 1.04835,1.01972 0.6982,0 1.04835,-0.34089 1.04835,-1.01972 0,-0.67916 -0.35015,-1.01473 -1.04835,-1.01473 z m -166.97929,0.0998 c -0.698219,0 -1.048352,0.3409 -1.048352,1.01966 0,0.67916 0.350132,1.01972 1.048352,1.01972 0.69822,0 1.048352,-0.34089 1.048352,-1.01972 0,-0.67909 -0.350132,-1.01966 -1.048352,-1.01966 z m 12.779652,0.10444 c -0.698217,0 -1.04835,0.33564 -1.04835,1.01473 0,0.67916 0.350134,1.01972 1.04835,1.01972 0.698219,0 1.043238,-0.34089 1.043238,-1.01972 0,-0.67916 -0.345017,-1.01473 -1.043238,-1.01473 z m 88.521728,0 c -0.69822,0 -1.04835,0.33564 -1.04835,1.01473 0,0.67916 0.35015,1.01972 1.04835,1.01972 0.69822,0 1.04835,-0.34089 1.04835,-1.01972 0,-0.67916 -0.35016,-1.01473 -1.04835,-1.01473 z m 9.74199,0 c -0.69822,0 -1.04835,0.33564 -1.04835,1.01473 0,0.67916 0.35015,1.01972 1.04835,1.01972 0.69822,0 1.04835,-0.34089 1.04835,-1.01972 0,-0.67916 -0.35015,-1.01473 -1.04835,-1.01473 z m 87.82622,0 c -0.69817,0 -1.04835,0.33564 -1.04835,1.01473 0,0.67916 0.35016,1.01972 1.04835,1.01972 0.69823,0 1.04838,-0.34089 1.04838,-1.01972 0,-0.67916 -0.35016,-1.01473 -1.04838,-1.01473 z m 3.87635,0 c -0.69821,0 -1.04836,0.33564 -1.04836,1.01473 0,0.67916 0.35016,1.01972 1.04836,1.01972 0.69822,0 1.04834,-0.34089 1.04834,-1.01972 0,-0.67916 -0.35015,-1.01473 -1.04834,-1.01473 z m 8.48398,0 c -0.69823,0 -1.04835,0.33564 -1.04835,1.01473 0,0.67916 0.35009,1.01972 1.04835,1.01972 0.6982,0 1.04325,-0.34089 1.04325,-1.01972 0,-0.67916 -0.34503,-1.01473 -1.04325,-1.01473 z m 3.97861,0 c -0.69822,0 -1.04834,0.33564 -1.04834,1.01473 0,0.67916 0.35015,1.01972 1.04834,1.01972 0.69824,0 1.04836,-0.34089 1.04836,-1.01972 0,-0.67916 -0.35009,-1.01473 -1.04836,-1.01473 z m 4.1883,0 c -0.69823,0 -1.04835,0.33564 -1.04835,1.01473 0,0.67916 0.35016,1.01972 1.04835,1.01972 0.69822,0 1.04834,-0.34089 1.04834,-1.01972 0,-0.67916 -0.35008,-1.01473 -1.04834,-1.01473 z m -43.20229,0.30345 c -0.69822,0 -1.04834,0.3409 -1.04834,1.01973 0,0.67909 0.35015,1.01972 1.04834,1.01972 0.69823,0 1.04836,-0.3409 1.04836,-1.01972 0,-0.67916 -0.35016,-1.01973 -1.04836,-1.01973 z m -180.382828,1.01969 c -0.69822,0 -1.048352,0.34089 -1.048352,1.01972 0,0.67916 0.350134,1.0148 1.048352,1.0148 0.698217,0 1.048349,-0.33564 1.048349,-1.0148 0,-0.67909 -0.350134,-1.01972 -1.048349,-1.01972 z m 20.527219,0 c -0.698217,0 -1.04835,0.34089 -1.04835,1.01972 0,0.67916 0.350134,1.0148 1.04835,1.0148 0.698219,0 1.048352,-0.33564 1.048352,-1.0148 0,-0.67909 -0.350134,-1.01972 -1.048352,-1.01972 z m 80.774159,0 c -0.69822,0 -1.04835,0.34089 -1.04835,1.01972 0,0.67916 0.35015,1.0148 1.04835,1.0148 0.69822,0 1.04835,-0.33564 1.04835,-1.0148 0,-0.67909 -0.35015,-1.01972 -1.04835,-1.01972 z m 18.11857,0 c -0.69822,0 -1.04835,0.34089 -1.04835,1.01972 0,0.67916 0.35015,1.0148 1.04835,1.0148 0.69822,0 1.04835,-0.33564 1.04835,-1.0148 0,-0.67909 -0.35015,-1.01972 -1.04835,-1.01972 z m 47.24226,0 c -0.6982,0 -1.04835,0.34089 -1.04835,1.01972 0,0.67916 0.35015,1.0148 1.04835,1.0148 0.69823,0 1.04835,-0.33564 1.04835,-1.0148 2e-5,-0.67909 -0.35009,-1.01972 -1.04835,-1.01972 z m -101.424103,0.71134 c -0.698217,0 -1.048349,0.34089 -1.048349,1.01972 0,0.67916 0.350134,1.01973 1.048349,1.01973 0.69822,0 1.048352,-0.3409 1.048352,-1.01973 0,-0.67915 -0.350134,-1.01972 -1.048352,-1.01972 z m 146.196353,0 c -0.6982,0 -1.04322,0.34089 -1.04322,1.01972 0,0.67916 0.34504,1.01973 1.04322,1.01973 0.69823,0 1.04835,-0.3409 1.04835,-1.01973 0,-0.67915 -0.35015,-1.01972 -1.04835,-1.01972 z m -26.96561,0.61151 c -0.69822,0 -1.04837,0.34089 -1.04837,1.01972 0,0.67916 0.35015,1.01972 1.04837,1.01972 0.6982,0 1.04836,-0.34089 1.04836,-1.01972 0,-0.67916 -0.35016,-1.01972 -1.04836,-1.01972 z m -160.484627,0.30805 c -0.69822,0 -1.048352,0.33564 -1.048352,1.01479 0,0.67916 0.350134,1.01972 1.048352,1.01972 0.69822,0 1.043236,-0.34089 1.043236,-1.01972 0,-0.67915 -0.345017,-1.01479 -1.043236,-1.01479 z m 138.591987,0.20361 c -0.69822,0 -1.04324,0.33564 -1.04324,1.0148 0,0.67916 0.34503,1.01972 1.04324,1.01972 0.69821,0 1.04835,-0.34089 1.04835,-1.01972 0,-0.67916 -0.35015,-1.0148 -1.04835,-1.0148 z m -166.03321,0.30346 c -0.698219,0 -1.04835,0.34089 -1.04835,1.01972 0,0.67916 0.350128,1.01972 1.04835,1.01972 0.698219,0 1.048351,-0.34089 1.048351,-1.01972 0,-0.67916 -0.350134,-1.01972 -1.048351,-1.01972 z m 47.922418,0 c -0.698215,0 -1.04835,0.34089 -1.04835,1.01972 0,0.67916 0.350134,1.01972 1.04835,1.01972 0.698219,0 1.048351,-0.34089 1.048351,-1.01972 0,-0.67916 -0.350134,-1.01972 -1.048351,-1.01972 z m 105.755592,0 c -0.69822,0 -1.04835,0.34089 -1.04835,1.01972 0,0.67916 0.35015,1.01972 1.04835,1.01972 0.69822,0 1.04835,-0.34089 1.04835,-1.01972 0,-0.67916 -0.35015,-1.01972 -1.04835,-1.01972 z m -53.00564,0.20427 c -0.69822,0 -1.04324,0.34089 -1.04324,1.01972 0,0.67916 0.34503,1.01972 1.04324,1.01972 0.69822,0 1.04835,-0.34089 1.04835,-1.01972 0,-0.67916 -0.35015,-1.01972 -1.04835,-1.01972 z m 26.29059,0 c -0.69821,0 -1.04835,0.34089 -1.04835,1.01972 0,0.67916 0.35016,1.01972 1.04835,1.01972 0.69822,0 1.04835,-0.34089 1.04835,-1.01972 0,-0.67916 -0.35015,-1.01972 -1.04835,-1.01972 z m -96.80114,1.73106 c -0.698217,0 -1.048349,0.3409 -1.048349,1.01973 0,0.67915 0.350134,1.01972 1.048349,1.01972 0.69822,0 1.048352,-0.3409 1.048352,-1.01972 0,-0.67916 -0.350134,-1.01973 -1.048352,-1.01973 z m 160.06527,0.10444 c -0.69819,0 -1.04324,0.33564 -1.04324,1.01473 0,0.67916 0.34503,1.01972 1.04324,1.01972 0.69823,0 1.04836,-0.34089 1.04836,-1.01972 0,-0.67916 -0.35016,-1.01473 -1.04836,-1.01473 z M 179.418,134.9025 c -0.6982,0 -1.04834,0.34089 -1.04834,1.01972 0,0.67916 0.35015,1.01973 1.04834,1.01973 0.69823,0 1.04835,-0.3409 1.04835,-1.01973 0,-0.67915 -0.35015,-1.01972 -1.04835,-1.01972 z m -93.778813,0.30346 c -0.698217,0 -1.048349,0.34089 -1.048349,1.01972 0,0.67916 0.350134,1.01972 1.048349,1.01972 0.69822,0 1.048352,-0.34089 1.048352,-1.01972 0,-0.67916 -0.350134,-1.01972 -1.048352,-1.01972 z m 146.196353,0 c -0.6982,0 -1.04322,0.34089 -1.04322,1.01972 0,0.67916 0.34504,1.01972 1.04322,1.01972 0.69823,0 1.04835,-0.34089 1.04835,-1.01972 0,-0.67916 -0.35015,-1.01972 -1.04835,-1.01972 z m -117.5687,0.40788 c -0.69822,0 -1.04835,0.3409 -1.04835,1.01973 0,0.67915 0.35015,1.01972 1.04835,1.01972 0.69822,0 1.04835,-0.34089 1.04835,-1.01972 0,-0.67916 -0.35016,-1.01973 -1.04835,-1.01973 z m 32.98981,0 c -0.69822,0 -1.04835,0.3409 -1.04835,1.01973 0,0.67915 0.35015,1.01972 1.04835,1.01972 0.69822,0 1.04835,-0.34089 1.04835,-1.01972 0,-0.67916 -0.35015,-1.01973 -1.04835,-1.01973 z m -132.828611,0.20428 c -0.698219,0 -1.043238,0.34089 -1.043238,1.01972 0,0.67916 0.345017,1.01972 1.043238,1.01972 0.698217,0 1.048349,-0.34089 1.048349,-1.01972 0,-0.67916 -0.350134,-1.01972 -1.048349,-1.01972 z m 50.438459,0.81577 c -0.698215,0 -1.04835,0.3409 -1.04835,1.01973 0,0.67915 0.350134,1.01972 1.04835,1.01972 0.698219,0 1.048351,-0.34089 1.048351,-1.01972 0,-0.67916 -0.350134,-1.01973 -1.048351,-1.01973 z m 105.755592,0 c -0.69822,0 -1.04835,0.3409 -1.04835,1.01973 0,0.67915 0.35015,1.01972 1.04835,1.01972 0.69822,0 1.04835,-0.34089 1.04835,-1.01972 0,-0.67916 -0.35015,-1.01973 -1.04835,-1.01973 z m 38.01679,1.42761 c -0.69823,0 -1.04836,0.3409 -1.04836,1.01973 0,0.67915 0.35009,1.01479 1.04836,1.01479 0.69822,0 1.04834,-0.33564 1.04834,-1.01479 0,-0.67916 -0.35008,-1.01973 -1.04834,-1.01973 z m -32.15114,0.0998 c -0.69822,0 -1.04835,0.34089 -1.04835,1.01972 0,0.67916 0.35015,1.01973 1.04835,1.01973 0.69822,0 1.04324,-0.3409 1.04324,-1.01973 0,-0.67915 -0.34503,-1.01972 -1.04324,-1.01972 z m -65.15118,0.92022 c -0.69821,0 -1.04834,0.33563 -1.04834,1.01479 0,0.67909 0.35015,1.01972 1.04834,1.01972 0.69823,0 1.04325,-0.34089 1.04325,-1.01972 0,-0.67916 -0.34503,-1.01479 -1.04325,-1.01479 z m 38.85547,0 c -0.69822,0 -1.04834,0.33563 -1.04835,1.01479 1e-5,0.67909 0.35015,1.01972 1.04835,1.01972 0.69822,0 1.04324,-0.34089 1.04324,-1.01972 0,-0.67916 -0.34503,-1.01479 -1.04324,-1.01479 z m -64.552843,0.20427 c -0.698217,0 -1.048349,0.33564 -1.048349,1.01479 0,0.6791 0.350134,1.01973 1.048349,1.01973 0.69822,0 1.048352,-0.3409 1.048352,-1.01973 0,-0.67915 -0.350134,-1.01479 -1.048352,-1.01479 z m 146.196353,0 c -0.6982,0 -1.04322,0.33564 -1.04322,1.01479 0,0.6791 0.34504,1.01973 1.04322,1.01973 0.69823,0 1.04835,-0.3409 1.04835,-1.01973 0,-0.67915 -0.35015,-1.01479 -1.04835,-1.01479 z m -218.870079,0.40793 c -0.698219,0 -1.048352,0.33563 -1.048352,1.01479 0,0.67909 0.350134,1.01972 1.048352,1.01972 0.69822,0 1.043236,-0.34089 1.043236,-1.01972 0,-0.67916 -0.345018,-1.01479 -1.043236,-1.01479 z m 51.901037,0.6069 c -0.698215,0 -1.04835,0.3409 -1.04835,1.01973 0,0.67909 0.350134,1.01972 1.04835,1.01972 0.698219,0 1.048351,-0.3409 1.048351,-1.01972 0,-0.67916 -0.350134,-1.01973 -1.048351,-1.01973 z m 105.755592,0 c -0.69822,0 -1.04835,0.3409 -1.04835,1.01973 0,0.67909 0.35015,1.01972 1.04835,1.01972 0.69822,0 1.04835,-0.3409 1.04835,-1.01972 0,-0.67916 -0.35015,-1.01973 -1.04835,-1.01973 z m 38.85546,1.3281 c -0.69823,0 -1.04835,0.33564 -1.04835,1.01473 0,0.67916 0.35009,1.01973 1.04835,1.01973 0.69823,0 1.04835,-0.3409 1.04835,-1.01973 0,-0.67915 -0.35009,-1.01473 -1.04835,-1.01473 z m -35.60813,0.0992 c -0.69822,0 -1.04835,0.34089 -1.04835,1.01972 0,0.67915 0.35015,1.01972 1.04835,1.01972 0.69822,0 1.04324,-0.34089 1.04324,-1.01972 0,-0.67909 -0.34504,-1.01972 -1.04324,-1.01972 z m -64.73695,0.91528 c -0.69821,0 -1.04323,0.34089 -1.04323,1.01972 0,0.67916 0.34503,1.01973 1.04323,1.01973 0.69822,0 1.04836,-0.3409 1.04836,-1.01973 0,-0.67915 -0.35016,-1.01972 -1.04836,-1.01972 z m 43.25854,0 c -0.69822,0 -1.04835,0.34089 -1.04835,1.01972 0,0.67916 0.35015,1.01973 1.04835,1.01973 0.69822,0 1.04324,-0.3409 1.04324,-1.01973 0,-0.67915 -0.34503,-1.01972 -1.04324,-1.01972 z m -66.751823,0.40789 c -0.698217,0 -1.048349,0.34089 -1.048349,1.01972 0,0.67916 0.350134,1.01972 1.048349,1.01972 0.69822,0 1.048352,-0.34089 1.048352,-1.01972 0,-0.67916 -0.350134,-1.01972 -1.048352,-1.01972 z m 146.196353,0 c -0.6982,0 -1.04322,0.34089 -1.04322,1.01972 0,0.67916 0.34504,1.01972 1.04322,1.01972 0.69823,0 1.04835,-0.34089 1.04835,-1.01972 0,-0.67916 -0.35015,-1.01972 -1.04835,-1.01972 z M 12.858068,143.5634 c -0.698217,0 -1.048349,0.3409 -1.048349,1.01973 0,0.67915 0.350134,1.01479 1.048349,1.01479 0.69822,0 1.048352,-0.33564 1.048352,-1.01479 0,-0.6791 -0.350134,-1.01973 -1.048352,-1.01973 z m 52.00843,0.50707 c -0.698215,0 -1.04835,0.3409 -1.04835,1.01973 0,0.67915 0.350134,1.01972 1.04835,1.01972 0.698219,0 1.048351,-0.34089 1.048351,-1.01972 0,-0.67916 -0.350134,-1.01973 -1.048351,-1.01973 z m 105.755592,0 c -0.69822,0 -1.04835,0.3409 -1.04835,1.01973 0,0.67915 0.35015,1.01972 1.04835,1.01972 0.69822,0 1.04835,-0.34089 1.04835,-1.01972 0,-0.67916 -0.35015,-1.01973 -1.04835,-1.01973 z m 39.37708,1.32318 c -0.69823,0 -1.04835,0.34089 -1.04835,1.01972 0,0.67916 0.35016,1.01972 1.04835,1.01972 0.69823,0 1.04835,-0.34089 1.04835,-1.01972 0,-0.67916 -0.35015,-1.01972 -1.04835,-1.01972 z m -102.43667,1.01972 c -0.69822,0 -1.04835,0.34089 -1.04835,1.01972 0,0.67916 0.35015,1.01972 1.04835,1.01972 0.69822,0 1.04836,-0.34089 1.04836,-1.01972 0,-0.67915 -0.35016,-1.01972 -1.04836,-1.01972 z m 46.39848,0 c -0.69822,0 -1.04835,0.34089 -1.04835,1.01972 0,0.67916 0.35015,1.01972 1.04835,1.01972 0.69822,0 1.04835,-0.34089 1.04835,-1.01972 0,-0.67915 -0.35015,-1.01972 -1.04835,-1.01972 z M 13.90642,146.9257 c -0.69822,0 -1.048352,0.33563 -1.048352,1.01472 0,0.67916 0.350134,1.01973 1.048352,1.01973 0.69822,0 1.048349,-0.34024 1.048349,-1.01973 0,-0.67915 -0.350127,-1.01472 -1.048349,-1.01472 z m 71.732767,0.20361 c -0.698217,0 -1.048349,0.33564 -1.048349,1.01473 0,0.67916 0.350134,1.01972 1.048349,1.01972 0.69822,0 1.048352,-0.34089 1.048352,-1.01972 0,-0.67916 -0.350134,-1.01473 -1.048352,-1.01473 z m 146.196353,0 c -0.6982,0 -1.04322,0.33564 -1.04322,1.01473 0,0.67916 0.34504,1.01972 1.04322,1.01972 0.69823,0 1.04835,-0.34089 1.04835,-1.01972 0,-0.67916 -0.35015,-1.01473 -1.04835,-1.01473 z M 64.866498,147.9401 c -0.698215,0 -1.04835,0.34089 -1.04835,1.01972 0,0.67916 0.350134,1.01972 1.04835,1.01972 0.698219,0 1.048351,-0.34089 1.048351,-1.01972 0,-0.67916 -0.350134,-1.01972 -1.048351,-1.01972 z m 105.755592,0 c -0.69822,0 -1.04835,0.34089 -1.04835,1.01972 0,0.67916 0.35015,1.01972 1.04835,1.01972 0.69822,0 1.04835,-0.34089 1.04835,-1.01972 0,-0.67916 -0.35015,-1.01972 -1.04835,-1.01972 z m 39.90381,1.32816 c -0.6982,0 -1.04835,0.33564 -1.04835,1.01473 0,0.67916 0.35016,1.01973 1.04835,1.01973 0.69822,0 1.04324,-0.3409 1.04324,-1.01973 0,-0.67915 -0.34503,-1.01473 -1.04324,-1.01473 z m -194.103439,0.20362 c -0.698217,0 -1.048349,0.33564 -1.048349,1.01473 0,0.67916 0.350134,1.01972 1.048349,1.01972 0.698219,0 1.043238,-0.34089 1.043238,-1.01972 0,-0.67916 -0.345018,-1.01473 -1.043238,-1.01473 z m 90.301359,0.71246 c -0.69822,0 -1.04323,0.34089 -1.04323,1.01972 0,0.67916 0.34503,1.01972 1.04323,1.01972 0.69822,0 1.04835,-0.34089 1.04835,-1.01972 0,-0.67909 -0.35015,-1.01972 -1.04835,-1.01972 z m 47.96845,0.0998 c -0.69822,0 -1.04835,0.34089 -1.04835,1.01972 0,0.67916 0.35015,1.01972 1.04835,1.01972 0.69822,0 1.04835,-0.34089 1.04835,-1.01972 0,-0.67916 -0.35015,-1.01972 -1.04835,-1.01972 z m -134.9202,0.7163 c -0.698217,0 -1.048349,0.3409 -1.048349,1.01973 0,0.67915 0.350134,1.01479 1.048349,1.01479 0.69822,0 1.048352,-0.33564 1.048352,-1.01479 0,-0.67916 -0.350134,-1.01973 -1.048352,-1.01973 z m 65.867117,0.20362 c -0.698217,0 -1.048349,0.34089 -1.048349,1.01972 0,0.67916 0.350134,1.0148 1.048349,1.0148 0.69822,0 1.048352,-0.33564 1.048352,-1.0148 0,-0.67909 -0.350134,-1.01972 -1.048352,-1.01972 z m 146.196353,0 c -0.6982,0 -1.04322,0.34089 -1.04322,1.01972 0,0.67916 0.34504,1.0148 1.04322,1.0148 0.69823,0 1.04835,-0.33564 1.04835,-1.0148 0,-0.67909 -0.35015,-1.01972 -1.04835,-1.01972 z m -166.969042,0.81578 c -0.698215,0 -1.04835,0.33564 -1.04835,1.01479 0,0.67916 0.350134,1.01972 1.04835,1.01972 0.698219,0 1.048351,-0.34089 1.048351,-1.01972 0,-0.67915 -0.350134,-1.01479 -1.048351,-1.01479 z m 105.755592,0 c -0.69822,0 -1.04835,0.33564 -1.04835,1.01479 0,0.67916 0.35015,1.01972 1.04835,1.01972 0.69822,0 1.04835,-0.34089 1.04835,-1.01972 0,-0.67915 -0.35015,-1.01479 -1.04835,-1.01479 z m -147.290742,0.0998 c -0.698217,0 -1.048348,0.34089 -1.048348,1.01972 0,0.67915 0.350131,1.01972 1.048348,1.01972 0.69822,0 1.048352,-0.34089 1.048352,-1.01972 0,-0.67916 -0.350132,-1.01972 -1.048352,-1.01972 z m 187.194552,0.30805 c -0.6982,0 -1.04835,0.33563 -1.04835,1.01479 0,0.67909 0.35016,1.01972 1.04835,1.01972 0.69822,0 1.04324,-0.34089 1.04324,-1.01972 0,-0.67916 -0.34503,-1.01479 -1.04324,-1.01479 z m -183.425603,0.6069 c -0.698217,0 -1.043235,0.3409 -1.043235,1.01972 0,0.6791 0.345018,1.01973 1.043235,1.01973 0.69822,0 1.048352,-0.3409 1.048352,-1.01973 0,-0.67915 -0.350132,-1.01972 -1.048352,-1.01972 z m 3.876342,0.92022 c -0.698219,0 -1.048352,0.34089 -1.048352,1.01972 0,0.67916 0.350132,1.01473 1.048352,1.01473 0.69822,0 1.048352,-0.33564 1.048352,-1.01473 0,-0.67916 -0.350132,-1.01972 -1.048352,-1.01972 z m 75.327841,0.30345 c -0.69821,0 -1.04323,0.34089 -1.04323,1.01972 0,0.67909 0.34503,1.01972 1.04323,1.01972 0.69822,0 1.04836,-0.34089 1.04836,-1.01972 0,-0.67916 -0.35016,-1.01972 -1.04836,-1.01972 z m 4.29568,0 c -0.69822,0 -1.04834,0.34089 -1.04834,1.01972 0,0.67909 0.35015,1.01972 1.04834,1.01972 0.69822,0 1.04836,-0.34089 1.04836,-1.01972 0,-0.67916 -0.35016,-1.01972 -1.04836,-1.01972 z m 4.29568,0 c -0.69821,0 -1.04834,0.34089 -1.04834,1.01972 0,0.67909 0.35015,1.01972 1.04834,1.01972 0.69823,0 1.04836,-0.34089 1.04836,-1.01972 0,-0.67916 -0.35016,-1.01972 -1.04836,-1.01972 z m 4.60764,0 c -0.69822,0 -1.04835,0.34089 -1.04835,1.01972 0,0.67909 0.35015,1.01972 1.04835,1.01972 0.69822,0 1.04835,-0.34089 1.04835,-1.01972 0,-0.67916 -0.35015,-1.01972 -1.04835,-1.01972 z m 4.71502,0 c -0.69822,0 -1.04835,0.34089 -1.04835,1.01972 0,0.67909 0.35016,1.01972 1.04835,1.01972 0.69822,0 1.04324,-0.34089 1.04324,-1.01972 0,-0.67916 -0.34503,-1.01972 -1.04324,-1.01972 z m 4.8173,0 c -0.69822,0 -1.04835,0.34089 -1.04835,1.01972 0,0.67909 0.35015,1.01972 1.04835,1.01972 0.69822,0 1.04324,-0.34089 1.04324,-1.01972 0,-0.67916 -0.34503,-1.01972 -1.04324,-1.01972 z m 4.50024,0 c -0.69822,0 -1.04836,0.34089 -1.04836,1.01972 0,0.67909 0.35016,1.01972 1.04836,1.01972 0.69822,0 1.04835,-0.34089 1.04835,-1.01972 0,-0.67916 -0.35015,-1.01972 -1.04835,-1.01972 z m 4.39796,0 c -0.69822,0 -1.04324,0.34089 -1.04324,1.01972 0,0.67909 0.34503,1.01972 1.04324,1.01972 0.69822,0 1.04835,-0.34089 1.04835,-1.01972 0,-0.67916 -0.35015,-1.01972 -1.04835,-1.01972 z m 4.1934,0 c -0.69822,0 -1.04835,0.34089 -1.04835,1.01972 0,0.67909 0.35015,1.01972 1.04835,1.01972 0.69822,0 1.04324,-0.34089 1.04324,-1.01972 0,-0.67916 -0.34503,-1.01972 -1.04324,-1.01972 z m 4.29057,0 c -0.69822,0 -1.04324,0.34089 -1.04324,1.01972 0,0.67909 0.34503,1.01972 1.04324,1.01972 0.69822,0 1.04835,-0.34089 1.04835,-1.01972 0,-0.67916 -0.35015,-1.01972 -1.04835,-1.01972 z m 4.71502,0 c -0.69822,0 -1.04835,0.34089 -1.04835,1.01972 0,0.67909 0.35015,1.01972 1.04835,1.01972 0.69822,0 1.04836,-0.34089 1.04836,-1.01972 0,-0.67916 -0.35016,-1.01972 -1.04836,-1.01972 z m 4.08601,0 c -0.69822,0 -1.04835,0.34089 -1.04835,1.01972 0,0.67909 0.35016,1.01972 1.04835,1.01972 0.69823,0 1.04324,-0.34089 1.04324,-1.01972 0,-0.67916 -0.34503,-1.01972 -1.04324,-1.01972 z m -120.366019,0.61216 c -0.69822,0 -1.048352,0.34089 -1.048352,1.01972 0,0.67909 0.350132,1.01966 1.048352,1.01966 0.698219,0 1.048349,-0.34089 1.048349,-1.01966 0,-0.67916 -0.350128,-1.01972 -1.048349,-1.01972 z m 50.786206,0.30805 c -0.698217,0 -1.048349,0.33564 -1.048349,1.01473 0,0.67916 0.350134,1.01972 1.048349,1.01972 0.69822,0 1.048352,-0.34089 1.048352,-1.01972 0,-0.67916 -0.350134,-1.01473 -1.048352,-1.01473 z m 146.196353,0 c -0.6982,0 -1.04322,0.33564 -1.04322,1.01473 0,0.67916 0.34504,1.01972 1.04322,1.01972 0.69823,0 1.04835,-0.34089 1.04835,-1.01972 0,-0.67916 -0.35015,-1.01473 -1.04835,-1.01473 z m -193.21361,0.81079 c -0.69822,0 -1.048352,0.34089 -1.048352,1.01972 0,0.67916 0.350134,1.01972 1.048352,1.01972 0.698219,0 1.048352,-0.34089 1.048352,-1.01972 0,-0.67916 -0.350134,-1.01972 -1.048352,-1.01972 z m 26.244568,0.20365 c -0.698215,0 -1.04835,0.3409 -1.04835,1.01973 0,0.67915 0.350134,1.01972 1.04835,1.01972 0.698219,0 1.048351,-0.3409 1.048351,-1.01972 0,-0.67916 -0.350134,-1.01973 -1.048351,-1.01973 z m 105.755592,0 c -0.69822,0 -1.04835,0.3409 -1.04835,1.01973 0,0.67915 0.35015,1.01972 1.04835,1.01972 0.69822,0 1.04835,-0.3409 1.04835,-1.01972 0,-0.67916 -0.35015,-1.01973 -1.04835,-1.01973 z m 39.90381,0 c -0.6982,0 -1.04835,0.3409 -1.04835,1.01973 0,0.67915 0.35016,1.01972 1.04835,1.01972 0.69822,0 1.04324,-0.3409 1.04324,-1.01972 0,-0.67916 -0.34503,-1.01973 -1.04324,-1.01973 z m -168.237298,1.22367 c -0.69822,0 -1.048352,0.34089 -1.048352,1.01972 0,0.67916 0.350134,1.01972 1.048352,1.01972 0.698217,0 1.048349,-0.34089 1.048349,-1.01972 0,-0.67916 -0.350134,-1.01972 -1.048349,-1.01972 z m 64.435218,0.81578 c -0.69822,0 -1.04323,0.34089 -1.04323,1.01972 0,0.67916 0.34503,1.01972 1.04323,1.01972 0.69822,0 1.04835,-0.34089 1.04835,-1.01972 0,-0.67916 -0.35015,-1.01972 -1.04835,-1.01972 z m -21.084633,1.01972 c -0.698217,0 -1.048349,0.34089 -1.048349,1.01972 0,0.67916 0.350134,1.01473 1.048349,1.01473 0.69822,0 1.048352,-0.33564 1.048352,-1.01473 0,-0.67916 -0.350134,-1.01972 -1.048352,-1.01972 z m 146.196353,0 c -0.6982,0 -1.04322,0.34089 -1.04322,1.01972 0,0.67916 0.34504,1.01473 1.04322,1.01473 0.69823,0 1.04835,-0.33564 1.04835,-1.01473 0,-0.67916 -0.35015,-1.01972 -1.04835,-1.01972 z m -186.089938,0.40789 c -0.69822,0 -1.04835,0.33564 -1.04835,1.01473 0,0.67916 0.350128,1.01972 1.04835,1.01972 0.698219,0 1.048351,-0.34089 1.048351,-1.01972 0,-0.67909 -0.350134,-1.01473 -1.048351,-1.01473 z m 19.120896,0.6115 c -0.698215,0 -1.04835,0.33564 -1.04835,1.01473 0,0.67916 0.350134,1.01972 1.04835,1.01972 0.698219,0 1.048351,-0.34089 1.048351,-1.01972 0,-0.67909 -0.350134,-1.01473 -1.048351,-1.01473 z m 105.755592,0 c -0.69822,0 -1.04835,0.33564 -1.04835,1.01473 0,0.67916 0.35015,1.01972 1.04835,1.01972 0.69822,0 1.04835,-0.34089 1.04835,-1.01972 0,-0.67909 -0.35015,-1.01473 -1.04835,-1.01473 z m 39.90381,0 c -0.6982,0 -1.04835,0.33564 -1.04835,1.01473 0,0.67916 0.35016,1.01972 1.04835,1.01972 0.69822,0 1.04324,-0.34089 1.04324,-1.01972 0,-0.67909 -0.34503,-1.01473 -1.04324,-1.01473 z m -102.9634,1.73107 c -0.69822,0 -1.04835,0.33563 -1.04835,1.01473 0,0.67915 0.35015,1.01972 1.04835,1.01972 0.69822,0 1.04836,-0.34089 1.04836,-1.01972 0,-0.67916 -0.35016,-1.01473 -1.04836,-1.01473 z m -59.515641,1.01473 c -0.698217,0 -1.043236,0.34089 -1.043236,1.01972 0,0.67916 0.345018,1.01972 1.043236,1.01972 0.69822,0 1.048352,-0.34089 1.048352,-1.01972 0,-0.67916 -0.350134,-1.01972 -1.048352,-1.01972 z m 37.592328,0.30805 c -0.698217,0 -1.048349,0.34089 -1.048349,1.01972 0,0.67916 0.350134,1.01972 1.048349,1.01972 0.69822,0 1.048352,-0.34089 1.048352,-1.01972 0,-0.67909 -0.350134,-1.01972 -1.048352,-1.01972 z m 146.196353,0 c -0.6982,0 -1.04322,0.34089 -1.04322,1.01972 0,0.67916 0.34504,1.01972 1.04322,1.01972 0.69823,0 1.04835,-0.34089 1.04835,-1.01972 0,-0.67909 -0.35015,-1.01972 -1.04835,-1.01972 z m -166.969042,1.01972 c -0.698215,0 -1.04835,0.34089 -1.04835,1.01972 0,0.67916 0.350134,1.0148 1.04835,1.0148 0.698219,0 1.048351,-0.33564 1.048351,-1.0148 0,-0.67909 -0.350134,-1.01972 -1.048351,-1.01972 z m 105.755592,0 c -0.69822,0 -1.04835,0.34089 -1.04835,1.01972 0,0.67916 0.35015,1.0148 1.04835,1.0148 0.69822,0 1.04835,-0.33564 1.04835,-1.0148 0,-0.67909 -0.35015,-1.01972 -1.04835,-1.01972 z m 39.90381,0 c -0.6982,0 -1.04835,0.34089 -1.04835,1.01972 0,0.67916 0.35016,1.0148 1.04835,1.0148 0.69822,0 1.04324,-0.33564 1.04324,-1.0148 0,-0.67909 -0.34503,-1.01972 -1.04324,-1.01972 z m -101.39343,1.42268 c -0.69821,0 -1.04323,0.3409 -1.04323,1.01972 0,0.67916 0.34503,1.01973 1.04323,1.01973 0.69822,0 1.04836,-0.3409 1.04836,-1.01973 0,-0.67915 -0.35016,-1.01972 -1.04836,-1.01972 z m -60.558879,1.53205 c -0.698216,0 -1.048348,0.33564 -1.048348,1.01473 0,0.67916 0.350134,1.01972 1.048348,1.01972 0.69822,0 1.048353,-0.34089 1.048353,-1.01972 0,-0.67916 -0.350134,-1.01473 -1.048353,-1.01473 z m 37.065596,0.0998 c -0.698217,0 -1.048349,0.34089 -1.048349,1.01972 0,0.67909 0.350134,1.01972 1.048349,1.01972 0.69822,0 1.048352,-0.34089 1.048352,-1.01972 0,-0.67916 -0.350134,-1.01972 -1.048352,-1.01972 z m 146.196353,0 c -0.6982,0 -1.04322,0.34089 -1.04322,1.01972 0,0.67909 0.34504,1.01972 1.04322,1.01972 0.69823,0 1.04835,-0.34089 1.04835,-1.01972 0,-0.67916 -0.35015,-1.01972 -1.04835,-1.01972 z m -166.969042,0.81581 c -0.698215,0 -1.04835,0.34024 -1.04835,1.01973 0,0.67909 0.350134,1.01972 1.04835,1.01972 0.698219,0 1.048351,-0.3409 1.048351,-1.01972 0,-0.67916 -0.350134,-1.01973 -1.048351,-1.01973 z m 105.755592,0 c -0.69822,0 -1.04835,0.34024 -1.04835,1.01973 0,0.67909 0.35015,1.01972 1.04835,1.01972 0.69822,0 1.04835,-0.3409 1.04835,-1.01972 0,-0.67916 -0.35015,-1.01973 -1.04835,-1.01973 z m 39.90381,0 c -0.6982,0 -1.04835,0.34024 -1.04835,1.01973 0,0.67909 0.35016,1.01972 1.04835,1.01972 0.69822,0 1.04324,-0.3409 1.04324,-1.01972 0,-0.67916 -0.34503,-1.01973 -1.04324,-1.01973 z m -99.18934,1.11917 c -0.69821,0 -1.04834,0.34089 -1.04834,1.01972 0,0.67916 0.35015,1.01972 1.04834,1.01972 0.69823,0 1.04325,-0.34089 1.04325,-1.01972 0,-0.67916 -0.34503,-1.01972 -1.04325,-1.01972 z m 39.27482,0.51232 c -0.69822,0 -1.04836,0.33564 -1.04836,1.01473 0,0.67916 0.35016,1.01972 1.04836,1.01972 0.69821,0 1.04323,-0.34089 1.04323,-1.01972 0,-0.67915 -0.34503,-1.01473 -1.04323,-1.01473 z m -102.876468,1.52706 c -0.69822,0 -1.048352,0.34089 -1.048352,1.01972 0,0.67916 0.350134,1.01473 1.048352,1.01473 0.698217,0 1.048349,-0.33564 1.048349,-1.01473 0,-0.67916 -0.350134,-1.01972 -1.048349,-1.01972 z m 37.904275,0.0998 c -0.698217,0 -1.048349,0.3409 -1.048349,1.01973 0,0.67915 0.350134,1.01972 1.048349,1.01972 0.69822,0 1.048352,-0.34089 1.048352,-1.01972 0,-0.67916 -0.350134,-1.01973 -1.048352,-1.01973 z m 146.196353,0 c -0.6982,0 -1.04322,0.3409 -1.04322,1.01973 0,0.67915 0.34504,1.01972 1.04322,1.01972 0.69823,0 1.04835,-0.34089 1.04835,-1.01972 0,-0.67916 -0.35015,-1.01973 -1.04835,-1.01973 z m -166.969042,1.01976 c -0.698215,0 -1.04835,0.34089 -1.04835,1.01972 0,0.67916 0.350134,1.01972 1.04835,1.01972 0.698219,0 1.048351,-0.34089 1.048351,-1.01972 0,-0.67916 -0.350134,-1.01972 -1.048351,-1.01972 z m 105.755592,0 c -0.69822,0 -1.04835,0.34089 -1.04835,1.01972 0,0.67916 0.35015,1.01972 1.04835,1.01972 0.69822,0 1.04835,-0.34089 1.04835,-1.01972 0,-0.67916 -0.35015,-1.01972 -1.04835,-1.01972 z m 39.90381,0 c -0.6982,0 -1.04835,0.34089 -1.04835,1.01972 0,0.67916 0.35016,1.01972 1.04835,1.01972 0.69822,0 1.04324,-0.34089 1.04324,-1.01972 0,-0.67916 -0.34503,-1.01972 -1.04324,-1.01972 z m -200.178759,0.3087 c -0.6982202,0 -1.0483522,0.33564 -1.0483522,1.01473 0,0.67916 0.350134,1.01973 1.0483522,1.01973 0.698219,0 1.043235,-0.3409 1.043235,-1.01973 0,-0.67915 -0.345017,-1.01473 -1.043235,-1.01473 z m 103.919699,0 c -0.69822,0 -1.04835,0.33564 -1.04835,1.01473 0,0.67916 0.35015,1.01973 1.04835,1.01973 0.69822,0 1.04835,-0.3409 1.04835,-1.01973 0,-0.67915 -0.35016,-1.01473 -1.04835,-1.01473 z m 33.40915,0.50707 c -0.69822,0 -1.04835,0.3409 -1.04835,1.01973 0,0.67915 0.35016,1.01972 1.04835,1.01972 0.69822,0 1.04835,-0.3409 1.04835,-1.01972 0,-0.67916 -0.35015,-1.01973 -1.04835,-1.01973 z m -102.349728,1.42761 c -0.698219,0 -1.048352,0.33564 -1.048352,1.01473 0,0.67916 0.350134,1.01973 1.048352,1.01973 0.698219,0 1.048351,-0.3409 1.048349,-1.01973 0,-0.67915 -0.350128,-1.01473 -1.048349,-1.01473 z m -31.941461,0.61151 c -0.69822,0 -1.048352,0.33564 -1.048352,1.01473 0,0.67916 0.350134,1.01972 1.048352,1.01972 0.698219,0 1.043238,-0.34089 1.043238,-1.01972 0,-0.67916 -0.345017,-1.01473 -1.043238,-1.01473 z m 72.883398,0 c -0.69822,0 -1.048352,0.33564 -1.048352,1.01473 0,0.67916 0.350134,1.01972 1.048352,1.01972 0.698217,0 1.048349,-0.34089 1.048349,-1.01972 0,-0.67916 -0.350134,-1.01473 -1.048349,-1.01473 z m 146.196371,0 c -0.69823,0 -1.04835,0.33564 -1.04835,1.01473 0,0.67916 0.35015,1.01972 1.04835,1.01972 0.6982,0 1.04835,-0.34089 1.04835,-1.01972 0,-0.67916 -0.35016,-1.01473 -1.04835,-1.01473 z m -114.84812,0.30345 c -0.69822,0 -1.04324,0.34089 -1.04324,1.01972 0,0.67916 0.34503,1.01973 1.04324,1.01973 0.69822,0 1.04835,-0.3409 1.04835,-1.01973 0,-0.67915 -0.35015,-1.01972 -1.04835,-1.01972 z m -52.749952,0.50773 c -0.698215,0 -1.04835,0.34089 -1.04835,1.01972 0,0.67916 0.350134,1.01972 1.04835,1.01972 0.698219,0 1.048351,-0.34089 1.048351,-1.01972 0,-0.67916 -0.350134,-1.01972 -1.048351,-1.01972 z m 79.459882,0 c -0.69822,0 -1.04835,0.34089 -1.04835,1.01972 0,0.67916 0.35015,1.01972 1.04835,1.01972 0.69822,0 1.04835,-0.34089 1.04835,-1.01972 0,-0.67916 -0.35015,-1.01972 -1.04835,-1.01972 z m 26.29571,0 c -0.69822,0 -1.04835,0.34089 -1.04835,1.01972 0,0.67916 0.35015,1.01972 1.04835,1.01972 0.69822,0 1.04835,-0.34089 1.04835,-1.01972 0,-0.67916 -0.35015,-1.01972 -1.04835,-1.01972 z m 39.90381,0 c -0.6982,0 -1.04835,0.34089 -1.04835,1.01972 0,0.67916 0.35016,1.01972 1.04835,1.01972 0.69822,0 1.04324,-0.34089 1.04324,-1.01972 0,-0.67916 -0.34503,-1.01972 -1.04324,-1.01972 z m 38.59466,1.12416 c -0.69822,0 -1.04834,0.33563 -1.04834,1.01479 0,0.67909 0.35009,1.01972 1.04834,1.01972 0.69821,0 1.04322,-0.34089 1.04322,-1.01972 0,-0.67916 -0.34503,-1.01479 -1.04322,-1.01479 z m -207.041628,0.0998 c -0.69822,0 -1.048352,0.3409 -1.048352,1.01972 0,0.67916 0.350134,1.01973 1.048352,1.01973 0.698215,0 1.048349,-0.3409 1.048349,-1.01973 0,-0.67915 -0.350134,-1.01972 -1.048349,-1.01972 z m -25.134852,0.10444 c -0.698219,0 -1.04835,0.33564 -1.04835,1.01479 0,0.67916 0.350128,1.01973 1.04835,1.01973 0.698219,0 1.048351,-0.3409 1.048351,-1.01973 0,-0.67915 -0.350134,-1.01479 -1.048351,-1.01479 z m 104.75838,0.50775 c -0.69822,0 -1.04835,0.3409 -1.04835,1.01973 0,0.67915 0.35015,1.01972 1.04835,1.01972 0.69822,0 1.04835,-0.34089 1.04835,-1.01972 0,-0.67916 -0.35015,-1.01973 -1.04835,-1.01973 z m -33.127889,0.30346 c -0.698221,0 -1.048353,0.34089 -1.048353,1.01972 0,0.67916 0.350134,1.01972 1.048353,1.01972 0.69822,0 1.04323,-0.34089 1.04324,-1.01972 -1e-5,-0.67916 -0.34502,-1.01972 -1.04324,-1.01972 z m 51.768079,0 c -0.69822,0 -1.04324,0.34089 -1.04324,1.01972 0,0.67916 0.34503,1.01972 1.04324,1.01972 0.69822,0 1.04835,-0.34089 1.04835,-1.01972 0,-0.67916 -0.35015,-1.01972 -1.04835,-1.01972 z m 94.42829,0 c -0.69822,0 -1.04835,0.34089 -1.04835,1.01972 0,0.67916 0.35016,1.01972 1.04835,1.01972 0.6982,0 1.04835,-0.34089 1.04835,-1.01972 0,-0.67916 -0.35016,-1.01972 -1.04835,-1.01972 z m -135.411139,0.40789 c -0.69822,0 -1.04835,0.34089 -1.04835,1.01972 0,0.67916 0.35015,1.01972 1.04835,1.01972 0.698209,0 1.048349,-0.34089 1.048349,-1.01972 0,-0.67916 -0.35016,-1.01972 -1.048349,-1.01972 z m 146.406039,0 c -0.69822,0 -1.04835,0.34089 -1.04835,1.01972 0,0.67916 0.35009,1.01972 1.04835,1.01972 0.69821,0 1.04835,-0.34089 1.04835,-1.01972 0,-0.67916 -0.35015,-1.01972 -1.04835,-1.01972 z m -207.24619,0.20361 c -0.698214,0 -1.048349,0.34089 -1.048349,1.01972 0,0.67916 0.350134,1.01973 1.048349,1.01973 0.69822,0 1.048352,-0.3409 1.048352,-1.01973 0,-0.67915 -0.350134,-1.01972 -1.048352,-1.01972 z m -17.699228,0.10444 c -0.69822,0 -1.048352,0.34089 -1.048352,1.01972 0,0.67916 0.350134,1.0148 1.048352,1.0148 0.698219,0 1.043235,-0.33564 1.043235,-1.0148 0,-0.67916 -0.345017,-1.01972 -1.043235,-1.01972 z m 104.968048,0.50707 c -0.69822,0 -1.04835,0.34089 -1.04835,1.01972 0,0.67916 0.35015,1.01972 1.04835,1.01972 0.69822,0 1.04835,-0.34089 1.04835,-1.01972 0,-0.67916 -0.35015,-1.01972 -1.04835,-1.01972 z m -29.987949,0.10443 c -0.69822,0 -1.04835,0.34089 -1.04835,1.01972 0,0.67916 0.35015,1.01473 1.04835,1.01473 0.69821,0 1.04835,-0.33563 1.04835,-1.01473 0,-0.67915 -0.35015,-1.01972 -1.04835,-1.01972 z m 142.529689,0 c -0.6982,0 -1.04835,0.34089 -1.04835,1.01972 0,0.67916 0.35015,1.01473 1.04835,1.01473 0.69822,0 1.04834,-0.33563 1.04834,-1.01473 0,-0.67915 -0.35015,-1.01972 -1.04834,-1.01972 z m 3.76897,0 c -0.69823,0 -1.04325,0.34089 -1.04325,1.01972 0,0.67916 0.34503,1.01473 1.04325,1.01473 0.6982,0 1.04834,-0.33563 1.04834,-1.01473 0,-0.67915 -0.35015,-1.01972 -1.04834,-1.01972 z m -177.232682,0.0992 c -0.698215,0 -1.04835,0.3409 -1.04835,1.01972 0,0.67916 0.350134,1.01973 1.04835,1.01973 0.698219,0 1.048351,-0.3409 1.048351,-1.01973 0,-0.67915 -0.350134,-1.01972 -1.048351,-1.01972 z m 70.868522,0 c -0.69822,0 -1.04324,0.3409 -1.04324,1.01972 0,0.67916 0.34503,1.01973 1.04324,1.01973 0.69822,0 1.04835,-0.3409 1.04835,-1.01973 0,-0.67915 -0.35015,-1.01972 -1.04835,-1.01972 z m 34.88707,0 c -0.69822,0 -1.04835,0.3409 -1.04835,1.01972 0,0.67916 0.35015,1.01973 1.04835,1.01973 0.69822,0 1.04835,-0.3409 1.04835,-1.01973 0,-0.67915 -0.35015,-1.01972 -1.04835,-1.01972 z m 39.90381,0 c -0.6982,0 -1.04835,0.3409 -1.04835,1.01972 0,0.67916 0.35016,1.01973 1.04835,1.01973 0.69822,0 1.04324,-0.3409 1.04324,-1.01973 0,-0.67915 -0.34503,-1.01972 -1.04324,-1.01972 z m -118.601719,0.10444 c -0.69822,0 -1.04835,0.33564 -1.04835,1.01473 0,0.67916 0.35013,1.01972 1.04835,1.01972 0.69822,0 1.04835,-0.34089 1.04835,-1.01972 0,-0.67909 -0.35013,-1.01473 -1.04835,-1.01473 z m -66.705801,0.20361 c -0.698217,0 -1.04835,0.33564 -1.04835,1.0148 0,0.67909 0.350132,1.01972 1.04835,1.01972 0.698219,0 1.048351,-0.34089 1.048351,-1.01972 0,-0.67916 -0.350132,-1.0148 -1.048351,-1.0148 z m 9.215261,0 c -0.698219,0 -1.048351,0.33564 -1.048351,1.0148 0,0.67909 0.350132,1.01972 1.048351,1.01972 0.698217,0 1.04835,-0.34089 1.04835,-1.01972 0,-0.67916 -0.350132,-1.0148 -1.04835,-1.0148 z m 96.381799,0.20362 c -0.69821,0 -1.04835,0.33564 -1.04835,1.0148 0,0.67915 0.35016,1.01972 1.04835,1.01972 0.69822,0 1.04835,-0.34089 1.04835,-1.01972 0,-0.67916 -0.35015,-1.0148 -1.04835,-1.0148 z m -100.887153,0.0998 c -0.698214,0 -1.043235,0.34089 -1.043235,1.01972 0,0.67916 0.345021,1.01972 1.043235,1.01972 0.69822,0 1.048352,-0.34089 1.048352,-1.01972 0,-0.67916 -0.350132,-1.01972 -1.048352,-1.01972 z"
       inkscape:connector-curvature="0" />
    <path
       id="text16"
       style="font-style:normal;font-variant:normal;font-weight:normal;font-stretch:condensed;font-size:10.58333302px;line-height:1.25;font-family:Bahnschrift;-inkscape-font-specification:'Bahnschrift, Condensed';font-variant-ligatures:normal;font-variant-caps:normal;font-variant-numeric:normal;font-feature-settings:normal;text-align:center;letter-spacing:0px;word-spacing:0px;writing-mode:lr-tb;text-anchor:middle;fill:#e3e2db;fill-opacity:1;stroke:none;stroke-width:2.58232045"
       d="m 48.062202,163.33629 c -0.698219,0 -1.048351,0.34089 -1.048351,1.01972 0,0.67916 0.350134,1.01972 1.048351,1.01972 0.698217,0 1.043236,-0.34089 1.043236,-1.01972 0,-0.67916 -0.345018,-1.01972 -1.043236,-1.01972 z m 0,3.7705 c -0.698219,0 -1.048351,0.3409 -1.048351,1.01973 0,0.67909 0.350134,1.01473 1.048351,1.01473 0.698217,0 1.043236,-0.33564 1.043236,-1.01473 0,-0.67916 -0.345018,-1.01973 -1.043236,-1.01973 z m 0,3.86995 c -0.698219,0 -1.048351,0.3409 -1.048351,1.01973 0,0.67915 0.350134,1.01972 1.048351,1.01972 0.698217,0 1.043236,-0.34089 1.043236,-1.01972 0,-0.67916 -0.345018,-1.01973 -1.043236,-1.01973 z m 0,3.66601 c -0.698219,0 -1.048351,0.34089 -1.048351,1.01972 0,0.67916 0.350134,1.01972 1.048351,1.01972 0.698217,0 1.043236,-0.34089 1.043236,-1.01972 0,-0.67915 -0.345018,-1.01972 -1.043236,-1.01972 z m 0,4.07889 c -0.698219,0 -1.048351,0.33564 -1.048351,1.01473 0,0.67916 0.350134,1.01972 1.048351,1.01972 0.698217,0 1.043236,-0.34089 1.043236,-1.01972 0,-0.67916 -0.345018,-1.01473 -1.043236,-1.01473 z m 0,3.96946 c -0.698219,0 -1.048351,0.34089 -1.048351,1.01972 0,0.67916 0.350134,1.01972 1.048351,1.01972 0.698217,0 1.043236,-0.34089 1.043236,-1.01972 0,-0.67916 -0.345018,-1.01972 -1.043236,-1.01972 z m 178.792408,1.52705 c -0.69823,0 -1.04835,0.34089 -1.04835,1.01972 0,0.67916 0.35008,1.01973 1.04835,1.01973 0.69822,0 1.04324,-0.3409 1.04324,-1.01973 0,-0.67909 -0.34503,-1.01972 -1.04324,-1.01972 z m -53.84433,0.10444 c -0.69821,0 -1.04835,0.34089 -1.04835,1.01972 0,0.67916 0.35016,1.01972 1.04835,1.01972 0.69822,0 1.04836,-0.34089 1.04836,-1.01972 0,-0.67916 -0.35016,-1.01972 -1.04836,-1.01972 z m 58.2423,0 c -0.69824,0 -1.04836,0.34089 -1.04836,1.01972 0,0.67916 0.35016,1.01972 1.04836,1.01972 0.69819,0 1.04834,-0.34089 1.04834,-1.01972 0,-0.67916 -0.35015,-1.01972 -1.04834,-1.01972 z m -113.05315,0.0998 c -0.69821,0 -1.04835,0.3409 -1.04835,1.01973 0,0.67909 0.35016,1.01972 1.04835,1.01972 0.69822,0 1.04836,-0.34089 1.04836,-1.01972 0,-0.67916 -0.35016,-1.01973 -1.04836,-1.01973 z m -45.912652,0.30806 c -0.69822,0 -1.048353,0.34089 -1.048353,1.01972 0,0.67916 0.350134,1.01473 1.048353,1.01473 0.698219,0 1.048352,-0.33564 1.048352,-1.01473 -3e-6,-0.67916 -0.350134,-1.01972 -1.048352,-1.01972 z m 20.251073,0 c -0.69822,0 -1.04835,0.34089 -1.04835,1.01972 0,0.67916 0.35013,1.01473 1.04835,1.01473 0.69822,0 1.04835,-0.33564 1.04835,-1.01473 0,-0.67916 -0.35013,-1.01972 -1.04835,-1.01972 z m 20.946559,0.0992 c -0.69822,0 -1.04835,0.34089 -1.04835,1.01972 0,0.67916 0.35015,1.01972 1.04835,1.01972 0.69822,0 1.04835,-0.34089 1.04835,-1.01972 0,-0.67909 -0.35016,-1.01972 -1.04835,-1.01972 z m 108.96712,0.10443 c -0.69822,0 -1.04324,0.34089 -1.04324,1.01972 0,0.67916 0.34503,1.01473 1.04324,1.01473 0.69823,0 1.04836,-0.33563 1.04836,-1.01473 0,-0.67915 -0.35016,-1.01972 -1.04836,-1.01972 z m -54.36082,0.0998 c -0.69822,0 -1.04836,0.34089 -1.04836,1.01972 0,0.67909 0.35016,1.01966 1.04836,1.01966 0.69822,0 1.04323,-0.3409 1.04323,-1.01966 0,-0.67916 -0.34503,-1.01972 -1.04323,-1.01972 z m 9.73688,0 c -0.69823,0 -1.04324,0.34089 -1.04324,1.01972 0,0.67909 0.34503,1.01966 1.04324,1.01966 0.69821,0 1.04834,-0.3409 1.04834,-1.01966 0,-0.67916 -0.35015,-1.01972 -1.04834,-1.01972 z m 57.4036,0 c -0.69823,0 -1.04835,0.34089 -1.04835,1.01972 0,0.67909 0.35009,1.01966 1.04835,1.01966 0.69823,0 1.04835,-0.3409 1.04835,-1.01966 0,-0.67916 -0.35009,-1.01972 -1.04835,-1.01972 z m -112.53152,0.30871 c -0.69822,0 -1.04324,0.34089 -1.04324,1.01972 0,0.67916 0.34503,1.01473 1.04324,1.01473 0.69822,0 1.04835,-0.33564 1.04835,-1.01473 0,-0.67916 -0.35015,-1.01972 -1.04835,-1.01972 z m -13.7155,1.01972 c -0.69822,0 -1.04835,0.33564 -1.04835,1.01473 0,0.67916 0.35015,1.01972 1.04835,1.01972 0.69822,0 1.04323,-0.34089 1.04323,-1.01972 0,-0.67916 -0.34503,-1.01473 -1.04323,-1.01473 z m 54.91313,0 c -0.69822,0 -1.04323,0.33564 -1.04323,1.01473 0,0.67916 0.34503,1.01972 1.04323,1.01972 0.69822,0 1.04835,-0.34089 1.04835,-1.01972 0,-0.67916 -0.35015,-1.01473 -1.04835,-1.01473 z m 18.12368,0 c -0.6982,0 -1.04835,0.33564 -1.04835,1.01473 0,0.67916 0.35015,1.01972 1.04835,1.01972 0.69823,0 1.04324,-0.34089 1.04324,-1.01972 0,-0.67916 -0.34503,-1.01473 -1.04324,-1.01473 z m 36.24226,0 c -0.69822,0 -1.04835,0.33564 -1.04835,1.01473 0,0.67916 0.35016,1.01972 1.04835,1.01972 0.69823,0 1.04835,-0.34089 1.04835,-1.01972 0,-0.67916 -0.35015,-1.01473 -1.04835,-1.01473 z m 20.52722,0 c -0.69821,0 -1.04836,0.33564 -1.04836,1.01473 0,0.67916 0.35016,1.01972 1.04836,1.01972 0.69822,0 1.04834,-0.34089 1.04834,-1.01972 0,-0.67916 -0.35008,-1.01473 -1.04834,-1.01473 z m -190.728258,0.71128 c -0.698219,0 -1.048351,0.34089 -1.048351,1.01972 0,0.67916 0.350134,1.01972 1.048351,1.01972 0.698217,0 1.043236,-0.34089 1.043236,-1.01972 0,-0.67909 -0.345018,-1.01972 -1.043236,-1.01972 z m 78.723478,0.6115 c -0.69822,0 -1.04835,0.34089 -1.04835,1.01972 0,0.67916 0.35015,1.0148 1.04835,1.0148 0.69822,0 1.04836,-0.33564 1.04836,-1.0148 0,-0.67909 -0.35016,-1.01972 -1.04836,-1.01972 z m 115.4618,0.30345 c -0.69823,0 -1.04835,0.3409 -1.04835,1.01973 0,0.67915 0.35015,1.01972 1.04835,1.01972 0.69819,0 1.04835,-0.3409 1.04835,-1.01972 0,-0.67916 -0.35016,-1.01973 -1.04835,-1.01973 z m -137.34932,0.20367 c -0.69822,0 -1.04835,0.34089 -1.04835,1.01972 0,0.67916 0.35015,1.01972 1.04835,1.01972 0.69822,0 1.04835,-0.34089 1.04835,-1.01972 0,-0.67916 -0.35016,-1.01972 -1.04835,-1.01972 z m -32.611382,0.30871 c -0.69822,0 -1.048353,0.33564 -1.048353,1.01473 0,0.67916 0.350134,1.01972 1.048353,1.01972 0.698219,0 1.048352,-0.34089 1.048352,-1.01972 -3e-6,-0.67916 -0.350134,-1.01473 -1.048352,-1.01473 z m 20.251073,0 c -0.69822,0 -1.04835,0.33564 -1.04835,1.01473 0,0.67916 0.35013,1.01972 1.04835,1.01972 0.69822,0 1.04835,-0.34089 1.04835,-1.01972 0,-0.67916 -0.35013,-1.01473 -1.04835,-1.01473 z m 122.268399,0 c -0.69823,0 -1.04325,0.33564 -1.04325,1.01473 0,0.67916 0.34503,1.01972 1.04325,1.01972 0.6982,0 1.04835,-0.34089 1.04835,-1.01972 0,-0.67916 -0.35015,-1.01473 -1.04835,-1.01473 z m -54.98984,0.20361 c -0.69822,0 -1.04836,0.33564 -1.04836,1.01473 0,0.67916 0.35016,1.01973 1.04836,1.01973 0.69821,0 1.04835,-0.3409 1.04835,-1.01973 0,-0.67915 -0.35016,-1.01473 -1.04835,-1.01473 z m 26.28549,0 c -0.69824,0 -1.04836,0.33564 -1.04836,1.01473 0,0.67916 0.35016,1.01973 1.04836,1.01973 0.6982,0 1.04834,-0.3409 1.04834,-1.01973 0,-0.67915 -0.35015,-1.01473 -1.04834,-1.01473 z m 58.87127,1.731 c -0.6982,0 -1.04835,0.34089 -1.04835,1.01972 0,0.67916 0.35016,1.0148 1.04835,1.0148 0.69823,0 1.04325,-0.33564 1.04325,-1.0148 0,-0.67915 -0.34503,-1.01972 -1.04325,-1.01972 z m -115.88112,0.0998 c -0.69822,0 -1.04835,0.34089 -1.04835,1.01972 0,0.67916 0.35015,1.01972 1.04835,1.01972 0.69822,0 1.04836,-0.34089 1.04836,-1.01972 0,-0.67916 -0.35016,-1.01972 -1.04836,-1.01972 z m -27.75317,0.30805 c -0.69822,0 -1.04835,0.33564 -1.04835,1.01473 0,0.67916 0.35015,1.01972 1.04835,1.01972 0.69822,0 1.04324,-0.34089 1.04324,-1.01972 0,-0.67916 -0.34503,-1.01473 -1.04324,-1.01473 z m -53.276678,0.30345 c -0.698219,0 -1.048351,0.3409 -1.048351,1.01973 0,0.67915 0.350134,1.01972 1.048351,1.01972 0.698217,0 1.043236,-0.3409 1.043236,-1.01972 0,-0.67916 -0.345018,-1.01973 -1.043236,-1.01973 z m 108.399478,0.40789 c -0.69822,0 -1.04323,0.3409 -1.04323,1.01972 0,0.67916 0.34503,1.01973 1.04323,1.01973 0.69822,0 1.04835,-0.3409 1.04835,-1.01973 0,-0.67915 -0.35015,-1.01972 -1.04835,-1.01972 z m 32.99493,0 c -0.69822,0 -1.04834,0.3409 -1.04834,1.01972 0,0.67916 0.35015,1.01973 1.04834,1.01973 0.69821,0 1.04322,-0.3409 1.04322,-1.01973 0,-0.67915 -0.34503,-1.01972 -1.04322,-1.01972 z m 22.8387,0.20362 c -0.6982,0 -1.04836,0.34089 -1.04836,1.01972 0,0.67916 0.35016,1.01972 1.04836,1.01972 0.69822,0 1.04834,-0.34089 1.04834,-1.01972 0,-0.67916 -0.35015,-1.01972 -1.04834,-1.01972 z m -140.008532,0.81578 c -0.69822,0 -1.048353,0.34089 -1.048353,1.01972 0,0.67916 0.350134,1.01473 1.048353,1.01473 0.698219,0 1.048352,-0.33564 1.048352,-1.01473 -3e-6,-0.67916 -0.350134,-1.01972 -1.048352,-1.01972 z m 20.251073,0 c -0.69822,0 -1.04835,0.34089 -1.04835,1.01972 0,0.67916 0.35013,1.01473 1.04835,1.01473 0.69822,0 1.04835,-0.33564 1.04835,-1.01473 0,-0.67916 -0.35013,-1.01972 -1.04835,-1.01972 z m 38.016779,1.42761 c -0.69822,0 -1.04323,0.33563 -1.04323,1.01473 0,0.67915 0.34503,1.01972 1.04323,1.01972 0.69822,0 1.04835,-0.34089 1.04835,-1.01972 0,-0.67916 -0.35015,-1.01473 -1.04835,-1.01473 z m -32.151129,0.0992 c -0.69822,0 -1.04835,0.34089 -1.04835,1.01972 0,0.67916 0.35015,1.01972 1.04835,1.01972 0.69822,0 1.04835,-0.34089 1.04835,-1.01972 0,-0.67916 -0.35015,-1.01972 -1.04835,-1.01972 z m 55.127909,0.91528 c -0.69822,0 -1.04834,0.3409 -1.04834,1.01973 0,0.67915 0.35015,1.01972 1.04834,1.01972 0.69822,0 1.04835,-0.3409 1.04835,-1.01972 0,-0.67916 -0.35015,-1.01973 -1.04835,-1.01973 z m 38.85547,0 c -0.69822,0 -1.04835,0.3409 -1.04835,1.01973 0,0.67915 0.35015,1.01972 1.04835,1.01972 0.6982,0 1.04835,-0.3409 1.04835,-1.01972 0,-0.67916 -0.35015,-1.01973 -1.04835,-1.01973 z m -144.324678,0.2043 c -0.698219,0 -1.048351,0.34089 -1.048351,1.01972 0,0.67916 0.350134,1.01972 1.048351,1.01972 0.698217,0 1.043236,-0.34089 1.043236,-1.01972 0,-0.67916 -0.345018,-1.01972 -1.043236,-1.01972 z m 162.765428,0.40789 c -0.69822,0 -1.04835,0.34089 -1.04835,1.01972 0,0.67915 0.35009,1.01972 1.04835,1.01972 0.69821,0 1.04835,-0.34089 1.04835,-1.01972 0,-0.67916 -0.35015,-1.01972 -1.04835,-1.01972 z m -138.540852,0.6115 c -0.69822,0 -1.048353,0.34089 -1.048353,1.01972 0,0.67916 0.350134,1.01972 1.048353,1.01972 0.698219,0 1.048352,-0.34089 1.048352,-1.01972 -3e-6,-0.67916 -0.350134,-1.01972 -1.048352,-1.01972 z m 20.251073,0 c -0.69822,0 -1.04835,0.34089 -1.04835,1.01972 0,0.67916 0.35013,1.01972 1.04835,1.01972 0.69822,0 1.04835,-0.34089 1.04835,-1.01972 0,-0.67916 -0.35013,-1.01972 -1.04835,-1.01972 z m 38.855459,1.32317 c -0.69821,0 -1.04324,0.3409 -1.04324,1.01973 0,0.67909 0.34503,1.01972 1.04324,1.01972 0.69822,0 1.04835,-0.34089 1.04835,-1.01972 0,-0.67916 -0.35015,-1.01973 -1.04835,-1.01973 z m -35.608129,0.10444 c -0.69822,0 -1.04835,0.34089 -1.04835,1.01972 0,0.67916 0.35015,1.01473 1.04835,1.01473 0.69822,0 1.04835,-0.33564 1.04835,-1.01473 0,-0.67916 -0.35015,-1.01972 -1.04835,-1.01972 z m 55.547249,0.91529 c -0.69822,0 -1.04835,0.34089 -1.04835,1.01972 0,0.67916 0.35015,1.01972 1.04835,1.01972 0.69822,0 1.04835,-0.34089 1.04835,-1.01972 0,-0.67916 -0.35015,-1.01972 -1.04835,-1.01972 z m 43.25342,0 c -0.69823,0 -1.04835,0.34089 -1.04835,1.01972 0,0.67916 0.35009,1.01972 1.04835,1.01972 0.69823,0 1.04835,-0.34089 1.04835,-1.01972 0,-0.67916 -0.35008,-1.01972 -1.04835,-1.01972 z m -146.523648,0.40894 c -0.698219,0 -1.048351,0.34089 -1.048351,1.01972 0,0.67916 0.350134,1.01972 1.048351,1.01972 0.698217,0 1.043236,-0.34089 1.043236,-1.01972 0,-0.67916 -0.345018,-1.01972 -1.043236,-1.01972 z m 162.663138,0.50707 c -0.6982,0 -1.04836,0.34089 -1.04836,1.01972 0,0.67916 0.35016,1.01972 1.04836,1.01972 0.69822,0 1.04324,-0.34089 1.04324,-1.01972 0,-0.67916 -0.34503,-1.01972 -1.04324,-1.01972 z m -138.438562,0.51232 c -0.69822,0 -1.048353,0.34089 -1.048353,1.01972 0,0.67916 0.350134,1.01473 1.048353,1.01473 0.698219,0 1.048352,-0.33564 1.048352,-1.01473 -3e-6,-0.67916 -0.350134,-1.01972 -1.048352,-1.01972 z m 20.251073,0 c -0.69822,0 -1.04835,0.34089 -1.04835,1.01972 0,0.67916 0.35013,1.01473 1.04835,1.01473 0.69822,0 1.04835,-0.33564 1.04835,-1.01473 0,-0.67916 -0.35013,-1.01972 -1.04835,-1.01972 z m 39.382189,1.32311 c -0.69822,0 -1.04834,0.34089 -1.04834,1.01972 0,0.67916 0.35015,1.01972 1.04834,1.01972 0.69822,0 1.04836,-0.34023 1.04836,-1.01972 0,-0.67916 -0.35016,-1.01972 -1.04836,-1.01972 z m 17.84243,1.01972 c -0.69822,0 -1.04836,0.34089 -1.04836,1.01972 0,0.67916 0.35016,1.01972 1.04836,1.01972 0.69821,0 1.04323,-0.34089 1.04323,-1.01972 0,-0.67915 -0.34503,-1.01972 -1.04323,-1.01972 z m 46.39335,0 c -0.69822,0 -1.04324,0.34089 -1.04324,1.01972 0,0.67916 0.34503,1.01972 1.04324,1.01972 0.69823,0 1.04835,-0.34089 1.04835,-1.01972 0,-0.67915 -0.35008,-1.01972 -1.04835,-1.01972 z m 15.61276,0.50707 c -0.69823,0 -1.04324,0.34089 -1.04324,1.01972 0,0.67916 0.34503,1.01972 1.04324,1.01972 0.69822,0 1.04835,-0.34089 1.04835,-1.01972 0,-0.67916 -0.35009,-1.01972 -1.04835,-1.01972 z m -163.706378,0.20362 c -0.698219,0 -1.048351,0.34089 -1.048351,1.01972 0,0.67916 0.350134,1.01972 1.048351,1.01972 0.698217,0 1.043236,-0.34089 1.043236,-1.01972 0,-0.67916 -0.345018,-1.01972 -1.043236,-1.01972 z m 24.224576,0.81577 c -0.69822,0 -1.048353,0.3409 -1.048353,1.01973 0,0.67915 0.350134,1.01972 1.048353,1.01972 0.698219,0 1.048352,-0.3409 1.048352,-1.01972 -3e-6,-0.67916 -0.350134,-1.01973 -1.048352,-1.01973 z m 20.251073,0 c -0.69822,0 -1.04835,0.3409 -1.04835,1.01973 0,0.67915 0.35013,1.01972 1.04835,1.01972 0.69822,0 1.04835,-0.3409 1.04835,-1.01972 0,-0.67916 -0.35013,-1.01973 -1.04835,-1.01973 z m 39.903809,1.32318 c -0.69821,0 -1.04835,0.34089 -1.04835,1.01972 0,0.67916 0.35016,1.01972 1.04835,1.01972 0.69822,0 1.04835,-0.34089 1.04835,-1.01972 0,-0.67916 -0.35015,-1.01972 -1.04835,-1.01972 z m 81.84297,0.20361 c -0.69823,0 -1.04835,0.3409 -1.04835,1.01973 0,0.67915 0.35015,1.01972 1.04835,1.01972 0.69822,0 1.04834,-0.34089 1.04834,-1.01972 0,-0.67916 -0.35008,-1.01973 -1.04834,-1.01973 z m -65.36084,0.71627 c -0.69823,0 -1.04836,0.33564 -1.04836,1.01473 0,0.67916 0.35016,1.01972 1.04836,1.01972 0.69822,0 1.04834,-0.34089 1.04834,-1.01972 0,-0.67915 -0.35015,-1.01473 -1.04834,-1.01473 z m 47.96844,0.0998 c -0.69823,0 -1.04836,0.34089 -1.04836,1.01972 0,0.67916 0.35009,1.01972 1.04836,1.01972 0.69822,0 1.04324,-0.34089 1.04324,-1.01972 0,-0.67916 -0.34503,-1.01972 -1.04324,-1.01972 z m 20.74201,0.71627 c -0.69822,0 -1.04324,0.33564 -1.04324,1.01473 0,0.67916 0.34503,1.01972 1.04324,1.01972 0.69821,0 1.04836,-0.34089 1.04836,-1.01972 0,-0.67916 -0.35016,-1.01473 -1.04836,-1.01473 z m -169.572038,0.19906 c -0.698219,0 -1.048351,0.34089 -1.048351,1.01972 0,0.67916 0.350134,1.01972 1.048351,1.01972 0.698217,0 1.043236,-0.34089 1.043236,-1.01972 0,-0.67909 -0.345018,-1.01972 -1.043236,-1.01972 z m 24.224576,0.81577 c -0.69822,0 -1.048353,0.3409 -1.048353,1.01973 0,0.67915 0.350134,1.01972 1.048353,1.01972 0.698219,0 1.048352,-0.34089 1.048352,-1.01972 -3e-6,-0.6791 -0.350134,-1.01973 -1.048352,-1.01973 z m 20.251073,0 c -0.69822,0 -1.04835,0.3409 -1.04835,1.01973 0,0.67915 0.35013,1.01972 1.04835,1.01972 0.69822,0 1.04835,-0.34089 1.04835,-1.01972 0,-0.6791 -0.35013,-1.01973 -1.04835,-1.01973 z m 128.660769,0.10444 c -0.69821,0 -1.04835,0.34089 -1.04835,1.01972 0,0.67916 0.35015,1.01473 1.04835,1.01473 0.69822,0 1.04324,-0.33564 1.04324,-1.01473 0,-0.67916 -0.34503,-1.01972 -1.04324,-1.01972 z m -88.75696,0.30345 c -0.69821,0 -1.04835,0.3409 -1.04835,1.01973 0,0.67915 0.35016,1.01972 1.04835,1.01972 0.69822,0 1.04835,-0.3409 1.04835,-1.01972 0,-0.67916 -0.35015,-1.01973 -1.04835,-1.01973 z m 92.52592,0.61151 c -0.69822,0 -1.04834,0.34089 -1.04834,1.01972 0,0.67916 0.35008,1.01972 1.04834,1.01972 0.69821,0 1.04835,-0.34089 1.04835,-1.01972 0,-0.67916 -0.35015,-1.01972 -1.04835,-1.01972 z m 3.87635,0.91522 c -0.69823,0 -1.04838,0.34089 -1.04835,1.01972 0,0.67916 0.35015,1.01972 1.04835,1.01972 0.6982,0 1.04322,-0.34089 1.04322,-1.01972 0,-0.67916 -0.34503,-1.01972 -1.04322,-1.01972 z m -80.33949,0.30871 c -0.69822,0 -1.04835,0.34089 -1.04835,1.01972 0,0.67916 0.35015,1.01473 1.04835,1.01473 0.69822,0 1.04836,-0.33564 1.04836,-1.01473 0,-0.67916 -0.35016,-1.01972 -1.04836,-1.01972 z m 4.29569,0 c -0.69823,0 -1.04835,0.34089 -1.04835,1.01972 0,0.67916 0.35015,1.01473 1.04835,1.01473 0.69822,0 1.04323,-0.33564 1.04323,-1.01473 0,-0.67916 -0.34503,-1.01972 -1.04323,-1.01972 z m 4.29056,0 c -0.69822,0 -1.04835,0.34089 -1.04835,1.01972 0,0.67916 0.35016,1.01473 1.04835,1.01473 0.69822,0 1.04835,-0.33564 1.04835,-1.01473 0,-0.67916 -0.35015,-1.01972 -1.04835,-1.01972 z m 4.60763,0 c -0.69822,0 -1.04323,0.34089 -1.04323,1.01972 0,0.67916 0.34503,1.01473 1.04323,1.01473 0.69822,0 1.04836,-0.33564 1.04836,-1.01473 0,-0.67916 -0.35016,-1.01972 -1.04836,-1.01972 z m 4.71502,0 c -0.69821,0 -1.04835,0.34089 -1.04835,1.01972 0,0.67916 0.35016,1.01473 1.04835,1.01473 0.69822,0 1.04836,-0.33564 1.04836,-1.01473 0,-0.67916 -0.35016,-1.01972 -1.04836,-1.01972 z m 4.8173,0 c -0.69821,0 -1.04834,0.34089 -1.04834,1.01972 0,0.67916 0.35015,1.01473 1.04834,1.01473 0.69822,0 1.04835,-0.33564 1.04835,-1.01473 0,-0.67916 -0.35015,-1.01972 -1.04835,-1.01972 z m 4.50535,0 c -0.69821,0 -1.04834,0.34089 -1.04834,1.01972 0,0.67916 0.35015,1.01473 1.04834,1.01473 0.69822,0 1.04836,-0.33564 1.04836,-1.01473 0,-0.67916 -0.35016,-1.01972 -1.04836,-1.01972 z m 4.39797,0 c -0.69823,0 -1.04835,0.34089 -1.04835,1.01972 0,0.67916 0.35008,1.01473 1.04835,1.01473 0.69822,0 1.04835,-0.33564 1.04835,-1.01473 0,-0.67916 -0.35009,-1.01972 -1.04835,-1.01972 z m 4.18829,0 c -0.69823,0 -1.04835,0.34089 -1.04835,1.01972 0,0.67916 0.35009,1.01473 1.04835,1.01473 0.69822,0 1.04834,-0.33564 1.04834,-1.01473 0,-0.67916 -0.35008,-1.01972 -1.04834,-1.01972 z m 4.29566,0 c -0.6982,0 -1.04834,0.34089 -1.04834,1.01972 0,0.67916 0.35015,1.01473 1.04834,1.01473 0.69823,0 1.04838,-0.33564 1.04838,-1.01473 0,-0.67916 -0.35015,-1.01972 -1.04838,-1.01972 z m 4.70992,0 c -0.6982,0 -1.04322,0.34089 -1.04322,1.01972 0,0.67916 0.34503,1.01473 1.04322,1.01473 0.69823,0 1.04835,-0.33564 1.04835,-1.01473 0,-0.67916 -0.35016,-1.01972 -1.04835,-1.01972 z m 4.08602,0 c -0.69823,0 -1.04835,0.34089 -1.04835,1.01972 0,0.67916 0.35015,1.01473 1.04835,1.01473 0.69823,0 1.04835,-0.33564 1.04835,-1.01473 0,-0.67916 -0.35016,-1.01972 -1.04835,-1.01972 z m 35.30129,0.6115 c -0.69823,0 -1.04324,0.34089 -1.04324,1.01972 0,0.67916 0.34503,1.01473 1.04324,1.01473 0.69823,0 1.04835,-0.33563 1.04835,-1.01473 0,-0.67915 -0.35016,-1.01972 -1.04835,-1.01972 z m -184.652938,0.30345 c -0.698219,0 -1.048351,0.3409 -1.048351,1.01973 0,0.67915 0.350134,1.01972 1.048351,1.01972 0.698217,0 1.043236,-0.34089 1.043236,-1.01972 0,-0.67916 -0.345018,-1.01973 -1.043236,-1.01973 z m 188.427018,0.81578 c -0.69824,0 -1.04836,0.34089 -1.04836,1.01972 0,0.67916 0.35016,1.01973 1.04836,1.01973 0.6982,0 1.04834,-0.3409 1.04834,-1.01973 0,-0.67915 -0.35015,-1.01972 -1.04834,-1.01972 z m -164.202442,0.20362 c -0.69822,0 -1.048353,0.34089 -1.048353,1.01972 0,0.67916 0.350134,1.01972 1.048353,1.01972 0.698219,0 1.048352,-0.34089 1.048352,-1.01972 -3e-6,-0.67916 -0.350134,-1.01972 -1.048352,-1.01972 z m 20.251073,0 c -0.69822,0 -1.04835,0.34089 -1.04835,1.01972 0,0.67916 0.35013,1.01972 1.04835,1.01972 0.69822,0 1.04835,-0.34089 1.04835,-1.01972 0,-0.67916 -0.35013,-1.01972 -1.04835,-1.01972 z m 39.903809,0 c -0.69821,0 -1.04835,0.34089 -1.04835,1.01972 0,0.67916 0.35016,1.01972 1.04835,1.01972 0.69822,0 1.04835,-0.34089 1.04835,-1.01972 0,-0.67916 -0.35015,-1.01972 -1.04835,-1.01972 z m 107.71423,1.22366 c -0.69824,0 -1.04836,0.3409 -1.04836,1.01973 0,0.67915 0.35009,1.01479 1.04836,1.01479 0.6982,0 1.04324,-0.33564 1.04324,-1.01479 0,-0.67916 -0.34503,-1.01973 -1.04324,-1.01973 z m -91.2321,0.81578 c -0.69823,0 -1.04836,0.33564 -1.04836,1.0148 0,0.67909 0.35016,1.01972 1.04836,1.01972 0.69822,0 1.04834,-0.34089 1.04834,-1.01972 0,-0.67916 -0.35015,-1.0148 -1.04834,-1.0148 z m -100.861588,1.0148 c -0.698219,0 -1.048351,0.34089 -1.048351,1.01972 0,0.67909 0.350134,1.01972 1.048351,1.01972 0.698217,0 1.043236,-0.34089 1.043236,-1.01972 0,-0.67916 -0.345018,-1.01972 -1.043236,-1.01972 z m 195.545568,0.40789 c -0.69823,0 -1.04325,0.34089 -1.04325,1.01972 0,0.67909 0.34504,1.01972 1.04325,1.01972 0.6982,0 1.04835,-0.34089 1.04835,-1.01972 0,-0.67916 -0.35015,-1.01972 -1.04835,-1.01972 z m -171.320992,0.6115 c -0.69822,0 -1.048353,0.34089 -1.048353,1.01972 0,0.67909 0.350134,1.01972 1.048353,1.01972 0.698219,0 1.048352,-0.34089 1.048352,-1.01972 -3e-6,-0.67916 -0.350134,-1.01972 -1.048352,-1.01972 z m 20.251073,0 c -0.69822,0 -1.04835,0.34089 -1.04835,1.01972 0,0.67909 0.35013,1.01972 1.04835,1.01972 0.69822,0 1.04835,-0.34089 1.04835,-1.01972 0,-0.67916 -0.35013,-1.01972 -1.04835,-1.01972 z m 39.903809,0 c -0.69821,0 -1.04835,0.34089 -1.04835,1.01972 0,0.67909 0.35016,1.01972 1.04835,1.01972 0.69822,0 1.04835,-0.34089 1.04835,-1.01972 0,-0.67916 -0.35015,-1.01972 -1.04835,-1.01972 z m 17.32081,1.731 c -0.69822,0 -1.04836,0.34089 -1.04836,1.01972 0,0.67916 0.35016,1.01972 1.04836,1.01972 0.69821,0 1.04323,-0.34089 1.04323,-1.01972 0,-0.67916 -0.34503,-1.01972 -1.04323,-1.01972 z m 96.15168,1.01972 c -0.69823,0 -1.04835,0.34089 -1.04835,1.01972 0,0.67916 0.35009,1.01972 1.04835,1.01972 0.69819,0 1.04834,-0.34089 1.04834,-1.01972 0,-0.67916 -0.35015,-1.01972 -1.04834,-1.01972 z m -197.851948,0.30871 c -0.698219,0 -1.048351,0.33564 -1.048351,1.01473 0,0.67916 0.350134,1.01972 1.048351,1.01972 0.698217,0 1.043236,-0.34089 1.043236,-1.01972 0,-0.67916 -0.345018,-1.01473 -1.043236,-1.01473 z m 24.224576,1.01473 c -0.69822,0 -1.048353,0.34089 -1.048353,1.01972 0,0.67916 0.350134,1.01972 1.048353,1.01972 0.698219,0 1.048352,-0.34089 1.048352,-1.01972 -3e-6,-0.67916 -0.350134,-1.01972 -1.048352,-1.01972 z m 20.251073,0 c -0.69822,0 -1.04835,0.34089 -1.04835,1.01972 0,0.67916 0.35013,1.01972 1.04835,1.01972 0.69822,0 1.04835,-0.34089 1.04835,-1.01972 0,-0.67916 -0.35013,-1.01972 -1.04835,-1.01972 z m 39.903809,0 c -0.69821,0 -1.04835,0.34089 -1.04835,1.01972 0,0.67916 0.35016,1.01972 1.04835,1.01972 0.69822,0 1.04835,-0.34089 1.04835,-1.01972 0,-0.67916 -0.35015,-1.01972 -1.04835,-1.01972 z m 18.89077,1.42761 c -0.69822,0 -1.04835,0.34089 -1.04835,1.01972 0,0.67916 0.35015,1.01972 1.04835,1.01972 0.69822,0 1.04835,-0.34089 1.04835,-1.01972 0,-0.67916 -0.35015,-1.01972 -1.04835,-1.01972 z m 95.10334,1.52705 c -0.69823,0 -1.04325,0.3409 -1.04325,1.01972 0,0.67916 0.34503,1.01973 1.04325,1.01973 0.6982,0 1.04835,-0.3409 1.04835,-1.01973 0,-0.67909 -0.35016,-1.01972 -1.04835,-1.01972 z m -198.373568,0.10444 c -0.698219,0 -1.048351,0.34089 -1.048351,1.01972 0,0.67916 0.350134,1.01473 1.048351,1.01473 0.698217,0 1.043236,-0.33564 1.043236,-1.01473 0,-0.67916 -0.345018,-1.01972 -1.043236,-1.01972 z m 24.224576,0.81578 c -0.69822,0 -1.048353,0.33563 -1.048353,1.01473 0,0.67915 0.350134,1.01972 1.048353,1.01972 0.698219,0 1.048352,-0.34089 1.048352,-1.01972 -3e-6,-0.67916 -0.350134,-1.01473 -1.048352,-1.01473 z m 20.251073,0 c -0.69822,0 -1.04835,0.33563 -1.04835,1.01473 0,0.67915 0.35013,1.01972 1.04835,1.01972 0.69822,0 1.04835,-0.34089 1.04835,-1.01972 0,-0.67916 -0.35013,-1.01473 -1.04835,-1.01473 z m 39.903809,0 c -0.69821,0 -1.04835,0.33563 -1.04835,1.01473 0,0.67915 0.35016,1.01972 1.04835,1.01972 0.69822,0 1.04835,-0.34089 1.04835,-1.01972 0,-0.67916 -0.35015,-1.01473 -1.04835,-1.01473 z m 21.08975,1.11923 c -0.69822,0 -1.04834,0.34089 -1.04834,1.01972 0,0.67909 0.35015,1.01972 1.04834,1.01972 0.69822,0 1.04835,-0.34089 1.04835,-1.01972 0,-0.67916 -0.35015,-1.01972 -1.04835,-1.01972 z m 39.2748,0.50707 c -0.6982,0 -1.04836,0.34089 -1.04836,1.01972 0,0.67916 0.35016,1.01972 1.04836,1.01972 0.69822,0 1.04834,-0.34089 1.04834,-1.01972 0,-0.67916 -0.35008,-1.01972 -1.04834,-1.01972 z m 52.79086,1.53211 c -0.69821,0 -1.04322,0.33564 -1.04322,1.01473 0,0.67916 0.34503,1.01972 1.04322,1.01972 0.69822,0 1.04835,-0.34089 1.04835,-1.01972 0,-0.67916 -0.35016,-1.01473 -1.04835,-1.01473 z m -197.534868,0.0992 c -0.698219,0 -1.048351,0.34089 -1.048351,1.01972 0,0.67916 0.350134,1.01972 1.048351,1.01972 0.698217,0 1.043236,-0.34089 1.043236,-1.01972 0,-0.67916 -0.345018,-1.01972 -1.043236,-1.01972 z m 24.224576,1.01972 c -0.69822,0 -1.048353,0.34089 -1.048353,1.01972 0,0.67916 0.350134,1.01473 1.048353,1.01473 0.698219,0 1.048352,-0.33564 1.048352,-1.01473 -3e-6,-0.67916 -0.350134,-1.01972 -1.048352,-1.01972 z m 20.251073,0 c -0.69822,0 -1.04835,0.34089 -1.04835,1.01972 0,0.67916 0.35013,1.01473 1.04835,1.01473 0.69822,0 1.04835,-0.33564 1.04835,-1.01473 0,-0.67916 -0.35013,-1.01972 -1.04835,-1.01972 z m 39.903809,0 c -0.69821,0 -1.04835,0.34089 -1.04835,1.01972 0,0.67916 0.35016,1.01473 1.04835,1.01473 0.69822,0 1.04835,-0.33564 1.04835,-1.01473 0,-0.67916 -0.35015,-1.01972 -1.04835,-1.01972 z m 24.02002,0.30345 c -0.69822,0 -1.04323,0.3409 -1.04323,1.01973 0,0.67915 0.34503,1.01972 1.04323,1.01972 0.69822,0 1.04835,-0.3409 1.04835,-1.01972 0,-0.67916 -0.35015,-1.01973 -1.04835,-1.01973 z m 51.74763,0 c -0.69822,0 -1.04834,0.3409 -1.04834,1.01973 0,0.67915 0.35009,1.01972 1.04834,1.01972 0.6982,0 1.04835,-0.3409 1.04835,-1.01972 0,-0.67916 -0.35015,-1.01973 -1.04835,-1.01973 z m -18.33337,0.51233 c -0.6982,0 -1.04835,0.33564 -1.04835,1.01473 0,0.67915 0.35016,1.01972 1.04835,1.01972 0.69823,0 1.04324,-0.34089 1.04324,-1.01972 0,-0.67916 -0.34503,-1.01473 -1.04324,-1.01473 z m 53.31248,1.42262 c -0.69823,0 -1.04324,0.34089 -1.04324,1.01972 0,0.67916 0.34503,1.01972 1.04324,1.01972 0.69823,0 1.04835,-0.34089 1.04835,-1.01972 0,-0.67916 -0.35015,-1.01972 -1.04835,-1.01972 z m -194.497208,0.61216 c -0.69822,0 -1.048352,0.34089 -1.04835,1.01972 -2e-6,0.67916 0.350128,1.01972 1.04835,1.01972 0.698219,0 1.043238,-0.34089 1.043238,-1.01972 0,-0.67916 -0.345017,-1.01972 -1.043238,-1.01972 z m 162.555738,0 c -0.69819,0 -1.04834,0.34089 -1.04834,1.01972 0,0.67916 0.35015,1.01972 1.04834,1.01972 0.69824,0 1.04836,-0.34089 1.04836,-1.01972 0,-0.67916 -0.35009,-1.01972 -1.04836,-1.01972 z m -51.43054,0.30871 c -0.69822,0 -1.04836,0.33563 -1.04836,1.01473 0,0.67915 0.35016,1.01972 1.04836,1.01972 0.69821,0 1.04835,-0.3409 1.04835,-1.01972 0,-0.67916 -0.35016,-1.01473 -1.04835,-1.01473 z m -87.529632,0.50706 c -0.69822,0 -1.048353,0.3409 -1.048353,1.01973 0,0.67915 0.350134,1.01972 1.048353,1.01972 0.698219,0 1.048352,-0.34024 1.048352,-1.01972 -3e-6,-0.67916 -0.350134,-1.01973 -1.048352,-1.01973 z m 20.251073,0 c -0.69822,0 -1.04835,0.3409 -1.04835,1.01973 0,0.67915 0.35013,1.01972 1.04835,1.01972 0.69822,0 1.04835,-0.34024 1.04835,-1.01972 0,-0.67916 -0.35013,-1.01973 -1.04835,-1.01973 z m 39.903809,0 c -0.69821,0 -1.04835,0.3409 -1.04835,1.01973 0,0.67915 0.35016,1.01972 1.04835,1.01972 0.69822,0 1.04835,-0.34024 1.04835,-1.01972 0,-0.67916 -0.35015,-1.01973 -1.04835,-1.01973 z m 54.07955,0 c -0.6982,0 -1.04834,0.3409 -1.04834,1.01973 0,0.67915 0.35015,1.01972 1.04834,1.01972 0.69824,0 1.04836,-0.34024 1.04836,-1.01972 0,-0.67916 -0.35016,-1.01973 -1.04836,-1.01973 z m 53.425,1.22367 c -0.69823,0 -1.04835,0.34089 -1.04835,1.01972 0,0.67916 0.35009,1.0148 1.04835,1.0148 0.69822,0 1.04324,-0.33564 1.04324,-1.0148 0,-0.67915 -0.34503,-1.01972 -1.04324,-1.01972 z m -25.13996,0.0998 c -0.69823,0 -1.04325,0.34089 -1.04325,1.01972 0,0.67916 0.34503,1.01972 1.04325,1.01972 0.6982,0 1.04835,-0.34089 1.04835,-1.01972 0,-0.67916 -0.35015,-1.01972 -1.04835,-1.01972 z m -50.90895,0.51232 c -0.69822,0 -1.04323,0.34089 -1.04323,1.01972 0,0.67916 0.34503,1.01473 1.04323,1.01473 0.69822,0 1.04835,-0.33563 1.04835,-1.01473 0,-0.67915 -0.35015,-1.01972 -1.04835,-1.01972 z m -112.904831,0.30346 c -0.698217,0 -1.048349,0.34089 -1.048349,1.01972 0,0.67916 0.350134,1.01972 1.048349,1.01972 0.69822,0 1.048352,-0.34089 1.048352,-1.01972 0,-0.67916 -0.350134,-1.01972 -1.048352,-1.01972 z m 131.550131,0 c -0.6982,0 -1.04835,0.34089 -1.04835,1.01972 0,0.67916 0.35016,1.01972 1.04835,1.01972 0.69823,0 1.04835,-0.34089 1.04835,-1.01972 0,-0.67916 -0.35009,-1.01972 -1.04835,-1.01972 z m -120.759788,0.40788 c -0.698219,0 -1.048348,0.3409 -1.048348,1.01973 -3e-6,0.67915 0.350127,1.01972 1.048348,1.01972 0.69822,0 1.043239,-0.34089 1.043239,-1.01972 0,-0.67916 -0.345017,-1.01973 -1.043239,-1.01973 z m 174.598998,0.20362 c -0.6982,0 -1.04835,0.34089 -1.04835,1.01972 0,0.67916 0.35015,1.01972 1.04835,1.01972 0.69823,0 1.04835,-0.34089 1.04835,-1.01972 0,-0.67916 -0.35009,-1.01972 -1.04835,-1.01972 z m -17.69921,0.10444 c -0.69823,0 -1.04836,0.33563 -1.04836,1.01479 0,0.67916 0.35016,1.01972 1.04836,1.01972 0.69819,0 1.04834,-0.34089 1.04834,-1.01972 0,-0.67916 -0.35015,-1.01479 -1.04834,-1.01479 z m -50.69928,0.50707 c -0.69822,0 -1.04836,0.34089 -1.04836,1.01972 0,0.67915 0.35016,1.01972 1.04836,1.01972 0.69821,0 1.04835,-0.34089 1.04835,-1.01972 0,-0.67916 -0.35016,-1.01972 -1.04835,-1.01972 z m -109.7649,0.0998 c -0.698219,0 -1.048352,0.3409 -1.048352,1.01972 0,0.67916 0.350134,1.01973 1.048352,1.01973 0.69822,0 1.048352,-0.3409 1.048352,-1.01973 0,-0.67915 -0.350134,-1.01972 -1.048352,-1.01972 z m 14.068358,0.10444 c -0.69822,0 -1.048353,0.34089 -1.048353,1.01972 0,0.67916 0.350134,1.01473 1.048353,1.01473 0.698219,0 1.048352,-0.33564 1.048352,-1.01473 -3e-6,-0.67916 -0.350134,-1.01972 -1.048352,-1.01972 z m 20.251073,0 c -0.69822,0 -1.04835,0.34089 -1.04835,1.01972 0,0.67916 0.35013,1.01473 1.04835,1.01473 0.69822,0 1.04835,-0.33564 1.04835,-1.01473 0,-0.67916 -0.35013,-1.01972 -1.04835,-1.01972 z m 39.903809,0 c -0.69821,0 -1.04835,0.34089 -1.04835,1.01972 0,0.67916 0.35016,1.01473 1.04835,1.01473 0.69822,0 1.04835,-0.33564 1.04835,-1.01473 0,-0.67916 -0.35015,-1.01972 -1.04835,-1.01972 z m 45.49331,0 c -0.69821,0 -1.04834,0.34089 -1.04834,1.01972 0,0.67916 0.35015,1.01473 1.04834,1.01473 0.69823,0 1.04836,-0.33564 1.04836,-1.01473 0,-0.67916 -0.35015,-1.01972 -1.04836,-1.01972 z m -123.592892,0.0998 c -0.698216,0 -1.043235,0.34089 -1.043235,1.01972 0,0.67915 0.345017,1.01972 1.043235,1.01972 0.69822,0 1.048352,-0.34089 1.048352,-1.01972 0,-0.67916 -0.350134,-1.01972 -1.048352,-1.01972 z m 168.738462,0.20361 c -0.69821,0 -1.04836,0.34089 -1.04836,1.01972 0,0.67916 0.35016,1.01972 1.04836,1.01972 0.69822,0 1.04834,-0.34089 1.04834,-1.01972 0,-0.67915 -0.35009,-1.01972 -1.04834,-1.01972 z m 9.22038,0 c -0.69822,0 -1.04834,0.34089 -1.04834,1.01972 0,0.67916 0.35015,1.01972 1.04834,1.01972 0.6982,0 1.04324,-0.34089 1.04324,-1.01972 0,-0.67915 -0.34503,-1.01972 -1.04324,-1.01972 z m -59.29064,0.20362 c -0.69821,0 -1.04835,0.34089 -1.04835,1.01972 0,0.67916 0.35016,1.01972 1.04835,1.01972 0.69822,0 1.04836,-0.34089 1.04836,-1.01972 0,-0.67916 -0.35016,-1.01972 -1.04836,-1.01972 z m 54.7853,0.10443 c -0.69823,0 -1.04837,0.3409 -1.04837,1.01972 0,0.67916 0.35015,1.0148 1.04837,1.0148 0.6982,0 1.04835,-0.33564 1.04835,-1.0148 0,-0.67915 -0.35015,-1.01972 -1.04835,-1.01972 z"
       inkscape:connector-curvature="0" />
  </g>
</svg>
